ISO-10303-21;
HEADER;
/* Generated by software containing ST-Developer
 * from STEP Tools, Inc. (www.steptools.com) 
 */

FILE_DESCRIPTION(
/* description */ ('',
'CAx-IF Rec.Pracs.---Representation and Presentation of Product Manufa
cturing Information (PMI)---4.0---2014-10-13'),
/* implementation_level */ '2;1');

FILE_NAME(
/* name */ 'Square D Cabinet v1.step',
/* time_stamp */ '2025-04-05T12:14:33-07:00',
/* author */ (''),
/* organization */ (''),
/* preprocessor_version */ 'ST-DEVELOPER v20',
/* originating_system */ 'Autodesk Translation Framework v13.20.0.188',

/* authorisation */ '');

FILE_SCHEMA (('AP242_MANAGED_MODEL_BASED_3D_ENGINEERING_MIM_LF { 1 0 10303 442 1 1 4 }'));
ENDSEC;

DATA;
#10=MECHANICAL_DESIGN_GEOMETRIC_PRESENTATION_REPRESENTATION('',(#17),#653);
#11=ITEM_DEFINED_TRANSFORMATION($,$,#411,#436);
#12=(
REPRESENTATION_RELATIONSHIP($,$,#664,#663)
REPRESENTATION_RELATIONSHIP_WITH_TRANSFORMATION(#11)
SHAPE_REPRESENTATION_RELATIONSHIP()
);
#13=CONTEXT_DEPENDENT_SHAPE_REPRESENTATION(#12,#662);
#14=NEXT_ASSEMBLY_USAGE_OCCURRENCE('Cabinet Base:1','Cabinet Base:1',
'Cabinet Base:1',#666,#667,'Cabinet Base:1');
#15=SHAPE_REPRESENTATION_RELATIONSHIP('SRR','None',#664,#16);
#16=ADVANCED_BREP_SHAPE_REPRESENTATION('',(#18),#652);
#17=STYLED_ITEM('',(#677),#18);
#18=MANIFOLD_SOLID_BREP('Body1',#397);
#19=CYLINDRICAL_SURFACE('',#422,38.1);
#20=CYLINDRICAL_SURFACE('',#424,38.1);
#21=FACE_BOUND('',#52,.T.);
#22=FACE_BOUND('',#56,.T.);
#23=FACE_BOUND('',#66,.T.);
#24=FACE_BOUND('',#70,.T.);
#25=CIRCLE('',#415,38.1);
#26=CIRCLE('',#419,38.1);
#27=CIRCLE('',#423,38.1);
#28=CIRCLE('',#425,38.1);
#29=FACE_OUTER_BOUND('',#49,.T.);
#30=FACE_OUTER_BOUND('',#50,.T.);
#31=FACE_OUTER_BOUND('',#51,.T.);
#32=FACE_OUTER_BOUND('',#53,.T.);
#33=FACE_OUTER_BOUND('',#54,.T.);
#34=FACE_OUTER_BOUND('',#55,.T.);
#35=FACE_OUTER_BOUND('',#57,.T.);
#36=FACE_OUTER_BOUND('',#58,.T.);
#37=FACE_OUTER_BOUND('',#59,.T.);
#38=FACE_OUTER_BOUND('',#60,.T.);
#39=FACE_OUTER_BOUND('',#61,.T.);
#40=FACE_OUTER_BOUND('',#62,.T.);
#41=FACE_OUTER_BOUND('',#63,.T.);
#42=FACE_OUTER_BOUND('',#64,.T.);
#43=FACE_OUTER_BOUND('',#65,.T.);
#44=FACE_OUTER_BOUND('',#67,.T.);
#45=FACE_OUTER_BOUND('',#68,.T.);
#46=FACE_OUTER_BOUND('',#69,.T.);
#47=FACE_OUTER_BOUND('',#71,.T.);
#48=FACE_OUTER_BOUND('',#72,.T.);
#49=EDGE_LOOP('',(#255,#256,#257,#258));
#50=EDGE_LOOP('',(#259,#260,#261,#262));
#51=EDGE_LOOP('',(#263,#264,#265,#266));
#52=EDGE_LOOP('',(#267));
#53=EDGE_LOOP('',(#268,#269,#270,#271,#272,#273,#274,#275));
#54=EDGE_LOOP('',(#276,#277,#278,#279,#280,#281,#282,#283));
#55=EDGE_LOOP('',(#284,#285,#286,#287));
#56=EDGE_LOOP('',(#288));
#57=EDGE_LOOP('',(#289,#290,#291,#292));
#58=EDGE_LOOP('',(#293,#294,#295,#296));
#59=EDGE_LOOP('',(#297,#298,#299,#300));
#60=EDGE_LOOP('',(#301,#302,#303,#304));
#61=EDGE_LOOP('',(#305,#306,#307,#308));
#62=EDGE_LOOP('',(#309,#310,#311,#312,#313,#314,#315,#316));
#63=EDGE_LOOP('',(#317,#318,#319,#320));
#64=EDGE_LOOP('',(#321,#322,#323,#324));
#65=EDGE_LOOP('',(#325,#326,#327,#328));
#66=EDGE_LOOP('',(#329));
#67=EDGE_LOOP('',(#330,#331,#332,#333,#334,#335,#336));
#68=EDGE_LOOP('',(#337,#338,#339,#340,#341,#342,#343));
#69=EDGE_LOOP('',(#344,#345,#346,#347));
#70=EDGE_LOOP('',(#348));
#71=EDGE_LOOP('',(#349,#350,#351,#352,#353,#354));
#72=EDGE_LOOP('',(#355,#356,#357,#358));
#73=LINE('',#544,#121);
#74=LINE('',#546,#122);
#75=LINE('',#548,#123);
#76=LINE('',#549,#124);
#77=LINE('',#552,#125);
#78=LINE('',#554,#126);
#79=LINE('',#555,#127);
#80=LINE('',#558,#128);
#81=LINE('',#560,#129);
#82=LINE('',#561,#130);
#83=LINE('',#566,#131);
#84=LINE('',#568,#132);
#85=LINE('',#570,#133);
#86=LINE('',#572,#134);
#87=LINE('',#573,#135);
#88=LINE('',#576,#136);
#89=LINE('',#578,#137);
#90=LINE('',#580,#138);
#91=LINE('',#582,#139);
#92=LINE('',#583,#140);
#93=LINE('',#585,#141);
#94=LINE('',#586,#142);
#95=LINE('',#590,#143);
#96=LINE('',#594,#144);
#97=LINE('',#598,#145);
#98=LINE('',#601,#146);
#99=LINE('',#604,#147);
#100=LINE('',#606,#148);
#101=LINE('',#608,#149);
#102=LINE('',#610,#150);
#103=LINE('',#611,#151);
#104=LINE('',#614,#152);
#105=LINE('',#616,#153);
#106=LINE('',#617,#154);
#107=LINE('',#620,#155);
#108=LINE('',#622,#156);
#109=LINE('',#623,#157);
#110=LINE('',#626,#158);
#111=LINE('',#628,#159);
#112=LINE('',#629,#160);
#113=LINE('',#632,#161);
#114=LINE('',#634,#162);
#115=LINE('',#635,#163);
#116=LINE('',#638,#164);
#117=LINE('',#640,#165);
#118=LINE('',#641,#166);
#119=LINE('',#643,#167);
#120=LINE('',#644,#168);
#121=VECTOR('',#443,10.);
#122=VECTOR('',#444,10.);
#123=VECTOR('',#445,10.);
#124=VECTOR('',#446,10.);
#125=VECTOR('',#449,10.);
#126=VECTOR('',#450,10.);
#127=VECTOR('',#451,10.);
#128=VECTOR('',#454,10.);
#129=VECTOR('',#455,10.);
#130=VECTOR('',#456,10.);
#131=VECTOR('',#461,10.);
#132=VECTOR('',#462,10.);
#133=VECTOR('',#463,10.);
#134=VECTOR('',#464,10.);
#135=VECTOR('',#465,10.);
#136=VECTOR('',#468,10.);
#137=VECTOR('',#469,10.);
#138=VECTOR('',#470,10.);
#139=VECTOR('',#471,10.);
#140=VECTOR('',#472,10.);
#141=VECTOR('',#475,10.);
#142=VECTOR('',#476,10.);
#143=VECTOR('',#481,10.);
#144=VECTOR('',#486,38.1);
#145=VECTOR('',#491,38.1);
#146=VECTOR('',#496,10.);
#147=VECTOR('',#499,10.);
#148=VECTOR('',#500,10.);
#149=VECTOR('',#501,10.);
#150=VECTOR('',#502,10.);
#151=VECTOR('',#503,10.);
#152=VECTOR('',#506,10.);
#153=VECTOR('',#507,10.);
#154=VECTOR('',#508,10.);
#155=VECTOR('',#511,10.);
#156=VECTOR('',#512,10.);
#157=VECTOR('',#513,10.);
#158=VECTOR('',#516,10.);
#159=VECTOR('',#517,10.);
#160=VECTOR('',#518,10.);
#161=VECTOR('',#521,10.);
#162=VECTOR('',#522,10.);
#163=VECTOR('',#523,10.);
#164=VECTOR('',#526,10.);
#165=VECTOR('',#527,10.);
#166=VECTOR('',#528,10.);
#167=VECTOR('',#531,10.);
#168=VECTOR('',#532,10.);
#169=VERTEX_POINT('',#542);
#170=VERTEX_POINT('',#543);
#171=VERTEX_POINT('',#545);
#172=VERTEX_POINT('',#547);
#173=VERTEX_POINT('',#551);
#174=VERTEX_POINT('',#553);
#175=VERTEX_POINT('',#557);
#176=VERTEX_POINT('',#559);
#177=VERTEX_POINT('',#562);
#178=VERTEX_POINT('',#565);
#179=VERTEX_POINT('',#567);
#180=VERTEX_POINT('',#569);
#181=VERTEX_POINT('',#571);
#182=VERTEX_POINT('',#575);
#183=VERTEX_POINT('',#577);
#184=VERTEX_POINT('',#579);
#185=VERTEX_POINT('',#581);
#186=VERTEX_POINT('',#587);
#187=VERTEX_POINT('',#593);
#188=VERTEX_POINT('',#597);
#189=VERTEX_POINT('',#603);
#190=VERTEX_POINT('',#605);
#191=VERTEX_POINT('',#607);
#192=VERTEX_POINT('',#609);
#193=VERTEX_POINT('',#613);
#194=VERTEX_POINT('',#615);
#195=VERTEX_POINT('',#619);
#196=VERTEX_POINT('',#621);
#197=VERTEX_POINT('',#625);
#198=VERTEX_POINT('',#627);
#199=VERTEX_POINT('',#631);
#200=VERTEX_POINT('',#633);
#201=VERTEX_POINT('',#637);
#202=VERTEX_POINT('',#639);
#203=EDGE_CURVE('',#169,#170,#73,.T.);
#204=EDGE_CURVE('',#171,#170,#74,.F.);
#205=EDGE_CURVE('',#171,#172,#75,.T.);
#206=EDGE_CURVE('',#169,#172,#76,.T.);
#207=EDGE_CURVE('',#170,#173,#77,.T.);
#208=EDGE_CURVE('',#173,#174,#78,.T.);
#209=EDGE_CURVE('',#174,#171,#79,.T.);
#210=EDGE_CURVE('',#175,#173,#80,.T.);
#211=EDGE_CURVE('',#176,#175,#81,.F.);
#212=EDGE_CURVE('',#176,#174,#82,.F.);
#213=EDGE_CURVE('',#177,#177,#25,.T.);
#214=EDGE_CURVE('',#178,#176,#83,.F.);
#215=EDGE_CURVE('',#178,#179,#84,.F.);
#216=EDGE_CURVE('',#179,#180,#85,.F.);
#217=EDGE_CURVE('',#181,#180,#86,.T.);
#218=EDGE_CURVE('',#172,#181,#87,.T.);
#219=EDGE_CURVE('',#182,#169,#88,.T.);
#220=EDGE_CURVE('',#182,#183,#89,.T.);
#221=EDGE_CURVE('',#183,#184,#90,.F.);
#222=EDGE_CURVE('',#185,#184,#91,.T.);
#223=EDGE_CURVE('',#175,#185,#92,.F.);
#224=EDGE_CURVE('',#185,#178,#93,.F.);
#225=EDGE_CURVE('',#184,#179,#94,.F.);
#226=EDGE_CURVE('',#186,#186,#26,.T.);
#227=EDGE_CURVE('',#180,#183,#95,.T.);
#228=EDGE_CURVE('',#177,#187,#96,.T.);
#229=EDGE_CURVE('',#187,#187,#27,.T.);
#230=EDGE_CURVE('',#186,#188,#97,.T.);
#231=EDGE_CURVE('',#188,#188,#28,.T.);
#232=EDGE_CURVE('',#181,#182,#98,.T.);
#233=EDGE_CURVE('',#189,#181,#99,.T.);
#234=EDGE_CURVE('',#189,#190,#100,.T.);
#235=EDGE_CURVE('',#190,#191,#101,.T.);
#236=EDGE_CURVE('',#191,#192,#102,.T.);
#237=EDGE_CURVE('',#182,#192,#103,.T.);
#238=EDGE_CURVE('',#191,#193,#104,.T.);
#239=EDGE_CURVE('',#194,#190,#105,.T.);
#240=EDGE_CURVE('',#194,#193,#106,.T.);
#241=EDGE_CURVE('',#193,#195,#107,.T.);
#242=EDGE_CURVE('',#196,#194,#108,.T.);
#243=EDGE_CURVE('',#195,#196,#109,.T.);
#244=EDGE_CURVE('',#197,#196,#110,.T.);
#245=EDGE_CURVE('',#197,#198,#111,.T.);
#246=EDGE_CURVE('',#198,#195,#112,.T.);
#247=EDGE_CURVE('',#199,#189,#113,.T.);
#248=EDGE_CURVE('',#200,#199,#114,.T.);
#249=EDGE_CURVE('',#200,#197,#115,.T.);
#250=EDGE_CURVE('',#198,#201,#116,.T.);
#251=EDGE_CURVE('',#201,#202,#117,.T.);
#252=EDGE_CURVE('',#192,#202,#118,.T.);
#253=EDGE_CURVE('',#201,#200,#119,.T.);
#254=EDGE_CURVE('',#202,#199,#120,.T.);
#255=ORIENTED_EDGE('',*,*,#203,.T.);
#256=ORIENTED_EDGE('',*,*,#204,.F.);
#257=ORIENTED_EDGE('',*,*,#205,.T.);
#258=ORIENTED_EDGE('',*,*,#206,.F.);
#259=ORIENTED_EDGE('',*,*,#207,.T.);
#260=ORIENTED_EDGE('',*,*,#208,.T.);
#261=ORIENTED_EDGE('',*,*,#209,.T.);
#262=ORIENTED_EDGE('',*,*,#204,.T.);
#263=ORIENTED_EDGE('',*,*,#208,.F.);
#264=ORIENTED_EDGE('',*,*,#210,.F.);
#265=ORIENTED_EDGE('',*,*,#211,.F.);
#266=ORIENTED_EDGE('',*,*,#212,.T.);
#267=ORIENTED_EDGE('',*,*,#213,.F.);
#268=ORIENTED_EDGE('',*,*,#209,.F.);
#269=ORIENTED_EDGE('',*,*,#212,.F.);
#270=ORIENTED_EDGE('',*,*,#214,.F.);
#271=ORIENTED_EDGE('',*,*,#215,.T.);
#272=ORIENTED_EDGE('',*,*,#216,.T.);
#273=ORIENTED_EDGE('',*,*,#217,.F.);
#274=ORIENTED_EDGE('',*,*,#218,.F.);
#275=ORIENTED_EDGE('',*,*,#205,.F.);
#276=ORIENTED_EDGE('',*,*,#207,.F.);
#277=ORIENTED_EDGE('',*,*,#203,.F.);
#278=ORIENTED_EDGE('',*,*,#219,.F.);
#279=ORIENTED_EDGE('',*,*,#220,.T.);
#280=ORIENTED_EDGE('',*,*,#221,.T.);
#281=ORIENTED_EDGE('',*,*,#222,.F.);
#282=ORIENTED_EDGE('',*,*,#223,.F.);
#283=ORIENTED_EDGE('',*,*,#210,.T.);
#284=ORIENTED_EDGE('',*,*,#224,.F.);
#285=ORIENTED_EDGE('',*,*,#222,.T.);
#286=ORIENTED_EDGE('',*,*,#225,.T.);
#287=ORIENTED_EDGE('',*,*,#215,.F.);
#288=ORIENTED_EDGE('',*,*,#226,.F.);
#289=ORIENTED_EDGE('',*,*,#225,.F.);
#290=ORIENTED_EDGE('',*,*,#221,.F.);
#291=ORIENTED_EDGE('',*,*,#227,.F.);
#292=ORIENTED_EDGE('',*,*,#216,.F.);
#293=ORIENTED_EDGE('',*,*,#224,.T.);
#294=ORIENTED_EDGE('',*,*,#214,.T.);
#295=ORIENTED_EDGE('',*,*,#211,.T.);
#296=ORIENTED_EDGE('',*,*,#223,.T.);
#297=ORIENTED_EDGE('',*,*,#213,.T.);
#298=ORIENTED_EDGE('',*,*,#228,.T.);
#299=ORIENTED_EDGE('',*,*,#229,.F.);
#300=ORIENTED_EDGE('',*,*,#228,.F.);
#301=ORIENTED_EDGE('',*,*,#226,.T.);
#302=ORIENTED_EDGE('',*,*,#230,.T.);
#303=ORIENTED_EDGE('',*,*,#231,.F.);
#304=ORIENTED_EDGE('',*,*,#230,.F.);
#305=ORIENTED_EDGE('',*,*,#227,.T.);
#306=ORIENTED_EDGE('',*,*,#220,.F.);
#307=ORIENTED_EDGE('',*,*,#232,.F.);
#308=ORIENTED_EDGE('',*,*,#217,.T.);
#309=ORIENTED_EDGE('',*,*,#218,.T.);
#310=ORIENTED_EDGE('',*,*,#233,.F.);
#311=ORIENTED_EDGE('',*,*,#234,.T.);
#312=ORIENTED_EDGE('',*,*,#235,.T.);
#313=ORIENTED_EDGE('',*,*,#236,.T.);
#314=ORIENTED_EDGE('',*,*,#237,.F.);
#315=ORIENTED_EDGE('',*,*,#219,.T.);
#316=ORIENTED_EDGE('',*,*,#206,.T.);
#317=ORIENTED_EDGE('',*,*,#238,.F.);
#318=ORIENTED_EDGE('',*,*,#235,.F.);
#319=ORIENTED_EDGE('',*,*,#239,.F.);
#320=ORIENTED_EDGE('',*,*,#240,.T.);
#321=ORIENTED_EDGE('',*,*,#241,.F.);
#322=ORIENTED_EDGE('',*,*,#240,.F.);
#323=ORIENTED_EDGE('',*,*,#242,.F.);
#324=ORIENTED_EDGE('',*,*,#243,.F.);
#325=ORIENTED_EDGE('',*,*,#243,.T.);
#326=ORIENTED_EDGE('',*,*,#244,.F.);
#327=ORIENTED_EDGE('',*,*,#245,.T.);
#328=ORIENTED_EDGE('',*,*,#246,.T.);
#329=ORIENTED_EDGE('',*,*,#229,.T.);
#330=ORIENTED_EDGE('',*,*,#242,.T.);
#331=ORIENTED_EDGE('',*,*,#239,.T.);
#332=ORIENTED_EDGE('',*,*,#234,.F.);
#333=ORIENTED_EDGE('',*,*,#247,.F.);
#334=ORIENTED_EDGE('',*,*,#248,.F.);
#335=ORIENTED_EDGE('',*,*,#249,.T.);
#336=ORIENTED_EDGE('',*,*,#244,.T.);
#337=ORIENTED_EDGE('',*,*,#241,.T.);
#338=ORIENTED_EDGE('',*,*,#246,.F.);
#339=ORIENTED_EDGE('',*,*,#250,.T.);
#340=ORIENTED_EDGE('',*,*,#251,.T.);
#341=ORIENTED_EDGE('',*,*,#252,.F.);
#342=ORIENTED_EDGE('',*,*,#236,.F.);
#343=ORIENTED_EDGE('',*,*,#238,.T.);
#344=ORIENTED_EDGE('',*,*,#253,.T.);
#345=ORIENTED_EDGE('',*,*,#248,.T.);
#346=ORIENTED_EDGE('',*,*,#254,.F.);
#347=ORIENTED_EDGE('',*,*,#251,.F.);
#348=ORIENTED_EDGE('',*,*,#231,.T.);
#349=ORIENTED_EDGE('',*,*,#233,.T.);
#350=ORIENTED_EDGE('',*,*,#232,.T.);
#351=ORIENTED_EDGE('',*,*,#237,.T.);
#352=ORIENTED_EDGE('',*,*,#252,.T.);
#353=ORIENTED_EDGE('',*,*,#254,.T.);
#354=ORIENTED_EDGE('',*,*,#247,.T.);
#355=ORIENTED_EDGE('',*,*,#253,.F.);
#356=ORIENTED_EDGE('',*,*,#250,.F.);
#357=ORIENTED_EDGE('',*,*,#245,.F.);
#358=ORIENTED_EDGE('',*,*,#249,.F.);
#359=PLANE('',#412);
#360=PLANE('',#413);
#361=PLANE('',#414);
#362=PLANE('',#416);
#363=PLANE('',#417);
#364=PLANE('',#418);
#365=PLANE('',#420);
#366=PLANE('',#421);
#367=PLANE('',#426);
#368=PLANE('',#427);
#369=PLANE('',#428);
#370=PLANE('',#429);
#371=PLANE('',#430);
#372=PLANE('',#431);
#373=PLANE('',#432);
#374=PLANE('',#433);
#375=PLANE('',#434);
#376=PLANE('',#435);
#377=ADVANCED_FACE('',(#29),#359,.T.);
#378=ADVANCED_FACE('',(#30),#360,.T.);
#379=ADVANCED_FACE('',(#31,#21),#361,.F.);
#380=ADVANCED_FACE('',(#32),#362,.F.);
#381=ADVANCED_FACE('',(#33),#363,.F.);
#382=ADVANCED_FACE('',(#34,#22),#364,.F.);
#383=ADVANCED_FACE('',(#35),#365,.F.);
#384=ADVANCED_FACE('',(#36),#366,.T.);
#385=ADVANCED_FACE('',(#37),#19,.F.);
#386=ADVANCED_FACE('',(#38),#20,.F.);
#387=ADVANCED_FACE('',(#39),#367,.F.);
#388=ADVANCED_FACE('',(#40),#368,.T.);
#389=ADVANCED_FACE('',(#41),#369,.F.);
#390=ADVANCED_FACE('',(#42),#370,.F.);
#391=ADVANCED_FACE('',(#43,#23),#371,.T.);
#392=ADVANCED_FACE('',(#44),#372,.T.);
#393=ADVANCED_FACE('',(#45),#373,.T.);
#394=ADVANCED_FACE('',(#46,#24),#374,.T.);
#395=ADVANCED_FACE('',(#47),#375,.T.);
#396=ADVANCED_FACE('',(#48),#376,.F.);
#397=CLOSED_SHELL('',(#377,#378,#379,#380,#381,#382,#383,#384,#385,#386,
#387,#388,#389,#390,#391,#392,#393,#394,#395,#396));
#398=DERIVED_UNIT_ELEMENT(#400,1.);
#399=DERIVED_UNIT_ELEMENT(#655,-3.);
#400=(
MASS_UNIT()
NAMED_UNIT(*)
SI_UNIT(.KILO.,.GRAM.)
);
#401=DERIVED_UNIT((#398,#399));
#402=MEASURE_REPRESENTATION_ITEM('density measure',
POSITIVE_RATIO_MEASURE(7850.),#401);
#403=PROPERTY_DEFINITION_REPRESENTATION(#408,#405);
#404=PROPERTY_DEFINITION_REPRESENTATION(#409,#406);
#405=REPRESENTATION('material name',(#407),#652);
#406=REPRESENTATION('density',(#402),#652);
#407=DESCRIPTIVE_REPRESENTATION_ITEM('Steel','Steel');
#408=PROPERTY_DEFINITION('material property','material name',#667);
#409=PROPERTY_DEFINITION('material property','density of part',#667);
#410=AXIS2_PLACEMENT_3D('',#539,#437,#438);
#411=AXIS2_PLACEMENT_3D('',#540,#439,#440);
#412=AXIS2_PLACEMENT_3D('',#541,#441,#442);
#413=AXIS2_PLACEMENT_3D('',#550,#447,#448);
#414=AXIS2_PLACEMENT_3D('',#556,#452,#453);
#415=AXIS2_PLACEMENT_3D('',#563,#457,#458);
#416=AXIS2_PLACEMENT_3D('',#564,#459,#460);
#417=AXIS2_PLACEMENT_3D('',#574,#466,#467);
#418=AXIS2_PLACEMENT_3D('',#584,#473,#474);
#419=AXIS2_PLACEMENT_3D('',#588,#477,#478);
#420=AXIS2_PLACEMENT_3D('',#589,#479,#480);
#421=AXIS2_PLACEMENT_3D('',#591,#482,#483);
#422=AXIS2_PLACEMENT_3D('',#592,#484,#485);
#423=AXIS2_PLACEMENT_3D('',#595,#487,#488);
#424=AXIS2_PLACEMENT_3D('',#596,#489,#490);
#425=AXIS2_PLACEMENT_3D('',#599,#492,#493);
#426=AXIS2_PLACEMENT_3D('',#600,#494,#495);
#427=AXIS2_PLACEMENT_3D('',#602,#497,#498);
#428=AXIS2_PLACEMENT_3D('',#612,#504,#505);
#429=AXIS2_PLACEMENT_3D('',#618,#509,#510);
#430=AXIS2_PLACEMENT_3D('',#624,#514,#515);
#431=AXIS2_PLACEMENT_3D('',#630,#519,#520);
#432=AXIS2_PLACEMENT_3D('',#636,#524,#525);
#433=AXIS2_PLACEMENT_3D('',#642,#529,#530);
#434=AXIS2_PLACEMENT_3D('',#645,#533,#534);
#435=AXIS2_PLACEMENT_3D('',#646,#535,#536);
#436=AXIS2_PLACEMENT_3D('',#647,#537,#538);
#437=DIRECTION('axis',(0.,0.,1.));
#438=DIRECTION('refdir',(1.,0.,0.));
#439=DIRECTION('axis',(0.,0.,1.));
#440=DIRECTION('refdir',(1.,0.,0.));
#441=DIRECTION('center_axis',(-1.,0.,0.));
#442=DIRECTION('ref_axis',(0.,0.,1.));
#443=DIRECTION('',(0.,0.,-1.));
#444=DIRECTION('',(0.,-1.,0.));
#445=DIRECTION('',(0.,0.,1.));
#446=DIRECTION('',(0.,-1.,0.));
#447=DIRECTION('center_axis',(0.,0.,-1.));
#448=DIRECTION('ref_axis',(-1.,0.,0.));
#449=DIRECTION('',(1.,0.,0.));
#450=DIRECTION('',(0.,-1.,0.));
#451=DIRECTION('',(-1.,0.,0.));
#452=DIRECTION('center_axis',(1.,0.,0.));
#453=DIRECTION('ref_axis',(0.,1.,0.));
#454=DIRECTION('',(0.,0.,1.));
#455=DIRECTION('',(0.,-1.,0.));
#456=DIRECTION('',(0.,0.,-1.));
#457=DIRECTION('center_axis',(-1.,0.,0.));
#458=DIRECTION('ref_axis',(0.,-1.,0.));
#459=DIRECTION('center_axis',(0.,-1.,0.));
#460=DIRECTION('ref_axis',(1.,0.,0.));
#461=DIRECTION('',(-1.,0.,0.));
#462=DIRECTION('',(0.,0.,-1.));
#463=DIRECTION('',(-1.,0.,0.));
#464=DIRECTION('',(0.,0.,-1.));
#465=DIRECTION('',(-1.,0.,0.));
#466=DIRECTION('center_axis',(0.,1.,0.));
#467=DIRECTION('ref_axis',(-1.,0.,0.));
#468=DIRECTION('',(1.,0.,0.));
#469=DIRECTION('',(0.,0.,-1.));
#470=DIRECTION('',(1.,0.,0.));
#471=DIRECTION('',(0.,0.,1.));
#472=DIRECTION('',(1.,0.,0.));
#473=DIRECTION('center_axis',(-1.,0.,0.));
#474=DIRECTION('ref_axis',(0.,-1.,0.));
#475=DIRECTION('',(0.,1.,0.));
#476=DIRECTION('',(0.,1.,0.));
#477=DIRECTION('center_axis',(1.,0.,0.));
#478=DIRECTION('ref_axis',(0.,-1.,0.));
#479=DIRECTION('center_axis',(0.,0.,1.));
#480=DIRECTION('ref_axis',(1.,0.,0.));
#481=DIRECTION('',(-6.03382078600629E-17,1.,0.));
#482=DIRECTION('center_axis',(0.,0.,1.));
#483=DIRECTION('ref_axis',(1.,0.,0.));
#484=DIRECTION('center_axis',(-1.,0.,0.));
#485=DIRECTION('ref_axis',(0.,-1.,0.));
#486=DIRECTION('',(1.,0.,0.));
#487=DIRECTION('center_axis',(-1.,0.,0.));
#488=DIRECTION('ref_axis',(0.,-1.,0.));
#489=DIRECTION('center_axis',(1.,0.,0.));
#490=DIRECTION('ref_axis',(0.,-1.,0.));
#491=DIRECTION('',(-1.,0.,0.));
#492=DIRECTION('center_axis',(1.,0.,0.));
#493=DIRECTION('ref_axis',(0.,-1.,0.));
#494=DIRECTION('center_axis',(-1.,-6.03382078600629E-17,0.));
#495=DIRECTION('ref_axis',(0.,0.,1.));
#496=DIRECTION('',(-6.03382078600629E-17,1.,0.));
#497=DIRECTION('center_axis',(0.,0.,1.));
#498=DIRECTION('ref_axis',(1.,0.,0.));
#499=DIRECTION('',(-6.03382078600629E-17,1.,0.));
#500=DIRECTION('',(1.,0.,0.));
#501=DIRECTION('',(0.,1.,0.));
#502=DIRECTION('',(-1.,0.,0.));
#503=DIRECTION('',(-6.03382078600629E-17,1.,0.));
#504=DIRECTION('center_axis',(-1.,0.,0.));
#505=DIRECTION('ref_axis',(0.,0.,1.));
#506=DIRECTION('',(0.,0.,-1.));
#507=DIRECTION('',(0.,0.,1.));
#508=DIRECTION('',(0.,1.,0.));
#509=DIRECTION('center_axis',(0.,0.,-1.));
#510=DIRECTION('ref_axis',(-1.,0.,0.));
#511=DIRECTION('',(1.,0.,0.));
#512=DIRECTION('',(-1.,0.,0.));
#513=DIRECTION('',(0.,-1.,0.));
#514=DIRECTION('center_axis',(1.,0.,0.));
#515=DIRECTION('ref_axis',(0.,1.,0.));
#516=DIRECTION('',(0.,0.,1.));
#517=DIRECTION('',(0.,1.,0.));
#518=DIRECTION('',(0.,0.,1.));
#519=DIRECTION('center_axis',(0.,-1.,0.));
#520=DIRECTION('ref_axis',(1.,0.,0.));
#521=DIRECTION('',(1.,0.,0.));
#522=DIRECTION('',(0.,0.,1.));
#523=DIRECTION('',(1.,0.,0.));
#524=DIRECTION('center_axis',(0.,1.,0.));
#525=DIRECTION('ref_axis',(-1.,0.,0.));
#526=DIRECTION('',(-1.,0.,0.));
#527=DIRECTION('',(0.,0.,1.));
#528=DIRECTION('',(-1.,0.,0.));
#529=DIRECTION('center_axis',(-1.,0.,0.));
#530=DIRECTION('ref_axis',(0.,-1.,0.));
#531=DIRECTION('',(0.,-1.,0.));
#532=DIRECTION('',(0.,-1.,0.));
#533=DIRECTION('center_axis',(0.,0.,1.));
#534=DIRECTION('ref_axis',(1.,0.,0.));
#535=DIRECTION('center_axis',(0.,0.,1.));
#536=DIRECTION('ref_axis',(1.,0.,0.));
#537=DIRECTION('',(0.,0.,1.));
#538=DIRECTION('',(1.,0.,0.));
#539=CARTESIAN_POINT('',(0.,0.,0.));
#540=CARTESIAN_POINT('',(0.,0.,0.));
#541=CARTESIAN_POINT('Origin',(281.,0.,150.));
#542=CARTESIAN_POINT('',(281.,734.,206.));
#543=CARTESIAN_POINT('',(281.,734.,148.));
#544=CARTESIAN_POINT('',(281.,734.,75.));
#545=CARTESIAN_POINT('',(281.,2.,148.));
#546=CARTESIAN_POINT('',(281.,0.,148.));
#547=CARTESIAN_POINT('',(281.,2.00000000000001,206.));
#548=CARTESIAN_POINT('',(281.,2.,75.));
#549=CARTESIAN_POINT('',(281.,184.,206.));
#550=CARTESIAN_POINT('Origin',(317.,0.,148.));
#551=CARTESIAN_POINT('',(315.,734.,148.));
#552=CARTESIAN_POINT('',(317.,734.,148.));
#553=CARTESIAN_POINT('',(315.,2.,148.));
#554=CARTESIAN_POINT('',(315.,0.,148.));
#555=CARTESIAN_POINT('',(158.5,2.,148.));
#556=CARTESIAN_POINT('Origin',(315.,0.,0.));
#557=CARTESIAN_POINT('',(315.,734.,2.));
#558=CARTESIAN_POINT('',(315.,734.,0.));
#559=CARTESIAN_POINT('',(315.,2.00000000000001,2.));
#560=CARTESIAN_POINT('',(315.,184.,2.));
#561=CARTESIAN_POINT('',(315.,2.,0.));
#562=CARTESIAN_POINT('',(315.,103.2,54.1));
#563=CARTESIAN_POINT('Origin',(315.,65.1,54.1));
#564=CARTESIAN_POINT('Origin',(0.,2.,0.));
#565=CARTESIAN_POINT('',(2.,2.00000000000002,2.));
#566=CARTESIAN_POINT('',(79.25,2.00000000000003,2.));
#567=CARTESIAN_POINT('',(2.,2.00000000000002,204.));
#568=CARTESIAN_POINT('',(2.,2.00000000000003,0.));
#569=CARTESIAN_POINT('',(13.,2.00000000000003,204.));
#570=CARTESIAN_POINT('',(79.25,2.00000000000003,204.));
#571=CARTESIAN_POINT('',(13.,2.00000000000003,206.));
#572=CARTESIAN_POINT('',(13.,2.00000000000003,103.));
#573=CARTESIAN_POINT('',(79.25,2.00000000000003,206.));
#574=CARTESIAN_POINT('Origin',(317.,734.,0.));
#575=CARTESIAN_POINT('',(13.,734.,206.));
#576=CARTESIAN_POINT('',(237.75,734.,206.));
#577=CARTESIAN_POINT('',(13.,734.,204.));
#578=CARTESIAN_POINT('',(12.9999999999999,734.,103.));
#579=CARTESIAN_POINT('',(2.,734.,204.));
#580=CARTESIAN_POINT('',(237.75,734.,204.));
#581=CARTESIAN_POINT('',(2.,734.,2.));
#582=CARTESIAN_POINT('',(1.99999999999999,734.,0.));
#583=CARTESIAN_POINT('',(237.75,734.,2.));
#584=CARTESIAN_POINT('Origin',(2.,736.,0.));
#585=CARTESIAN_POINT('',(1.99999999999999,552.,2.));
#586=CARTESIAN_POINT('',(1.99999999999999,552.,204.));
#587=CARTESIAN_POINT('',(2.,103.2,54.1));
#588=CARTESIAN_POINT('Origin',(2.,65.1,54.1));
#589=CARTESIAN_POINT('Origin',(158.5,368.,204.));
#590=CARTESIAN_POINT('',(13.,368.,204.));
#591=CARTESIAN_POINT('Origin',(158.5,368.,2.));
#592=CARTESIAN_POINT('Origin',(317.,65.1,54.1));
#593=CARTESIAN_POINT('',(317.,103.2,54.1));
#594=CARTESIAN_POINT('',(317.,103.2,54.1));
#595=CARTESIAN_POINT('Origin',(317.,65.1,54.1));
#596=CARTESIAN_POINT('Origin',(0.,65.1,54.1));
#597=CARTESIAN_POINT('',(0.,103.2,54.1));
#598=CARTESIAN_POINT('',(0.,103.2,54.1));
#599=CARTESIAN_POINT('Origin',(0.,65.1,54.1));
#600=CARTESIAN_POINT('Origin',(13.,368.,206.));
#601=CARTESIAN_POINT('',(13.,368.,206.));
#602=CARTESIAN_POINT('Origin',(158.5,368.,206.));
#603=CARTESIAN_POINT('',(13.,0.,206.));
#604=CARTESIAN_POINT('',(13.,368.,206.));
#605=CARTESIAN_POINT('',(283.,0.,206.));
#606=CARTESIAN_POINT('',(0.,0.,206.));
#607=CARTESIAN_POINT('',(283.,736.,206.));
#608=CARTESIAN_POINT('',(283.,184.,206.));
#609=CARTESIAN_POINT('',(12.9999999999999,736.,206.));
#610=CARTESIAN_POINT('',(317.,736.,206.));
#611=CARTESIAN_POINT('',(13.,368.,206.));
#612=CARTESIAN_POINT('Origin',(283.,0.,150.));
#613=CARTESIAN_POINT('',(283.,736.,150.));
#614=CARTESIAN_POINT('',(283.,736.,75.));
#615=CARTESIAN_POINT('',(283.,0.,150.));
#616=CARTESIAN_POINT('',(283.,0.,75.));
#617=CARTESIAN_POINT('',(283.,0.,150.));
#618=CARTESIAN_POINT('Origin',(317.,0.,150.));
#619=CARTESIAN_POINT('',(317.,736.,150.));
#620=CARTESIAN_POINT('',(317.,736.,150.));
#621=CARTESIAN_POINT('',(317.,0.,150.));
#622=CARTESIAN_POINT('',(158.5,0.,150.));
#623=CARTESIAN_POINT('',(317.,0.,150.));
#624=CARTESIAN_POINT('Origin',(317.,0.,0.));
#625=CARTESIAN_POINT('',(317.,0.,0.));
#626=CARTESIAN_POINT('',(317.,0.,0.));
#627=CARTESIAN_POINT('',(317.,736.,0.));
#628=CARTESIAN_POINT('',(317.,0.,0.));
#629=CARTESIAN_POINT('',(317.,736.,0.));
#630=CARTESIAN_POINT('Origin',(0.,0.,0.));
#631=CARTESIAN_POINT('',(0.,0.,206.));
#632=CARTESIAN_POINT('',(0.,0.,206.));
#633=CARTESIAN_POINT('',(0.,0.,0.));
#634=CARTESIAN_POINT('',(0.,0.,0.));
#635=CARTESIAN_POINT('',(0.,0.,0.));
#636=CARTESIAN_POINT('Origin',(317.,736.,0.));
#637=CARTESIAN_POINT('',(0.,736.,0.));
#638=CARTESIAN_POINT('',(317.,736.,0.));
#639=CARTESIAN_POINT('',(0.,736.,206.));
#640=CARTESIAN_POINT('',(0.,736.,0.));
#641=CARTESIAN_POINT('',(317.,736.,206.));
#642=CARTESIAN_POINT('Origin',(0.,736.,0.));
#643=CARTESIAN_POINT('',(0.,736.,0.));
#644=CARTESIAN_POINT('',(0.,736.,206.));
#645=CARTESIAN_POINT('Origin',(158.5,368.,206.));
#646=CARTESIAN_POINT('Origin',(158.5,368.,0.));
#647=CARTESIAN_POINT('',(0.,0.,0.));
#648=UNCERTAINTY_MEASURE_WITH_UNIT(LENGTH_MEASURE(0.01),#654,
'DISTANCE_ACCURACY_VALUE',
'Maximum model space distance between geometric entities at asserted c
onnectivities');
#649=UNCERTAINTY_MEASURE_WITH_UNIT(LENGTH_MEASURE(0.01),#654,
'DISTANCE_ACCURACY_VALUE',
'Maximum model space distance between geometric entities at asserted c
onnectivities');
#650=UNCERTAINTY_MEASURE_WITH_UNIT(LENGTH_MEASURE(0.01),#654,
'DISTANCE_ACCURACY_VALUE',
'Maximum model space distance between geometric entities at asserted c
onnectivities');
#651=(
GEOMETRIC_REPRESENTATION_CONTEXT(3)
GLOBAL_UNCERTAINTY_ASSIGNED_CONTEXT((#648))
GLOBAL_UNIT_ASSIGNED_CONTEXT((#654,#656,#657))
REPRESENTATION_CONTEXT('','3D')
);
#652=(
GEOMETRIC_REPRESENTATION_CONTEXT(3)
GLOBAL_UNCERTAINTY_ASSIGNED_CONTEXT((#649))
GLOBAL_UNIT_ASSIGNED_CONTEXT((#654,#656,#657))
REPRESENTATION_CONTEXT('','3D')
);
#653=(
GEOMETRIC_REPRESENTATION_CONTEXT(3)
GLOBAL_UNCERTAINTY_ASSIGNED_CONTEXT((#650))
GLOBAL_UNIT_ASSIGNED_CONTEXT((#654,#656,#657))
REPRESENTATION_CONTEXT('','3D')
);
#654=(
LENGTH_UNIT()
NAMED_UNIT(*)
SI_UNIT(.MILLI.,.METRE.)
);
#655=(
LENGTH_UNIT()
NAMED_UNIT(*)
SI_UNIT($,.METRE.)
);
#656=(
NAMED_UNIT(*)
PLANE_ANGLE_UNIT()
SI_UNIT($,.RADIAN.)
);
#657=(
NAMED_UNIT(*)
SI_UNIT($,.STERADIAN.)
SOLID_ANGLE_UNIT()
);
#658=SHAPE_DEFINITION_REPRESENTATION(#660,#663);
#659=SHAPE_DEFINITION_REPRESENTATION(#661,#664);
#660=PRODUCT_DEFINITION_SHAPE('',$,#666);
#661=PRODUCT_DEFINITION_SHAPE('',$,#667);
#662=PRODUCT_DEFINITION_SHAPE($,$,#14);
#663=SHAPE_REPRESENTATION('',(#410,#436),#651);
#664=SHAPE_REPRESENTATION('',(#411),#652);
#665=PRODUCT_DEFINITION_CONTEXT('part definition',#673,'design');
#666=PRODUCT_DEFINITION('Square D Cabinet','Square D Cabinet v1',#668,#665);
#667=PRODUCT_DEFINITION('Cabinet Base','Cabinet Base',#669,#665);
#668=PRODUCT_DEFINITION_FORMATION('',$,#675);
#669=PRODUCT_DEFINITION_FORMATION('',$,#676);
#670=PRODUCT_RELATED_PRODUCT_CATEGORY('Square D Cabinet v1',
'Square D Cabinet v1',(#675));
#671=PRODUCT_RELATED_PRODUCT_CATEGORY('Cabinet Base','Cabinet Base',(#676));
#672=APPLICATION_PROTOCOL_DEFINITION('international standard',
'ap242_managed_model_based_3d_engineering',2011,#673);
#673=APPLICATION_CONTEXT('Managed model based 3d engineering');
#674=PRODUCT_CONTEXT('part definition',#673,'mechanical');
#675=PRODUCT('Square D Cabinet','Square D Cabinet v1',$,(#674));
#676=PRODUCT('Cabinet Base','Cabinet Base',$,(#674));
#677=PRESENTATION_STYLE_ASSIGNMENT((#678));
#678=SURFACE_STYLE_USAGE(.BOTH.,#679);
#679=SURFACE_SIDE_STYLE('',(#680));
#680=SURFACE_STYLE_FILL_AREA(#681);
#681=FILL_AREA_STYLE('Steel - Satin',(#682));
#682=FILL_AREA_STYLE_COLOUR('Steel - Satin',#683);
#683=COLOUR_RGB('Steel - Satin',0.627450980392157,0.627450980392157,0.627450980392157);
ENDSEC;
END-ISO-10303-21;
