ISO-10303-21;
HEADER;
FILE_DESCRIPTION(('STEP AP242'),'1');
FILE_NAME('1051003.stp','2025-07-29T22:49:20',('TraceParts'),('TraceParts S.A.'),'Spatial InterOp 3D',' ',' ');
FILE_SCHEMA(('AP242_MANAGED_MODEL_BASED_3D_ENGINEERING_MIM_LF  {1 0 10303 442 1 1 4}'));
ENDSEC;
DATA;
#1=MECHANICAL_DESIGN_GEOMETRIC_PRESENTATION_REPRESENTATION(' ',(#10,#11,#12,#13,#14,#15,#16,#17,#18,#19,#20,#21,#22,#23,#24,#25,#26,#27,#28,#29,#30),#6);
#2=PRODUCT_DEFINITION_CONTEXT('',#31,'design');
#3=APPLICATION_PROTOCOL_DEFINITION('INTERNATIONAL STANDARD','ap242_managed_model_based_3d_engineering',2014,#31);
#4=PRODUCT_CATEGORY_RELATIONSHIP('NONE','NONE',#32,#33);
#5=SHAPE_DEFINITION_REPRESENTATION(#34,#35);
#6= (GEOMETRIC_REPRESENTATION_CONTEXT(3)GLOBAL_UNCERTAINTY_ASSIGNED_CONTEXT((#38))GLOBAL_UNIT_ASSIGNED_CONTEXT((#40,#41,#42))REPRESENTATION_CONTEXT('NONE','WORKSPACE'));
#10=STYLED_ITEM('',(#44),#45);
#11=STYLED_ITEM('',(#46),#47);
#12=STYLED_ITEM('',(#48),#49);
#13=STYLED_ITEM('',(#50),#51);
#14=STYLED_ITEM('',(#52),#53);
#15=STYLED_ITEM('',(#54),#55);
#16=STYLED_ITEM('',(#56),#57);
#17=STYLED_ITEM('',(#58),#59);
#18=STYLED_ITEM('',(#60),#61);
#19=STYLED_ITEM('',(#62),#63);
#20=STYLED_ITEM('',(#64),#65);
#21=STYLED_ITEM('',(#66),#67);
#22=STYLED_ITEM('',(#68),#69);
#23=STYLED_ITEM('',(#70),#71);
#24=STYLED_ITEM('',(#72),#73);
#25=STYLED_ITEM('',(#74),#75);
#26=STYLED_ITEM('',(#76),#77);
#27=STYLED_ITEM('',(#78),#79);
#28=STYLED_ITEM('',(#80),#81);
#29=STYLED_ITEM('',(#82),#83);
#30=STYLED_ITEM('',(#84),#85);
#31=APPLICATION_CONTEXT('managed model based 3d engineering');
#32=PRODUCT_CATEGORY('part','NONE');
#33=PRODUCT_RELATED_PRODUCT_CATEGORY('detail',' ',(#86));
#34=PRODUCT_DEFINITION_SHAPE('NONE','NONE',#87);
#35=ADVANCED_BREP_SHAPE_REPRESENTATION('1051003_ZB_6_UNBEDRUCKT-select|1#1051003_ZB_6_UNBEDRUCKT-select;1051003_ZB_6_UNBEDRUCKT-select',(#85,#88),#6);
#38=UNCERTAINTY_MEASURE_WITH_UNIT(LENGTH_MEASURE(1.0E-06),#40,'','');
#40= (CONVERSION_BASED_UNIT('MILLIMETRE',#91)LENGTH_UNIT()NAMED_UNIT(#94));
#41= (NAMED_UNIT(#96)PLANE_ANGLE_UNIT()SI_UNIT($,.RADIAN.));
#42= (NAMED_UNIT(#96)SOLID_ANGLE_UNIT()SI_UNIT($,.STERADIAN.));
#44=PRESENTATION_STYLE_ASSIGNMENT((#102));
#45=ADVANCED_FACE('',(#103),#104,.T.);
#46=PRESENTATION_STYLE_ASSIGNMENT((#105));
#47=ADVANCED_FACE('',(#106),#107,.T.);
#48=PRESENTATION_STYLE_ASSIGNMENT((#108));
#49=ADVANCED_FACE('',(#109),#110,.T.);
#50=PRESENTATION_STYLE_ASSIGNMENT((#111));
#51=ADVANCED_FACE('',(#112),#113,.T.);
#52=PRESENTATION_STYLE_ASSIGNMENT((#114));
#53=ADVANCED_FACE('',(#115),#116,.T.);
#54=PRESENTATION_STYLE_ASSIGNMENT((#117));
#55=ADVANCED_FACE('',(#118),#119,.T.);
#56=PRESENTATION_STYLE_ASSIGNMENT((#120));
#57=ADVANCED_FACE('',(#121),#122,.T.);
#58=PRESENTATION_STYLE_ASSIGNMENT((#123));
#59=ADVANCED_FACE('',(#124),#125,.T.);
#60=PRESENTATION_STYLE_ASSIGNMENT((#126));
#61=ADVANCED_FACE('',(#127),#128,.T.);
#62=PRESENTATION_STYLE_ASSIGNMENT((#129));
#63=ADVANCED_FACE('',(#130),#131,.T.);
#64=PRESENTATION_STYLE_ASSIGNMENT((#132));
#65=ADVANCED_FACE('',(#133),#134,.T.);
#66=PRESENTATION_STYLE_ASSIGNMENT((#135));
#67=ADVANCED_FACE('',(#136),#137,.T.);
#68=PRESENTATION_STYLE_ASSIGNMENT((#138));
#69=ADVANCED_FACE('',(#139),#140,.T.);
#70=PRESENTATION_STYLE_ASSIGNMENT((#141));
#71=ADVANCED_FACE('',(#142),#143,.T.);
#72=PRESENTATION_STYLE_ASSIGNMENT((#144));
#73=ADVANCED_FACE('',(#145),#146,.T.);
#74=PRESENTATION_STYLE_ASSIGNMENT((#147));
#75=ADVANCED_FACE('',(#148),#149,.T.);
#76=PRESENTATION_STYLE_ASSIGNMENT((#150));
#77=ADVANCED_FACE('',(#151),#152,.T.);
#78=PRESENTATION_STYLE_ASSIGNMENT((#153));
#79=ADVANCED_FACE('',(#154),#155,.T.);
#80=PRESENTATION_STYLE_ASSIGNMENT((#156));
#81=ADVANCED_FACE('',(#157),#158,.T.);
#82=PRESENTATION_STYLE_ASSIGNMENT((#159));
#83=ADVANCED_FACE('',(#160),#161,.F.);
#84=PRESENTATION_STYLE_ASSIGNMENT((#162));
#85=MANIFOLD_SOLID_BREP('1051003_ZB_6_UNBEDRUCKT-select|1#1051003_ZB_6_UNBEDRUCKT-select;1051003_ZB_6_UNBEDRUCKT-select',#163);
#86=PRODUCT('1051003_ZB_6_UNBEDRUCKT-select|1#1051003_ZB_6_UNBEDRUCKT-select;1051003_ZB_6_UNBEDRUCKT-select','','PART--DESC',(#164));
#87=PRODUCT_DEFINITION('','NONE',#165,#2);
#88=AXIS2_PLACEMENT_3D('',#166,#167,#168);
#91=LENGTH_MEASURE_WITH_UNIT(LENGTH_MEASURE(1.0),#169);
#94=DIMENSIONAL_EXPONENTS(1.0,0.0,0.0,0.0,0.0,0.0,0.0);
#96=DIMENSIONAL_EXPONENTS(0.0,0.0,0.0,0.0,0.0,0.0,0.0);
#102=SURFACE_STYLE_USAGE(.BOTH.,#170);
#103=FACE_OUTER_BOUND('',#171,.T.);
#104=CYLINDRICAL_SURFACE('',#172,0.5);
#105=SURFACE_STYLE_USAGE(.BOTH.,#173);
#106=FACE_OUTER_BOUND('',#174,.T.);
#107=CYLINDRICAL_SURFACE('',#175,0.5);
#108=SURFACE_STYLE_USAGE(.BOTH.,#176);
#109=FACE_OUTER_BOUND('',#177,.T.);
#110=PLANE('',#178);
#111=SURFACE_STYLE_USAGE(.BOTH.,#179);
#112=FACE_OUTER_BOUND('',#180,.T.);
#113=PLANE('',#181);
#114=SURFACE_STYLE_USAGE(.BOTH.,#182);
#115=FACE_OUTER_BOUND('',#183,.T.);
#116=PLANE('',#184);
#117=SURFACE_STYLE_USAGE(.BOTH.,#185);
#118=FACE_OUTER_BOUND('',#186,.T.);
#119=PLANE('',#187);
#120=SURFACE_STYLE_USAGE(.BOTH.,#188);
#121=FACE_OUTER_BOUND('',#189,.T.);
#122=CYLINDRICAL_SURFACE('',#190,0.5);
#123=SURFACE_STYLE_USAGE(.BOTH.,#191);
#124=FACE_OUTER_BOUND('',#192,.T.);
#125=PLANE('',#193);
#126=SURFACE_STYLE_USAGE(.BOTH.,#194);
#127=FACE_OUTER_BOUND('',#195,.T.);
#128=PLANE('',#196);
#129=SURFACE_STYLE_USAGE(.BOTH.,#197);
#130=FACE_OUTER_BOUND('',#198,.T.);
#131=PLANE('',#199);
#132=SURFACE_STYLE_USAGE(.BOTH.,#200);
#133=FACE_OUTER_BOUND('',#201,.T.);
#134=PLANE('',#202);
#135=SURFACE_STYLE_USAGE(.BOTH.,#203);
#136=FACE_OUTER_BOUND('',#204,.T.);
#137=PLANE('',#205);
#138=SURFACE_STYLE_USAGE(.BOTH.,#206);
#139=FACE_OUTER_BOUND('',#207,.T.);
#140=PLANE('',#208);
#141=SURFACE_STYLE_USAGE(.BOTH.,#209);
#142=FACE_OUTER_BOUND('',#210,.T.);
#143=CYLINDRICAL_SURFACE('',#211,0.5);
#144=SURFACE_STYLE_USAGE(.BOTH.,#212);
#145=FACE_OUTER_BOUND('',#213,.T.);
#146=PLANE('',#214);
#147=SURFACE_STYLE_USAGE(.BOTH.,#215);
#148=FACE_OUTER_BOUND('',#216,.T.);
#149=PLANE('',#217);
#150=SURFACE_STYLE_USAGE(.BOTH.,#218);
#151=FACE_OUTER_BOUND('',#219,.T.);
#152=PLANE('',#220);
#153=SURFACE_STYLE_USAGE(.BOTH.,#221);
#154=FACE_OUTER_BOUND('',#222,.T.);
#155=PLANE('',#223);
#156=SURFACE_STYLE_USAGE(.BOTH.,#224);
#157=FACE_OUTER_BOUND('',#225,.T.);
#158=PLANE('',#226);
#159=SURFACE_STYLE_USAGE(.BOTH.,#227);
#160=FACE_OUTER_BOUND('',#228,.T.);
#161=PLANE('',#229);
#162=SURFACE_STYLE_USAGE(.BOTH.,#230);
#163=CLOSED_SHELL('',(#45,#47,#49,#51,#53,#55,#57,#59,#61,#63,#65,#67,#69,#71,#73,#75,#77,#79,#81,#83));
#164=PRODUCT_CONTEXT('',#31,'mechanical');
#165=PRODUCT_DEFINITION_FORMATION_WITH_SPECIFIED_SOURCE(' ','NONE',#86,.NOT_KNOWN.);
#166=CARTESIAN_POINT('',(0.0,0.0,0.0));
#167=DIRECTION('',(0.0,0.0,1.0));
#168=DIRECTION('',(1.0,0.0,0.0));
#169= (NAMED_UNIT(#94)LENGTH_UNIT()SI_UNIT(.MILLI.,.METRE.));
#170=SURFACE_SIDE_STYLE('',(#232));
#171=EDGE_LOOP('',(#233,#234,#235,#236));
#172=AXIS2_PLACEMENT_3D('',#237,#238,#239);
#173=SURFACE_SIDE_STYLE('',(#240));
#174=EDGE_LOOP('',(#241,#242,#243,#244));
#175=AXIS2_PLACEMENT_3D('',#245,#246,#247);
#176=SURFACE_SIDE_STYLE('',(#248));
#177=EDGE_LOOP('',(#249,#250,#251,#252));
#178=AXIS2_PLACEMENT_3D('',#253,#254,#255);
#179=SURFACE_SIDE_STYLE('',(#256));
#180=EDGE_LOOP('',(#257,#258,#259,#260));
#181=AXIS2_PLACEMENT_3D('',#261,#262,#263);
#182=SURFACE_SIDE_STYLE('',(#264));
#183=EDGE_LOOP('',(#265,#266,#267,#268));
#184=AXIS2_PLACEMENT_3D('',#269,#270,#271);
#185=SURFACE_SIDE_STYLE('',(#272));
#186=EDGE_LOOP('',(#273,#274,#275,#276));
#187=AXIS2_PLACEMENT_3D('',#277,#278,#279);
#188=SURFACE_SIDE_STYLE('',(#280));
#189=EDGE_LOOP('',(#281,#282,#283,#284));
#190=AXIS2_PLACEMENT_3D('',#285,#286,#287);
#191=SURFACE_SIDE_STYLE('',(#288));
#192=EDGE_LOOP('',(#289,#290,#291,#292));
#193=AXIS2_PLACEMENT_3D('',#293,#294,#295);
#194=SURFACE_SIDE_STYLE('',(#296));
#195=EDGE_LOOP('',(#297,#298,#299,#300));
#196=AXIS2_PLACEMENT_3D('',#301,#302,#303);
#197=SURFACE_SIDE_STYLE('',(#304));
#198=EDGE_LOOP('',(#305,#306,#307,#308));
#199=AXIS2_PLACEMENT_3D('',#309,#310,#311);
#200=SURFACE_SIDE_STYLE('',(#312));
#201=EDGE_LOOP('',(#313,#314,#315,#316));
#202=AXIS2_PLACEMENT_3D('',#317,#318,#319);
#203=SURFACE_SIDE_STYLE('',(#320));
#204=EDGE_LOOP('',(#321,#322,#323,#324));
#205=AXIS2_PLACEMENT_3D('',#325,#326,#327);
#206=SURFACE_SIDE_STYLE('',(#328));
#207=EDGE_LOOP('',(#329,#330,#331,#332));
#208=AXIS2_PLACEMENT_3D('',#333,#334,#335);
#209=SURFACE_SIDE_STYLE('',(#336));
#210=EDGE_LOOP('',(#337,#338,#339,#340));
#211=AXIS2_PLACEMENT_3D('',#341,#342,#343);
#212=SURFACE_SIDE_STYLE('',(#344));
#213=EDGE_LOOP('',(#345,#346,#347,#348));
#214=AXIS2_PLACEMENT_3D('',#349,#350,#351);
#215=SURFACE_SIDE_STYLE('',(#352));
#216=EDGE_LOOP('',(#353,#354,#355,#356));
#217=AXIS2_PLACEMENT_3D('',#357,#358,#359);
#218=SURFACE_SIDE_STYLE('',(#360));
#219=EDGE_LOOP('',(#361,#362,#363,#364));
#220=AXIS2_PLACEMENT_3D('',#365,#366,#367);
#221=SURFACE_SIDE_STYLE('',(#368));
#222=EDGE_LOOP('',(#369,#370,#371,#372,#373,#374,#375,#376,#377,#378,#379,#380,#381,#382,#383,#384,#385,#386));
#223=AXIS2_PLACEMENT_3D('',#387,#388,#389);
#224=SURFACE_SIDE_STYLE('',(#390));
#225=EDGE_LOOP('',(#391,#392,#393,#394));
#226=AXIS2_PLACEMENT_3D('',#395,#396,#397);
#227=SURFACE_SIDE_STYLE('',(#398));
#228=EDGE_LOOP('',(#399,#400,#401,#402,#403,#404,#405,#406,#407,#408,#409,#410,#411,#412,#413,#414,#415,#416));
#229=AXIS2_PLACEMENT_3D('',#417,#418,#419);
#230=SURFACE_SIDE_STYLE('',(#420));
#232=SURFACE_STYLE_FILL_AREA(#421);
#233=ORIENTED_EDGE('',*,*,#422,.F.);
#234=ORIENTED_EDGE('',*,*,#423,.F.);
#235=ORIENTED_EDGE('',*,*,#424,.F.);
#236=ORIENTED_EDGE('',*,*,#425,.T.);
#237=CARTESIAN_POINT('',(6.6,8.07499999999982,0.5));
#238=DIRECTION('',(1.0,0.0,0.0));
#239=DIRECTION('',(0.0,-1.0,0.0));
#240=SURFACE_STYLE_FILL_AREA(#426);
#241=ORIENTED_EDGE('',*,*,#427,.F.);
#242=ORIENTED_EDGE('',*,*,#428,.T.);
#243=ORIENTED_EDGE('',*,*,#429,.T.);
#244=ORIENTED_EDGE('',*,*,#430,.F.);
#245=CARTESIAN_POINT('',(6.6,2.42499999999995,0.5));
#246=DIRECTION('',(1.0,0.0,0.0));
#247=DIRECTION('',(0.0,-1.0,0.0));
#248=SURFACE_STYLE_FILL_AREA(#431);
#249=ORIENTED_EDGE('',*,*,#432,.T.);
#250=ORIENTED_EDGE('',*,*,#433,.T.);
#251=ORIENTED_EDGE('',*,*,#434,.T.);
#252=ORIENTED_EDGE('',*,*,#435,.F.);
#253=CARTESIAN_POINT('',(1.11022302462516E-15,10.5,4.19999999999999));
#254=DIRECTION('',(0.0,1.0,0.0));
#255=DIRECTION('',(0.0,0.0,1.0));
#256=SURFACE_STYLE_FILL_AREA(#436);
#257=ORIENTED_EDGE('',*,*,#433,.F.);
#258=ORIENTED_EDGE('',*,*,#437,.F.);
#259=ORIENTED_EDGE('',*,*,#438,.T.);
#260=ORIENTED_EDGE('',*,*,#439,.T.);
#261=CARTESIAN_POINT('',(1.11022302462516E-15,0.0,4.19999999999999));
#262=DIRECTION('',(0.0,-0.0,1.0));
#263=DIRECTION('',(0.0,1.0,0.0));
#264=SURFACE_STYLE_FILL_AREA(#440);
#265=ORIENTED_EDGE('',*,*,#441,.F.);
#266=ORIENTED_EDGE('',*,*,#435,.T.);
#267=ORIENTED_EDGE('',*,*,#442,.T.);
#268=ORIENTED_EDGE('',*,*,#443,.F.);
#269=CARTESIAN_POINT('',(1.11022302462516E-15,7.44999999999982,3.09999999999997));
#270=DIRECTION('',(0.0,0.0,-1.0));
#271=DIRECTION('',(-1.0,0.0,0.0));
#272=SURFACE_STYLE_FILL_AREA(#444);
#273=ORIENTED_EDGE('',*,*,#445,.T.);
#274=ORIENTED_EDGE('',*,*,#446,.F.);
#275=ORIENTED_EDGE('',*,*,#447,.T.);
#276=ORIENTED_EDGE('',*,*,#448,.T.);
#277=CARTESIAN_POINT('',(6.6,3.24318516526,2.84823619098097));
#278=DIRECTION('',(0.0,-0.965925826288382,0.258819045105081));
#279=DIRECTION('',(1.0,0.0,0.0));
#280=SURFACE_STYLE_FILL_AREA(#449);
#281=ORIENTED_EDGE('',*,*,#427,.T.);
#282=ORIENTED_EDGE('',*,*,#450,.F.);
#283=ORIENTED_EDGE('',*,*,#451,.F.);
#284=ORIENTED_EDGE('',*,*,#452,.T.);
#285=CARTESIAN_POINT('',(6.6,2.42499999999995,0.5));
#286=DIRECTION('',(1.0,0.0,0.0));
#287=DIRECTION('',(0.0,-1.0,0.0));
#288=SURFACE_STYLE_FILL_AREA(#453);
#289=ORIENTED_EDGE('',*,*,#454,.T.);
#290=ORIENTED_EDGE('',*,*,#438,.F.);
#291=ORIENTED_EDGE('',*,*,#455,.T.);
#292=ORIENTED_EDGE('',*,*,#456,.T.);
#293=CARTESIAN_POINT('',(6.6,0.0,4.0));
#294=DIRECTION('',(0.0,-1.0,0.0));
#295=DIRECTION('',(1.0,0.0,0.0));
#296=SURFACE_STYLE_FILL_AREA(#457);
#297=ORIENTED_EDGE('',*,*,#458,.F.);
#298=ORIENTED_EDGE('',*,*,#459,.F.);
#299=ORIENTED_EDGE('',*,*,#460,.T.);
#300=ORIENTED_EDGE('',*,*,#461,.T.);
#301=CARTESIAN_POINT('',(6.6,3.32385520729986,0.444708572937998));
#302=DIRECTION('',(0.0,0.965925826288677,-0.258819045103983));
#303=DIRECTION('',(-1.0,0.0,0.0));
#304=SURFACE_STYLE_FILL_AREA(#462);
#305=ORIENTED_EDGE('',*,*,#463,.T.);
#306=ORIENTED_EDGE('',*,*,#424,.T.);
#307=ORIENTED_EDGE('',*,*,#464,.T.);
#308=ORIENTED_EDGE('',*,*,#465,.T.);
#309=CARTESIAN_POINT('',(6.6,8.07499999999982,1.0));
#310=DIRECTION('',(0.0,-0.0,1.0));
#311=DIRECTION('',(0.0,1.0,0.0));
#312=SURFACE_STYLE_FILL_AREA(#466);
#313=ORIENTED_EDGE('',*,*,#467,.T.);
#314=ORIENTED_EDGE('',*,*,#451,.T.);
#315=ORIENTED_EDGE('',*,*,#468,.F.);
#316=ORIENTED_EDGE('',*,*,#458,.T.);
#317=CARTESIAN_POINT('',(6.6,2.42499999999995,0.0));
#318=DIRECTION('',(0.0,0.0,-1.0));
#319=DIRECTION('',(-1.0,0.0,0.0));
#320=SURFACE_STYLE_FILL_AREA(#469);
#321=ORIENTED_EDGE('',*,*,#460,.F.);
#322=ORIENTED_EDGE('',*,*,#470,.F.);
#323=ORIENTED_EDGE('',*,*,#471,.T.);
#324=ORIENTED_EDGE('',*,*,#472,.T.);
#325=CARTESIAN_POINT('',(6.6,4.18880379844995,3.09999999999997));
#326=DIRECTION('',(0.0,0.0,-1.0));
#327=DIRECTION('',(-1.0,0.0,0.0));
#328=SURFACE_STYLE_FILL_AREA(#473);
#329=ORIENTED_EDGE('',*,*,#474,.T.);
#330=ORIENTED_EDGE('',*,*,#471,.F.);
#331=ORIENTED_EDGE('',*,*,#475,.F.);
#332=ORIENTED_EDGE('',*,*,#476,.T.);
#333=CARTESIAN_POINT('',(6.6,6.50438136680987,2.95176380902097));
#334=DIRECTION('',(0.0,-0.965925826288803,-0.258819045103513));
#335=DIRECTION('',(0.0,-0.258819045103513,0.965925826288803));
#336=SURFACE_STYLE_FILL_AREA(#477);
#337=ORIENTED_EDGE('',*,*,#422,.T.);
#338=ORIENTED_EDGE('',*,*,#478,.T.);
#339=ORIENTED_EDGE('',*,*,#479,.T.);
#340=ORIENTED_EDGE('',*,*,#480,.F.);
#341=CARTESIAN_POINT('',(6.6,8.07499999999982,0.5));
#342=DIRECTION('',(1.0,0.0,0.0));
#343=DIRECTION('',(0.0,-1.0,0.0));
#344=SURFACE_STYLE_FILL_AREA(#481);
#345=ORIENTED_EDGE('',*,*,#476,.F.);
#346=ORIENTED_EDGE('',*,*,#482,.F.);
#347=ORIENTED_EDGE('',*,*,#479,.F.);
#348=ORIENTED_EDGE('',*,*,#483,.T.);
#349=CARTESIAN_POINT('',(6.6,7.75570028846982,0.0));
#350=DIRECTION('',(0.0,0.0,-1.0));
#351=DIRECTION('',(-1.0,0.0,0.0));
#352=SURFACE_STYLE_FILL_AREA(#484);
#353=ORIENTED_EDGE('',*,*,#448,.F.);
#354=ORIENTED_EDGE('',*,*,#485,.T.);
#355=ORIENTED_EDGE('',*,*,#429,.F.);
#356=ORIENTED_EDGE('',*,*,#486,.T.);
#357=CARTESIAN_POINT('',(6.6,2.51775367406981,1.0));
#358=DIRECTION('',(0.0,-0.0,1.0));
#359=DIRECTION('',(0.0,1.0,0.0));
#360=SURFACE_STYLE_FILL_AREA(#487);
#361=ORIENTED_EDGE('',*,*,#488,.T.);
#362=ORIENTED_EDGE('',*,*,#456,.F.);
#363=ORIENTED_EDGE('',*,*,#489,.F.);
#364=ORIENTED_EDGE('',*,*,#446,.T.);
#365=CARTESIAN_POINT('',(6.6,0.199999999999818,3.09999999999997));
#366=DIRECTION('',(0.0,0.0,-1.0));
#367=DIRECTION('',(-1.0,0.0,0.0));
#368=SURFACE_STYLE_FILL_AREA(#490);
#369=ORIENTED_EDGE('',*,*,#483,.F.);
#370=ORIENTED_EDGE('',*,*,#478,.F.);
#371=ORIENTED_EDGE('',*,*,#425,.F.);
#372=ORIENTED_EDGE('',*,*,#463,.F.);
#373=ORIENTED_EDGE('',*,*,#491,.F.);
#374=ORIENTED_EDGE('',*,*,#442,.F.);
#375=ORIENTED_EDGE('',*,*,#434,.F.);
#376=ORIENTED_EDGE('',*,*,#439,.F.);
#377=ORIENTED_EDGE('',*,*,#454,.F.);
#378=ORIENTED_EDGE('',*,*,#488,.F.);
#379=ORIENTED_EDGE('',*,*,#445,.F.);
#380=ORIENTED_EDGE('',*,*,#486,.F.);
#381=ORIENTED_EDGE('',*,*,#428,.F.);
#382=ORIENTED_EDGE('',*,*,#452,.F.);
#383=ORIENTED_EDGE('',*,*,#467,.F.);
#384=ORIENTED_EDGE('',*,*,#461,.F.);
#385=ORIENTED_EDGE('',*,*,#472,.F.);
#386=ORIENTED_EDGE('',*,*,#474,.F.);
#387=CARTESIAN_POINT('',(6.15,1069.48475161469,-339.243741830273));
#388=DIRECTION('',(1.0,0.0,0.0));
#389=DIRECTION('',(0.0,1.0,0.0));
#390=SURFACE_STYLE_FILL_AREA(#492);
#391=ORIENTED_EDGE('',*,*,#465,.F.);
#392=ORIENTED_EDGE('',*,*,#493,.T.);
#393=ORIENTED_EDGE('',*,*,#443,.T.);
#394=ORIENTED_EDGE('',*,*,#491,.T.);
#395=CARTESIAN_POINT('',(6.6,7.69246857805001,1.22235428646997));
#396=DIRECTION('',(0.0,0.965925826288454,0.258819045104813));
#397=DIRECTION('',(-1.0,0.0,0.0));
#398=SURFACE_STYLE_FILL_AREA(#494);
#399=ORIENTED_EDGE('',*,*,#475,.T.);
#400=ORIENTED_EDGE('',*,*,#470,.T.);
#401=ORIENTED_EDGE('',*,*,#459,.T.);
#402=ORIENTED_EDGE('',*,*,#468,.T.);
#403=ORIENTED_EDGE('',*,*,#450,.T.);
#404=ORIENTED_EDGE('',*,*,#430,.T.);
#405=ORIENTED_EDGE('',*,*,#485,.F.);
#406=ORIENTED_EDGE('',*,*,#447,.F.);
#407=ORIENTED_EDGE('',*,*,#489,.T.);
#408=ORIENTED_EDGE('',*,*,#455,.F.);
#409=ORIENTED_EDGE('',*,*,#437,.T.);
#410=ORIENTED_EDGE('',*,*,#432,.F.);
#411=ORIENTED_EDGE('',*,*,#441,.T.);
#412=ORIENTED_EDGE('',*,*,#493,.F.);
#413=ORIENTED_EDGE('',*,*,#464,.F.);
#414=ORIENTED_EDGE('',*,*,#423,.T.);
#415=ORIENTED_EDGE('',*,*,#480,.T.);
#416=ORIENTED_EDGE('',*,*,#482,.T.);
#417=CARTESIAN_POINT('',(1.11022302462516E-15,1069.48475161469,-342.343741830273));
#418=DIRECTION('',(1.0,0.0,0.0));
#419=DIRECTION('',(0.0,1.0,0.0));
#420=SURFACE_STYLE_FILL_AREA(#495);
#421=FILL_AREA_STYLE('',(#496));
#422=EDGE_CURVE('',#497,#498,#499,.T.);
#423=EDGE_CURVE('',#500,#497,#501,.T.);
#424=EDGE_CURVE('',#502,#500,#503,.T.);
#425=EDGE_CURVE('',#502,#498,#504,.T.);
#426=FILL_AREA_STYLE('',(#505));
#427=EDGE_CURVE('',#506,#507,#508,.T.);
#428=EDGE_CURVE('',#506,#509,#510,.T.);
#429=EDGE_CURVE('',#509,#511,#512,.T.);
#430=EDGE_CURVE('',#507,#511,#513,.T.);
#431=FILL_AREA_STYLE('',(#514));
#432=EDGE_CURVE('',#515,#516,#517,.T.);
#433=EDGE_CURVE('',#516,#518,#519,.T.);
#434=EDGE_CURVE('',#518,#520,#521,.T.);
#435=EDGE_CURVE('',#515,#520,#522,.T.);
#436=FILL_AREA_STYLE('',(#523));
#437=EDGE_CURVE('',#524,#516,#525,.T.);
#438=EDGE_CURVE('',#524,#526,#527,.T.);
#439=EDGE_CURVE('',#526,#518,#528,.T.);
#440=FILL_AREA_STYLE('',(#529));
#441=EDGE_CURVE('',#515,#530,#531,.T.);
#442=EDGE_CURVE('',#520,#532,#533,.T.);
#443=EDGE_CURVE('',#530,#532,#534,.T.);
#444=FILL_AREA_STYLE('',(#535));
#445=EDGE_CURVE('',#536,#537,#538,.T.);
#446=EDGE_CURVE('',#539,#537,#540,.T.);
#447=EDGE_CURVE('',#539,#541,#542,.T.);
#448=EDGE_CURVE('',#541,#536,#543,.T.);
#449=FILL_AREA_STYLE('',(#544));
#450=EDGE_CURVE('',#545,#507,#546,.T.);
#451=EDGE_CURVE('',#547,#545,#548,.T.);
#452=EDGE_CURVE('',#547,#506,#549,.T.);
#453=FILL_AREA_STYLE('',(#550));
#454=EDGE_CURVE('',#551,#526,#552,.T.);
#455=EDGE_CURVE('',#524,#553,#554,.T.);
#456=EDGE_CURVE('',#553,#551,#555,.T.);
#457=FILL_AREA_STYLE('',(#556));
#458=EDGE_CURVE('',#557,#558,#559,.T.);
#459=EDGE_CURVE('',#560,#557,#561,.T.);
#460=EDGE_CURVE('',#560,#562,#563,.T.);
#461=EDGE_CURVE('',#562,#558,#564,.T.);
#462=FILL_AREA_STYLE('',(#565));
#463=EDGE_CURVE('',#566,#502,#567,.T.);
#464=EDGE_CURVE('',#500,#568,#569,.T.);
#465=EDGE_CURVE('',#568,#566,#570,.T.);
#466=FILL_AREA_STYLE('',(#571));
#467=EDGE_CURVE('',#558,#547,#572,.T.);
#468=EDGE_CURVE('',#557,#545,#573,.T.);
#469=FILL_AREA_STYLE('',(#574));
#470=EDGE_CURVE('',#575,#560,#576,.T.);
#471=EDGE_CURVE('',#575,#577,#578,.T.);
#472=EDGE_CURVE('',#577,#562,#579,.T.);
#473=FILL_AREA_STYLE('',(#580));
#474=EDGE_CURVE('',#581,#577,#582,.T.);
#475=EDGE_CURVE('',#583,#575,#584,.T.);
#476=EDGE_CURVE('',#583,#581,#585,.T.);
#477=FILL_AREA_STYLE('',(#586));
#478=EDGE_CURVE('',#498,#587,#588,.T.);
#479=EDGE_CURVE('',#587,#589,#590,.T.);
#480=EDGE_CURVE('',#497,#589,#591,.T.);
#481=FILL_AREA_STYLE('',(#592));
#482=EDGE_CURVE('',#589,#583,#593,.T.);
#483=EDGE_CURVE('',#587,#581,#594,.T.);
#484=FILL_AREA_STYLE('',(#595));
#485=EDGE_CURVE('',#541,#511,#596,.T.);
#486=EDGE_CURVE('',#509,#536,#597,.T.);
#487=FILL_AREA_STYLE('',(#598));
#488=EDGE_CURVE('',#537,#551,#599,.T.);
#489=EDGE_CURVE('',#539,#553,#600,.T.);
#490=FILL_AREA_STYLE('',(#601));
#491=EDGE_CURVE('',#532,#566,#602,.T.);
#492=FILL_AREA_STYLE('',(#603));
#493=EDGE_CURVE('',#568,#530,#604,.T.);
#494=FILL_AREA_STYLE('',(#605));
#495=FILL_AREA_STYLE('',(#606));
#496=FILL_AREA_STYLE_COLOUR('',#607);
#497=VERTEX_POINT('',#608);
#498=VERTEX_POINT('',#609);
#499=LINE('',#610,#611);
#500=VERTEX_POINT('',#612);
#501=CIRCLE('',#613,0.5);
#502=VERTEX_POINT('',#614);
#503=LINE('',#615,#616);
#504=CIRCLE('',#617,0.5);
#505=FILL_AREA_STYLE_COLOUR('',#618);
#506=VERTEX_POINT('',#619);
#507=VERTEX_POINT('',#620);
#508=LINE('',#621,#622);
#509=VERTEX_POINT('',#623);
#510=CIRCLE('',#624,0.5);
#511=VERTEX_POINT('',#625);
#512=LINE('',#626,#627);
#513=CIRCLE('',#628,0.500000000000199);
#514=FILL_AREA_STYLE_COLOUR('',#629);
#515=VERTEX_POINT('',#630);
#516=VERTEX_POINT('',#631);
#517=LINE('',#632,#633);
#518=VERTEX_POINT('',#634);
#519=LINE('',#635,#636);
#520=VERTEX_POINT('',#637);
#521=LINE('',#638,#639);
#522=LINE('',#640,#641);
#523=FILL_AREA_STYLE_COLOUR('',#642);
#524=VERTEX_POINT('',#643);
#525=LINE('',#644,#645);
#526=VERTEX_POINT('',#646);
#527=LINE('',#647,#648);
#528=LINE('',#649,#650);
#529=FILL_AREA_STYLE_COLOUR('',#651);
#530=VERTEX_POINT('',#652);
#531=LINE('',#653,#654);
#532=VERTEX_POINT('',#655);
#533=LINE('',#656,#657);
#534=LINE('',#658,#659);
#535=FILL_AREA_STYLE_COLOUR('',#660);
#536=VERTEX_POINT('',#661);
#537=VERTEX_POINT('',#662);
#538=LINE('',#663,#664);
#539=VERTEX_POINT('',#665);
#540=LINE('',#666,#667);
#541=VERTEX_POINT('',#668);
#542=LINE('',#669,#670);
#543=LINE('',#671,#672);
#544=FILL_AREA_STYLE_COLOUR('',#673);
#545=VERTEX_POINT('',#674);
#546=CIRCLE('',#675,0.500000000000199);
#547=VERTEX_POINT('',#676);
#548=LINE('',#677,#678);
#549=CIRCLE('',#679,0.5);
#550=FILL_AREA_STYLE_COLOUR('',#680);
#551=VERTEX_POINT('',#681);
#552=LINE('',#682,#683);
#553=VERTEX_POINT('',#684);
#554=LINE('',#685,#686);
#555=LINE('',#687,#688);
#556=FILL_AREA_STYLE_COLOUR('',#689);
#557=VERTEX_POINT('',#690);
#558=VERTEX_POINT('',#691);
#559=LINE('',#692,#693);
#560=VERTEX_POINT('',#694);
#561=LINE('',#695,#696);
#562=VERTEX_POINT('',#697);
#563=LINE('',#698,#699);
#564=LINE('',#700,#701);
#565=FILL_AREA_STYLE_COLOUR('',#702);
#566=VERTEX_POINT('',#703);
#567=LINE('',#704,#705);
#568=VERTEX_POINT('',#706);
#569=LINE('',#707,#708);
#570=LINE('',#709,#710);
#571=FILL_AREA_STYLE_COLOUR('',#711);
#572=LINE('',#712,#713);
#573=LINE('',#714,#715);
#574=FILL_AREA_STYLE_COLOUR('',#716);
#575=VERTEX_POINT('',#717);
#576=LINE('',#718,#719);
#577=VERTEX_POINT('',#720);
#578=LINE('',#721,#722);
#579=LINE('',#723,#724);
#580=FILL_AREA_STYLE_COLOUR('',#725);
#581=VERTEX_POINT('',#726);
#582=LINE('',#727,#728);
#583=VERTEX_POINT('',#729);
#584=LINE('',#730,#731);
#585=LINE('',#732,#733);
#586=FILL_AREA_STYLE_COLOUR('',#734);
#587=VERTEX_POINT('',#735);
#588=CIRCLE('',#736,0.5);
#589=VERTEX_POINT('',#737);
#590=LINE('',#738,#739);
#591=CIRCLE('',#740,0.5);
#592=FILL_AREA_STYLE_COLOUR('',#741);
#593=LINE('',#742,#743);
#594=LINE('',#744,#745);
#595=FILL_AREA_STYLE_COLOUR('',#746);
#596=LINE('',#747,#748);
#597=LINE('',#749,#750);
#598=FILL_AREA_STYLE_COLOUR('',#751);
#599=LINE('',#752,#753);
#600=LINE('',#754,#755);
#601=FILL_AREA_STYLE_COLOUR('',#756);
#602=LINE('',#757,#758);
#603=FILL_AREA_STYLE_COLOUR('',#759);
#604=LINE('',#760,#761);
#605=FILL_AREA_STYLE_COLOUR('',#762);
#606=FILL_AREA_STYLE_COLOUR('',#763);
#607=COLOUR_RGB('',0.980392217636108,1.0,1.0);
#608=CARTESIAN_POINT('',(1.33226762955019E-15,8.57499999999982,0.5));
#609=CARTESIAN_POINT('',(6.15,8.57499999999982,0.5));
#610=CARTESIAN_POINT('',(3.075,8.57499999999982,0.5));
#611=VECTOR('',#764,1.0);
#612=CARTESIAN_POINT('',(1.11022302462516E-15,8.07499999999982,1.0));
#613=AXIS2_PLACEMENT_3D('',#765,#766,#767);
#614=CARTESIAN_POINT('',(6.15,8.07499999999982,1.0));
#615=CARTESIAN_POINT('',(6.6,8.07499999999982,1.0));
#616=VECTOR('',#768,1.0);
#617=AXIS2_PLACEMENT_3D('',#769,#770,#771);
#618=COLOUR_RGB('',0.980392217636108,1.0,1.0);
#619=CARTESIAN_POINT('',(6.15,1.92499999999995,0.5));
#620=CARTESIAN_POINT('',(1.33226762955019E-15,1.92499999999976,0.5));
#621=CARTESIAN_POINT('',(3.075,1.92499999999995,0.5));
#622=VECTOR('',#772,1.0);
#623=CARTESIAN_POINT('',(6.15,2.42499999999995,1.0));
#624=AXIS2_PLACEMENT_3D('',#773,#774,#775);
#625=CARTESIAN_POINT('',(1.11022302462516E-15,2.42499999999995,1.0));
#626=CARTESIAN_POINT('',(6.6,2.42499999999995,1.0));
#627=VECTOR('',#776,1.0);
#628=AXIS2_PLACEMENT_3D('',#777,#778,#779);
#629=COLOUR_RGB('',0.980392217636108,1.0,1.0);
#630=CARTESIAN_POINT('',(1.11022302462516E-15,10.5,3.09999999999997));
#631=CARTESIAN_POINT('',(1.11022302462516E-15,10.5,4.19999999999999));
#632=CARTESIAN_POINT('',(1.11022302462516E-15,10.5,-342.343741830273));
#633=VECTOR('',#780,1.0);
#634=CARTESIAN_POINT('',(6.15,10.5,4.19999999999999));
#635=CARTESIAN_POINT('',(6.6,10.5,4.19999999999999));
#636=VECTOR('',#781,1.0);
#637=CARTESIAN_POINT('',(6.15,10.5,3.09999999999997));
#638=CARTESIAN_POINT('',(6.15,10.5,123.36934601221));
#639=VECTOR('',#782,1.0);
#640=CARTESIAN_POINT('',(6.6,10.5,3.09999999999997));
#641=VECTOR('',#783,1.0);
#642=COLOUR_RGB('',0.980392217636108,1.0,1.0);
#643=CARTESIAN_POINT('',(1.11022302462516E-15,0.0,4.19999999999999));
#644=CARTESIAN_POINT('',(1.11022302462516E-15,-174.65430648998,4.19999999999999));
#645=VECTOR('',#784,1.0);
#646=CARTESIAN_POINT('',(6.15,0.0,4.19999999999999));
#647=CARTESIAN_POINT('',(6.6,0.0,4.19999999999999));
#648=VECTOR('',#785,1.0);
#649=CARTESIAN_POINT('',(6.15,-174.65430648998,4.19999999999999));
#650=VECTOR('',#786,1.0);
#651=COLOUR_RGB('',0.980392217636108,1.0,1.0);
#652=CARTESIAN_POINT('',(1.11022302462516E-15,7.18935492542983,3.09999999999997));
#653=CARTESIAN_POINT('',(1.11022302462516E-15,-174.65430648998,3.09999999999997));
#654=VECTOR('',#787,1.0);
#655=CARTESIAN_POINT('',(6.15,7.18935492542983,3.09999999999997));
#656=CARTESIAN_POINT('',(6.15,-174.65430648998,3.09999999999997));
#657=VECTOR('',#788,1.0);
#658=CARTESIAN_POINT('',(6.6,7.18935492542983,3.09999999999997));
#659=VECTOR('',#789,1.0);
#660=COLOUR_RGB('',0.980392217636108,1.0,1.0);
#661=CARTESIAN_POINT('',(6.15,2.74795177045985,1.0));
#662=CARTESIAN_POINT('',(6.15,3.31064507456995,3.09999999999997));
#663=CARTESIAN_POINT('',(6.15,-89.2507265802201,-342.343741830273));
#664=VECTOR('',#790,1.0);
#665=CARTESIAN_POINT('',(1.11022302462516E-15,3.31064507456995,3.09999999999997));
#666=CARTESIAN_POINT('',(6.6,3.31064507456995,3.09999999999997));
#667=VECTOR('',#791,1.0);
#668=CARTESIAN_POINT('',(1.11022302462516E-15,2.74795177045985,1.0));
#669=CARTESIAN_POINT('',(1.11022302462516E-15,-89.2507265802201,-342.343741830273));
#670=VECTOR('',#792,1.0);
#671=CARTESIAN_POINT('',(1.11022302462516E-15,2.74795177045985,1.0));
#672=VECTOR('',#793,1.0);
#673=COLOUR_RGB('',0.980392217636108,1.0,1.0);
#674=CARTESIAN_POINT('',(1.11022302462516E-15,2.42499999999995,0.0));
#675=AXIS2_PLACEMENT_3D('',#794,#795,#796);
#676=CARTESIAN_POINT('',(6.15,2.42499999999995,0.0));
#677=CARTESIAN_POINT('',(6.6,2.42499999999995,0.0));
#678=VECTOR('',#797,1.0);
#679=AXIS2_PLACEMENT_3D('',#798,#799,#800);
#680=COLOUR_RGB('',0.980392217636108,1.0,1.0);
#681=CARTESIAN_POINT('',(6.15,0.0,3.09999999999997));
#682=CARTESIAN_POINT('',(6.15,0.0,123.36934601221));
#683=VECTOR('',#801,1.0);
#684=CARTESIAN_POINT('',(1.11022302462516E-15,0.0,3.09999999999997));
#685=CARTESIAN_POINT('',(1.11022302462516E-15,0.0,123.36934601221));
#686=VECTOR('',#802,1.0);
#687=CARTESIAN_POINT('',(6.6,0.0,3.09999999999997));
#688=VECTOR('',#803,1.0);
#689=COLOUR_RGB('',0.980392217636108,1.0,1.0);
#690=CARTESIAN_POINT('',(1.11022302462516E-15,3.20469590431981,0.0));
#691=CARTESIAN_POINT('',(6.15,3.20469590431981,0.0));
#692=CARTESIAN_POINT('',(1.11022302462516E-15,3.20469590431981,0.0));
#693=VECTOR('',#804,1.0);
#694=CARTESIAN_POINT('',(1.11022302462516E-15,4.03533840085993,3.09999999999997));
#695=CARTESIAN_POINT('',(1.11022302462516E-15,-88.5260332535101,-342.343741830273));
#696=VECTOR('',#805,1.0);
#697=CARTESIAN_POINT('',(6.15,4.03533840085993,3.09999999999997));
#698=CARTESIAN_POINT('',(6.6,4.03533840085993,3.09999999999997));
#699=VECTOR('',#806,1.0);
#700=CARTESIAN_POINT('',(6.15,-88.5260332535101,-342.343741830273));
#701=VECTOR('',#807,1.0);
#702=COLOUR_RGB('',0.980392217636108,1.0,1.0);
#703=CARTESIAN_POINT('',(6.15,7.75204822953992,1.0));
#704=CARTESIAN_POINT('',(6.15,1069.48475161469,1.0));
#705=VECTOR('',#808,1.0);
#706=CARTESIAN_POINT('',(1.11022302462516E-15,7.75204822953992,1.0));
#707=CARTESIAN_POINT('',(1.11022302462516E-15,1069.48475161469,1.0));
#708=VECTOR('',#809,1.0);
#709=CARTESIAN_POINT('',(1.11022302462516E-15,7.75204822953992,1.0));
#710=VECTOR('',#810,1.0);
#711=COLOUR_RGB('',0.980392217636108,1.0,1.0);
#712=CARTESIAN_POINT('',(6.15,1069.48475161469,0.0));
#713=VECTOR('',#811,1.0);
#714=CARTESIAN_POINT('',(1.11022302462516E-15,1069.48475161469,0.0));
#715=VECTOR('',#812,1.0);
#716=COLOUR_RGB('',0.980392217636108,1.0,1.0);
#717=CARTESIAN_POINT('',(1.11022302462516E-15,6.46466159914985,3.09999999999997));
#718=CARTESIAN_POINT('',(1.11022302462516E-15,-174.65430648998,3.09999999999997));
#719=VECTOR('',#813,1.0);
#720=CARTESIAN_POINT('',(6.15,6.46466159914985,3.09999999999997));
#721=CARTESIAN_POINT('',(6.6,6.46466159914985,3.09999999999997));
#722=VECTOR('',#814,1.0);
#723=CARTESIAN_POINT('',(6.15,-174.65430648998,3.09999999999997));
#724=VECTOR('',#815,1.0);
#725=COLOUR_RGB('',0.980392217636108,1.0,1.0);
#726=CARTESIAN_POINT('',(6.15,7.29530409568997,0.0));
#727=CARTESIAN_POINT('',(6.15,99.0260332533329,-342.343741830273));
#728=VECTOR('',#816,1.0);
#729=CARTESIAN_POINT('',(1.11022302462516E-15,7.29530409568997,0.0));
#730=CARTESIAN_POINT('',(1.11022302462516E-15,99.0260332533329,-342.343741830273));
#731=VECTOR('',#817,1.0);
#732=CARTESIAN_POINT('',(1.11022302462516E-15,7.29530409568997,0.0));
#733=VECTOR('',#818,1.0);
#734=COLOUR_RGB('',0.980392217636108,1.0,1.0);
#735=CARTESIAN_POINT('',(6.15,8.07499999999982,0.0));
#736=AXIS2_PLACEMENT_3D('',#819,#820,#821);
#737=CARTESIAN_POINT('',(1.11022302462516E-15,8.07499999999982,0.0));
#738=CARTESIAN_POINT('',(6.6,8.07499999999982,0.0));
#739=VECTOR('',#822,1.0);
#740=AXIS2_PLACEMENT_3D('',#823,#824,#825);
#741=COLOUR_RGB('',0.980392217636108,1.0,1.0);
#742=CARTESIAN_POINT('',(1.11022302462516E-15,1069.48475161469,0.0));
#743=VECTOR('',#826,1.0);
#744=CARTESIAN_POINT('',(6.15,1069.48475161469,0.0));
#745=VECTOR('',#827,1.0);
#746=COLOUR_RGB('',0.980392217636108,1.0,1.0);
#747=CARTESIAN_POINT('',(1.11022302462516E-15,1069.48475161469,1.0));
#748=VECTOR('',#828,1.0);
#749=CARTESIAN_POINT('',(6.15,1069.48475161469,1.0));
#750=VECTOR('',#829,1.0);
#751=COLOUR_RGB('',0.980392217636108,1.0,1.0);
#752=CARTESIAN_POINT('',(6.15,-174.65430648998,3.09999999999997));
#753=VECTOR('',#830,1.0);
#754=CARTESIAN_POINT('',(1.11022302462516E-15,-174.65430648998,3.09999999999997));
#755=VECTOR('',#831,1.0);
#756=COLOUR_RGB('',0.980392217636108,1.0,1.0);
#757=CARTESIAN_POINT('',(6.15,99.7507265801179,-342.343741830273));
#758=VECTOR('',#832,1.0);
#759=COLOUR_RGB('',0.980392217636108,1.0,1.0);
#760=CARTESIAN_POINT('',(1.11022302462516E-15,99.7507265801179,-342.343741830273));
#761=VECTOR('',#833,1.0);
#762=COLOUR_RGB('',0.980392217636108,1.0,1.0);
#763=COLOUR_RGB('',0.980392217636108,1.0,1.0);
#764=DIRECTION('',(1.0,0.0,0.0));
#765=CARTESIAN_POINT('',(1.11022302462516E-15,8.07499999999982,0.5));
#766=DIRECTION('',(-1.0,0.0,0.0));
#767=DIRECTION('',(0.0,-1.0,0.0));
#768=DIRECTION('',(-1.0,0.0,0.0));
#769=CARTESIAN_POINT('',(6.15,8.07499999999982,0.5));
#770=DIRECTION('',(-1.0,0.0,0.0));
#771=DIRECTION('',(0.0,-1.0,0.0));
#772=DIRECTION('',(-1.0,-0.0,-0.0));
#773=CARTESIAN_POINT('',(6.15,2.42499999999995,0.5));
#774=DIRECTION('',(-1.0,0.0,0.0));
#775=DIRECTION('',(0.0,-1.0,0.0));
#776=DIRECTION('',(-1.0,0.0,0.0));
#777=CARTESIAN_POINT('',(1.11022302462516E-15,2.42499999999995,0.5));
#778=DIRECTION('',(-1.0,0.0,0.0));
#779=DIRECTION('',(0.0,-1.0,0.0));
#780=DIRECTION('',(0.0,0.0,1.0));
#781=DIRECTION('',(1.0,0.0,0.0));
#782=DIRECTION('',(0.0,0.0,-1.0));
#783=DIRECTION('',(1.0,0.0,0.0));
#784=DIRECTION('',(0.0,1.0,0.0));
#785=DIRECTION('',(1.0,0.0,0.0));
#786=DIRECTION('',(0.0,1.0,0.0));
#787=DIRECTION('',(0.0,-1.0,0.0));
#788=DIRECTION('',(0.0,-1.0,0.0));
#789=DIRECTION('',(1.0,0.0,0.0));
#790=DIRECTION('',(0.0,0.258819045105081,0.965925826288382));
#791=DIRECTION('',(1.0,0.0,0.0));
#792=DIRECTION('',(0.0,-0.258819045105081,-0.965925826288382));
#793=DIRECTION('',(1.0,0.0,0.0));
#794=CARTESIAN_POINT('',(1.11022302462516E-15,2.42499999999995,0.5));
#795=DIRECTION('',(-1.0,0.0,0.0));
#796=DIRECTION('',(0.0,-1.0,0.0));
#797=DIRECTION('',(-1.0,0.0,0.0));
#798=CARTESIAN_POINT('',(6.15,2.42499999999995,0.5));
#799=DIRECTION('',(-1.0,0.0,0.0));
#800=DIRECTION('',(0.0,-1.0,0.0));
#801=DIRECTION('',(0.0,0.0,1.0));
#802=DIRECTION('',(0.0,0.0,-1.0));
#803=DIRECTION('',(1.0,0.0,0.0));
#804=DIRECTION('',(1.0,0.0,0.0));
#805=DIRECTION('',(0.0,-0.258819045103983,-0.965925826288677));
#806=DIRECTION('',(1.0,0.0,0.0));
#807=DIRECTION('',(0.0,-0.258819045103983,-0.965925826288677));
#808=DIRECTION('',(0.0,1.0,0.0));
#809=DIRECTION('',(0.0,-1.0,0.0));
#810=DIRECTION('',(1.0,0.0,0.0));
#811=DIRECTION('',(0.0,-1.0,0.0));
#812=DIRECTION('',(0.0,-1.0,0.0));
#813=DIRECTION('',(0.0,-1.0,0.0));
#814=DIRECTION('',(1.0,0.0,0.0));
#815=DIRECTION('',(0.0,-1.0,0.0));
#816=DIRECTION('',(0.0,-0.258819045103513,0.965925826288803));
#817=DIRECTION('',(0.0,-0.258819045103513,0.965925826288803));
#818=DIRECTION('',(1.0,0.0,0.0));
#819=CARTESIAN_POINT('',(6.15,8.07499999999982,0.5));
#820=DIRECTION('',(-1.0,0.0,0.0));
#821=DIRECTION('',(0.0,-1.0,0.0));
#822=DIRECTION('',(-1.0,0.0,0.0));
#823=CARTESIAN_POINT('',(1.11022302462516E-15,8.07499999999982,0.5));
#824=DIRECTION('',(-1.0,0.0,0.0));
#825=DIRECTION('',(0.0,-1.0,0.0));
#826=DIRECTION('',(0.0,-1.0,0.0));
#827=DIRECTION('',(0.0,-1.0,0.0));
#828=DIRECTION('',(0.0,-1.0,0.0));
#829=DIRECTION('',(0.0,1.0,0.0));
#830=DIRECTION('',(0.0,-1.0,0.0));
#831=DIRECTION('',(0.0,-1.0,0.0));
#832=DIRECTION('',(0.0,0.258819045104813,-0.965925826288454));
#833=DIRECTION('',(0.0,-0.258819045104813,0.965925826288454));
#834=PRESENTATION_LAYER_ASSIGNMENT('','',(#45,#47,#49,#51,#53,#55,#57,#59,#61,#63,#65,#67,#69,#71,#73,#75,#77,#79,#81,#83,#85,#423,#424,#425,#428,#429,#430,#432,#433,#434,#435,#437,#438,#439,#441,#442,#443,#445,#446,#447,#448,#450,#451,#452,#454,#455,#456,#458,#459,#460,#461,#463,#464,#465,#467,#468,#470,#471,#472,#474,#475,#476,#478,#479,#480,#482,#483,#485,#486,#488,#489,#491,#493,#500,#502,#509,#511,#515,#516,#518,#520,#524,#526,#530,#532,#536,#537,#539,#541,#545,#547,#551,#553,#557,#558,#560,#562,#566,#568,#575,#577,#581,#583,#587,#589));
ENDSEC;
END-ISO-10303-21;
