0
SECTION
2
HEADER
9
$INSUNITS
70
4
9
$ACADVER
1
AC1014
9
$HANDSEED
5
FFFF
0
ENDSEC
0
SECTION
2
TABLES
0
TABLE
2
VPORT
5
8
100
AcDbSymbolTable
0
ENDTAB
0
TABLE
2
LTYPE
5
5
100
AcDbSymbolTable
0
LTYPE
5
14
100
AcDbSymbolTableRecord
100
AcDbLinetypeTableRecord
2
BYBLOCK
70
0
0
LTYPE
5
15
100
AcDbSymbolTableRecord
100
AcDbLinetypeTableRecord
2
BYLAYER
70
0
0
LTYPE
5
16
100
AcDbSymbolTableRecord
100
AcDbLinetypeTableRecord
2
DASHED
70
0
3
Dashed __ __ __ __ __ __ __ __ __ __ __ __ __ _
72
65
73
2
40
0.75
49
0.5
74
0
49
-0.25
74
0
0
ENDTAB
0
TABLE
2
LAYER
5
2
100
AcDbSymbolTable
70
2
0
LAYER
5
50
100
AcDbSymbolTableRecord
100
AcDbLayerTableRecord
2
0
70
0
62
7
6
CONTINUOUS
0
ENDTAB
0
TABLE
2
STYLE
5
3
100
AcDbSymbolTable
70
1
0
STYLE
5
11
100
AcDbSymbolTableRecord
100
AcDbTextStyleTableRecord
2
STANDARD
70
0
0
ENDTAB
0
TABLE
2
VIEW
5
6
100
AcDbSymbolTable
70
0
0
ENDTAB
0
TABLE
2
UCS
5
7
100
AcDbSymbolTable
70
0
0
ENDTAB
0
TABLE
2
APPID
5
9
100
AcDbSymbolTable
70
2
0
APPID
5
12
100
AcDbSymbolTableRecord
100
AcDbRegAppTableRecord
2
ACAD
70
0
0
ENDTAB
0
TABLE
2
DIMSTYLE
5
A
100
AcDbSymbolTable
70
1
0
ENDTAB
0
TABLE
2
BLOCK_RECORD
5
1
100
AcDbSymbolTable
70
1
0
BLOCK_RECORD
5
1F
100
AcDbSymbolTableRecord
100
AcDbBlockTableRecord
2
*MODEL_SPACE
0
BLOCK_RECORD
5
1B
100
AcDbSymbolTableRecord
100
AcDbBlockTableRecord
2
*PAPER_SPACE
0
ENDTAB
0
ENDSEC
0
SECTION
2
BLOCKS
0
BLOCK
5
20
100
AcDbEntity
100
AcDbBlockBegin
2
*MODEL_SPACE
0
ENDBLK
5
21
100
AcDbEntity
100
AcDbBlockEnd
0
BLOCK
5
1C
100
AcDbEntity
100
AcDbBlockBegin
2
*PAPER_SPACE
0
ENDBLK
5
1D
100
AcDbEntity
100
AcDbBlockEnd
0
ENDSEC
0
SECTION
2
ENTITIES
0
LINE
5
100
100
AcDbEntity
8
0
100
AcDbLine
10
0
20
0
30
0
11
508
21
0
31
0
6
DASHED
0
LINE
5
101
100
AcDbEntity
8
0
100
AcDbLine
10
508
20
0
30
0
11
508
21
228.59999999999999
31
-1.9912145696068252e-95
6
DASHED
0
LINE
5
102
100
AcDbEntity
8
0
100
AcDbLine
10
508
20
228.59999999999999
30
-1.9912145696068252e-95
11
0
21
228.59999999999999
31
0
6
DASHED
0
LINE
5
103
100
AcDbEntity
8
0
100
AcDbLine
10
0
20
228.59999999999999
30
0
11
0
21
0
31
0
6
DASHED
0
LWPOLYLINE
5
104
100
AcDbEntity
8
0
100
AcDbPolyline
90
4
70
1
43
0.0
10
53.196273439219866
20
80.41825755933084
10
135.97681434265229
20
80.41825755933084
10
135.97681434265229
20
60.366494413033095
10
53.196273439219866
20
60.366494413033095
0
CIRCLE
5
105
100
AcDbEntity
8
0
100
AcDbCircle
10
455.81917985019106
20
154.6983518217385
30
0
40
15
210
0
220
0
230
1
6
DASHED
0
CIRCLE
5
106
100
AcDbEntity
8
0
100
AcDbCircle
10
454.00641392314304
20
104.40275550197575
30
0
40
15
210
0
220
0
230
1
6
DASHED
0
CIRCLE
5
107
100
AcDbEntity
8
0
100
AcDbCircle
10
402.44379184321338
20
104.40275550197569
30
0
40
15
210
0
220
0
230
1
6
DASHED
0
CIRCLE
5
108
100
AcDbEntity
8
0
100
AcDbCircle
10
353.04969125262681
20
105.12559599842331
30
0
40
15
210
0
220
0
230
1
6
DASHED
0
CIRCLE
5
109
100
AcDbEntity
8
0
100
AcDbCircle
10
301.96896283699579
20
104.64370233412488
30
0
40
15
210
0
220
0
230
1
6
DASHED
0
CIRCLE
5
110
100
AcDbEntity
8
0
100
AcDbCircle
10
352.32685075617917
20
53.562973918493874
30
0
40
15
210
0
220
0
230
1
6
DASHED
0
CIRCLE
5
111
100
AcDbEntity
8
0
100
AcDbCircle
10
403.16663233966108
20
53.803920750643087
30
0
40
15
210
0
220
0
230
1
6
DASHED
0
CIRCLE
5
112
100
AcDbEntity
8
0
100
AcDbCircle
10
454.00641392314304
20
53.081080254195491
30
0
40
15
210
0
220
0
230
1
6
DASHED
0
LINE
5
113
100
AcDbEntity
8
0
100
AcDbLine
10
13.999999999999986
20
164.76417575019951
30
0
11
494
21
164.76417575019951
31
0
6
DASHED
0
LINE
5
114
100
AcDbEntity
8
0
100
AcDbLine
10
494
20
164.76417575019951
30
0
11
494
21
44.76417575019952
31
0
6
DASHED
0
LINE
5
115
100
AcDbEntity
8
0
100
AcDbLine
10
494
20
44.76417575019952
30
0
11
13.999999999999986
21
44.76417575019952
31
0
6
DASHED
0
LINE
5
116
100
AcDbEntity
8
0
100
AcDbLine
10
13.999999999999986
20
44.76417575019952
30
0
11
13.999999999999986
21
164.76417575019951
31
0
6
DASHED
0
LINE
5
117
100
AcDbEntity
8
0
100
AcDbLine
10
254
20
0
30
0
11
254
21
44.76417575019952
31
0
6
DASHED
0
LINE
5
118
100
AcDbEntity
8
0
100
AcDbLine
10
377.88534485715263
20
105.12559599842331
30
0
11
377.88534485715263
21
104.40275550197575
31
0
6
DASHED
0
LINE
5
119
100
AcDbEntity
8
0
100
AcDbLine
10
377.88534485715263
20
104.76417575019951
30
0
11
253.99999999999994
21
104.76417575019951
31
0
6
DASHED
0
LINE
5
120
100
AcDbEntity
8
0
100
AcDbLine
10
13.999999999999986
20
44.76417575019952
30
0
11
494
21
164.76417575019951
31
0
6
DASHED
0
LINE
5
121
100
AcDbEntity
8
0
100
AcDbLine
10
13.999999999999986
20
104.76417575019951
30
0
11
0
21
104.76417575019951
31
0
6
DASHED
0
LINE
5
122
100
AcDbEntity
8
0
100
AcDbLine
10
13.999999999999986
20
178.76417575019951
30
0
11
494
21
178.76417575019951
31
0
6
DASHED
0
LINE
5
123
100
AcDbEntity
8
0
100
AcDbLine
10
494
20
30.76417575019952
30
0
11
13.999999999999986
21
30.76417575019952
31
0
6
DASHED
0
LINE
5
124
100
AcDbEntity
8
0
100
AcDbLine
10
244.83440792324257
20
69.764175750184748
30
0
11
249.33440792324251
21
69.764175750187022
31
0
6
DASHED
0
LINE
5
125
100
AcDbEntity
8
0
100
AcDbLine
10
194.83440792329708
20
69.764175750184748
30
0
11
190.33440792329714
21
69.764175750186993
31
0
6
DASHED
0
CIRCLE
5
126
100
AcDbEntity
8
0
100
AcDbCircle
10
300.46017702362553
20
149.76417575019954
30
0
40
15
210
0
220
0
230
1
0
LINE
5
127
100
AcDbEntity
8
0
100
AcDbLine
10
281.45823599720353
20
145.38510767258575
30
0
11
285.84329931099307
21
146.39566184434275
31
0
6
DASHED
0
CIRCLE
5
128
100
AcDbEntity
8
0
100
AcDbCircle
10
327.29054170870717
20
128.07589479329727
30
0
40
15
210
0
220
0
230
1
0
CIRCLE
5
129
100
AcDbEntity
8
0
100
AcDbCircle
10
354.12090639378857
20
149.76417575019954
30
0
40
15
210
0
220
0
230
1
0
CIRCLE
5
130
100
AcDbEntity
8
0
100
AcDbCircle
10
384.84914594154247
20
134.07898227686763
30
0
40
15
210
0
220
0
230
1
0
CIRCLE
5
131
100
AcDbEntity
8
0
100
AcDbCircle
10
327.29054170870717
20
128.07589479329727
30
0
40
19.5
210
0
220
0
230
1
6
DASHED
0
CIRCLE
5
132
100
AcDbEntity
8
0
100
AcDbCircle
10
354.12090639378857
20
149.76417575019954
30
0
40
19.5
210
0
220
0
230
1
6
DASHED
0
CIRCLE
5
133
100
AcDbEntity
8
0
100
AcDbCircle
10
384.84914594154247
20
134.07898227686763
30
0
40
19.5
210
0
220
0
230
1
6
DASHED
0
CIRCLE
5
134
100
AcDbEntity
8
0
100
AcDbCircle
10
427.75535333455616
20
78.859410669514645
30
0
40
15
210
0
220
0
230
1
0
CIRCLE
5
135
100
AcDbEntity
8
0
100
AcDbCircle
10
427.75535333455616
20
78.859410669514645
30
0
40
19.5
210
0
220
0
230
1
6
DASHED
0
CIRCLE
5
136
100
AcDbEntity
8
0
100
AcDbCircle
10
428.22510288317829
20
127.32815628496283
30
0
40
15
210
0
220
0
230
1
0
CIRCLE
5
137
100
AcDbEntity
8
0
100
AcDbCircle
10
428.22510288317829
20
127.32815628496283
30
0
40
19.5
210
0
220
0
230
1
6
DASHED
0
CIRCLE
5
138
100
AcDbEntity
8
0
100
AcDbCircle
10
410.63045698150734
20
157.00438305985483
30
0
40
15
210
0
220
0
230
1
0
CIRCLE
5
139
100
AcDbEntity
8
0
100
AcDbCircle
10
410.63045698150734
20
157.00438305985483
30
0
40
19.5
210
0
220
0
230
1
6
DASHED
0
CIRCLE
5
140
100
AcDbEntity
8
0
100
AcDbCircle
10
377.75535333455616
20
78.859410669514645
30
0
40
15
210
0
220
0
230
1
0
CIRCLE
5
141
100
AcDbEntity
8
0
100
AcDbCircle
10
377.75535333455616
20
78.859410669514645
30
0
40
19.5
210
0
220
0
230
1
6
DASHED
0
CIRCLE
5
142
100
AcDbEntity
8
0
100
AcDbCircle
10
327.72811238091538
20
81.693403539250852
30
0
40
15
210
0
220
0
230
1
0
CIRCLE
5
143
100
AcDbEntity
8
0
100
AcDbCircle
10
327.72811238091538
20
81.693403539250852
30
0
40
19.5
210
0
220
0
230
1
6
DASHED
0
CIRCLE
5
144
100
AcDbEntity
8
0
100
AcDbCircle
10
477.0665833162837
20
78.741917878085616
30
0
40
15
210
0
220
0
230
1
0
CIRCLE
5
145
100
AcDbEntity
8
0
100
AcDbCircle
10
477.0665833162837
20
78.741917878085616
30
0
40
19.5
210
0
220
0
230
1
6
DASHED
0
CIRCLE
5
146
100
AcDbEntity
8
0
100
AcDbCircle
10
478.49868393176405
20
128.70046547276942
30
0
40
15
210
0
220
0
230
1
0
CIRCLE
5
147
100
AcDbEntity
8
0
100
AcDbCircle
10
478.49868393176405
20
128.70046547276942
30
0
40
19.5
210
0
220
0
230
1
6
DASHED
0
CIRCLE
5
148
100
AcDbEntity
8
0
100
AcDbCircle
10
301.09431864859312
20
59.76417575019952
30
0
40
19.5
210
0
220
0
230
1
6
DASHED
0
CIRCLE
5
149
100
AcDbEntity
8
0
100
AcDbCircle
10
301.09431864859312
20
59.76417575019952
30
0
40
15
210
0
220
0
230
1
0
CIRCLE
5
150
100
AcDbEntity
8
0
100
AcDbCircle
10
275.13859815191415
20
126.33198329102709
30
0
40
15
210
0
220
0
230
1
0
CIRCLE
5
151
100
AcDbEntity
8
0
100
AcDbCircle
10
275.13859815191415
20
126.33198329102709
30
0
40
19.5
210
0
220
0
230
1
6
DASHED
0
CIRCLE
5
152
100
AcDbEntity
8
0
100
AcDbCircle
10
249.81701928020266
20
149.76417575019951
30
0
40
15
210
0
220
0
230
1
0
CIRCLE
5
153
100
AcDbEntity
8
0
100
AcDbCircle
10
249.81701928020266
20
149.76417575019951
30
0
40
19.5
210
0
220
0
230
1
6
DASHED
0
CIRCLE
5
154
100
AcDbEntity
8
0
100
AcDbCircle
10
275.33516910467353
20
82.714474545073372
30
0
40
15
210
0
220
0
230
1
0
CIRCLE
5
155
100
AcDbEntity
8
0
100
AcDbCircle
10
275.33516910467353
20
82.714474545073372
30
0
40
19.5
210
0
220
0
230
1
6
DASHED
0
CIRCLE
5
156
100
AcDbEntity
8
0
100
AcDbCircle
10
248.50480441959184
20
104.40275550197549
30
0
40
15
210
0
220
0
230
1
0
CIRCLE
5
157
100
AcDbEntity
8
0
100
AcDbCircle
10
248.50480441959184
20
104.40275550197549
30
0
40
19.5
210
0
220
0
230
1
6
DASHED
0
CIRCLE
5
158
100
AcDbEntity
8
0
100
AcDbCircle
10
249.57601956071625
20
59.76417575019952
30
0
40
15
210
0
220
0
230
1
0
CIRCLE
5
159
100
AcDbEntity
8
0
100
AcDbCircle
10
249.57601956071625
20
59.76417575019952
30
0
40
19.5
210
0
220
0
230
1
6
DASHED
0
CIRCLE
5
160
100
AcDbEntity
8
0
100
AcDbCircle
10
194.57601956071625
20
59.76417575019952
30
0
40
15
210
0
220
0
230
1
0
CIRCLE
5
161
100
AcDbEntity
8
0
100
AcDbCircle
10
194.57601956071625
20
59.76417575019952
30
0
40
19.5
210
0
220
0
230
1
6
DASHED
0
CIRCLE
5
162
100
AcDbEntity
8
0
100
AcDbCircle
10
193.50480441959184
20
104.40275550197549
30
0
40
15
210
0
220
0
230
1
0
CIRCLE
5
163
100
AcDbEntity
8
0
100
AcDbCircle
10
193.50480441959184
20
104.40275550197549
30
0
40
19.5
210
0
220
0
230
1
6
DASHED
0
CIRCLE
5
164
100
AcDbEntity
8
0
100
AcDbCircle
10
194.81701928020266
20
149.76417575019951
30
0
40
19.5
210
0
220
0
230
1
6
DASHED
0
CIRCLE
5
165
100
AcDbEntity
8
0
100
AcDbCircle
10
194.81701928020266
20
149.76417575019951
30
0
40
15
210
0
220
0
230
1
0
CIRCLE
5
166
100
AcDbEntity
8
0
100
AcDbCircle
10
220.13859815191412
20
126.33198329102709
30
0
40
15
210
0
220
0
230
1
0
CIRCLE
5
167
100
AcDbEntity
8
0
100
AcDbCircle
10
220.13859815191412
20
126.33198329102709
30
0
40
19.5
210
0
220
0
230
1
6
DASHED
0
CIRCLE
5
168
100
AcDbEntity
8
0
100
AcDbCircle
10
220.33516910467353
20
82.714474545073372
30
0
40
19.5
210
0
220
0
230
1
6
DASHED
0
CIRCLE
5
169
100
AcDbEntity
8
0
100
AcDbCircle
10
220.33516910467353
20
82.714474545073372
30
0
40
15
210
0
220
0
230
1
0
CIRCLE
5
170
100
AcDbEntity
8
0
100
AcDbCircle
10
138.50480441959184
20
104.40275550197549
30
0
40
15
210
0
220
0
230
1
0
CIRCLE
5
171
100
AcDbEntity
8
0
100
AcDbCircle
10
138.50480441959184
20
104.40275550197549
30
0
40
19.5
210
0
220
0
230
1
6
DASHED
0
CIRCLE
5
172
100
AcDbEntity
8
0
100
AcDbCircle
10
139.81701928020266
20
149.76417575019951
30
0
40
19.5
210
0
220
0
230
1
6
DASHED
0
CIRCLE
5
173
100
AcDbEntity
8
0
100
AcDbCircle
10
139.81701928020266
20
149.76417575019951
30
0
40
15
210
0
220
0
230
1
0
CIRCLE
5
174
100
AcDbEntity
8
0
100
AcDbCircle
10
165.13859815191412
20
126.33198329102709
30
0
40
15
210
0
220
0
230
1
0
CIRCLE
5
175
100
AcDbEntity
8
0
100
AcDbCircle
10
165.13859815191412
20
126.33198329102709
30
0
40
19.5
210
0
220
0
230
1
6
DASHED
0
CIRCLE
5
176
100
AcDbEntity
8
0
100
AcDbCircle
10
165.33516910467353
20
82.714474545073372
30
0
40
19.5
210
0
220
0
230
1
6
DASHED
0
CIRCLE
5
177
100
AcDbEntity
8
0
100
AcDbCircle
10
165.33516910467353
20
82.714474545073372
30
0
40
15
210
0
220
0
230
1
0
CIRCLE
5
178
100
AcDbEntity
8
0
100
AcDbCircle
10
83.504804419591849
20
104.40275550197549
30
0
40
15
210
0
220
0
230
1
0
CIRCLE
5
179
100
AcDbEntity
8
0
100
AcDbCircle
10
83.504804419591849
20
104.40275550197549
30
0
40
19.5
210
0
220
0
230
1
6
DASHED
0
CIRCLE
5
180
100
AcDbEntity
8
0
100
AcDbCircle
10
84.817019280202643
20
149.76417575019951
30
0
40
19.5
210
0
220
0
230
1
6
DASHED
0
CIRCLE
5
181
100
AcDbEntity
8
0
100
AcDbCircle
10
84.817019280202643
20
149.76417575019951
30
0
40
15
210
0
220
0
230
1
0
CIRCLE
5
182
100
AcDbEntity
8
0
100
AcDbCircle
10
110.13859815191412
20
126.33198329102709
30
0
40
15
210
0
220
0
230
1
0
CIRCLE
5
183
100
AcDbEntity
8
0
100
AcDbCircle
10
110.13859815191412
20
126.33198329102709
30
0
40
19.5
210
0
220
0
230
1
6
DASHED
0
CIRCLE
5
184
100
AcDbEntity
8
0
100
AcDbCircle
10
29.57601956071624
20
59.76417575019952
30
0
40
15
210
0
220
0
230
1
0
CIRCLE
5
185
100
AcDbEntity
8
0
100
AcDbCircle
10
29.57601956071624
20
59.76417575019952
30
0
40
19.5
210
0
220
0
230
1
6
DASHED
0
CIRCLE
5
186
100
AcDbEntity
8
0
100
AcDbCircle
10
28.504804419591849
20
104.40275550197549
30
0
40
15
210
0
220
0
230
1
0
CIRCLE
5
187
100
AcDbEntity
8
0
100
AcDbCircle
10
28.504804419591849
20
104.40275550197549
30
0
40
19.5
210
0
220
0
230
1
6
DASHED
0
CIRCLE
5
188
100
AcDbEntity
8
0
100
AcDbCircle
10
29.817019280202643
20
149.76417575019951
30
0
40
19.5
210
0
220
0
230
1
6
DASHED
0
CIRCLE
5
189
100
AcDbEntity
8
0
100
AcDbCircle
10
29.817019280202643
20
149.76417575019951
30
0
40
15
210
0
220
0
230
1
0
CIRCLE
5
190
100
AcDbEntity
8
0
100
AcDbCircle
10
55.138598151914131
20
126.33198329102709
30
0
40
15
210
0
220
0
230
1
0
CIRCLE
5
191
100
AcDbEntity
8
0
100
AcDbCircle
10
55.138598151914131
20
126.33198329102709
30
0
40
19.5
210
0
220
0
230
1
6
DASHED
0
ENDSEC
0
SECTION
2
OBJECTS
0
DICTIONARY
5
C
100
AcDbDictionary
3
ACAD_GROUP
350
D
3
ACAD_MLINESTYLE
350
17
0
DICTIONARY
5
D
100
AcDbDictionary
0
DICTIONARY
5
1A
330
C
100
AcDbDictionary
0
DICTIONARY
5
17
100
AcDbDictionary
0
ENDSEC
0
EOF
