<?xml version="1.0" encoding="UTF-8" standalone="no"?>
<!-- Created with Inkscape (http://www.inkscape.org/) -->
<svg
   xmlns:dc="http://purl.org/dc/elements/1.1/"
   xmlns:cc="http://web.resource.org/cc/"
   xmlns:rdf="http://www.w3.org/1999/02/22-rdf-syntax-ns#"
   xmlns:svg="http://www.w3.org/2000/svg"
   xmlns="http://www.w3.org/2000/svg"
   xmlns:sodipodi="http://sodipodi.sourceforge.net/DTD/sodipodi-0.dtd"
   xmlns:inkscape="http://www.inkscape.org/namespaces/inkscape"
   width="203.98666"
   height="101.53782"
   id="svg2341"
   sodipodi:version="0.32"
   inkscape:version="0.45.1"
   version="1.0"
   sodipodi:docbase="/home/museo8bits/oli"
   sodipodi:docname="IEC_60320_C7.svg"
   inkscape:output_extension="org.inkscape.output.svg.inkscape">
  <defs
     id="defs2343" />
  <sodipodi:namedview
     id="base"
     pagecolor="#ffffff"
     bordercolor="#ffffff"
     borderopacity="0.0"
     inkscape:pageopacity="0.0"
     inkscape:pageshadow="0"
     inkscape:zoom="1"
     inkscape:cx="350"
     inkscape:cy="40"
     inkscape:document-units="px"
     inkscape:current-layer="layer1"
     inkscape:window-width="910"
     inkscape:window-height="627"
     inkscape:window-x="0"
     inkscape:window-y="25" />
  <metadata
     id="metadata2346">
    <rdf:RDF>
      <cc:Work
         rdf:about="">
        <dc:format>image/svg+xml</dc:format>
        <dc:type
           rdf:resource="http://purl.org/dc/dcmitype/StillImage" />
      </cc:Work>
    </rdf:RDF>
  </metadata>
  <g
     inkscape:label="Layer 1"
     inkscape:groupmode="layer"
     id="layer1"
     transform="translate(-75.149521,-844.45041)">
    <path
       d="M 115.30524,845.2191 C 123.80524,843.8441 132.43024,844.9691 141.05524,844.5941 C 145.68024,844.9691 151.30524,843.3441 154.93024,846.9691 C 160.18024,852.9691 165.05524,859.3441 170.43024,865.2191 C 173.43024,868.8441 179.30524,868.8441 183.05524,866.4691 C 187.18024,862.7191 190.18024,857.9691 193.93024,853.8441 C 197.18024,850.3441 199.68024,845.2191 204.93024,844.7191 C 214.05524,844.4691 223.18024,844.5941 232.43024,844.5941 C 241.43024,844.7191 249.55524,848.9691 257.30524,853.3441 C 266.80524,859.4691 273.18024,869.4691 276.93024,879.9691 C 279.68024,888.2191 279.30524,896.9691 278.43024,905.4691 C 275.80524,915.7191 271.18024,925.8441 263.05524,932.8441 C 255.55524,939.5941 246.05524,944.3441 236.05524,945.8441 C 225.68024,945.9691 215.18024,945.8441 204.80524,945.8441 C 202.30524,946.2191 200.68024,944.2191 199.18024,942.7191 C 194.68024,937.5941 190.55524,932.2191 186.18024,926.9691 C 183.05524,923.0941 177.30524,920.8441 172.80524,923.7191 C 164.55524,929.5941 160.55524,940.2191 152.05524,945.7191 C 141.68024,946.0941 131.30524,945.8441 120.93024,945.8441 C 109.05524,944.3441 97.555244,938.9691 89.180244,930.2191 C 81.430244,921.3441 76.055244,910.0941 75.430244,898.2191 C 73.930244,883.5941 80.305244,869.2191 90.180244,858.7191 C 97.055244,851.9691 106.05524,847.8441 115.30524,845.2191 z "
       id="path60"
       style="fill:#2e2e2e;stroke:#2e2e2e;stroke-width:0.1171875" />
    <path
       d="M 104.43024,852.9691 C 111.80524,849.2191 120.30524,847.9691 128.55524,848.0941 C 136.05524,848.2191 143.43024,847.5941 150.93024,848.4691 C 156.55524,853.2191 160.43024,859.7191 165.55524,865.2191 C 168.43024,868.8441 172.55524,871.5941 177.30524,871.9691 C 182.05524,871.8441 186.30524,868.8441 189.18024,865.2191 C 193.93024,859.5941 198.68024,853.7191 203.68024,848.3441 C 215.18024,848.2191 226.68024,847.3441 238.05524,849.2191 C 254.18024,851.9691 267.68024,864.4691 273.30524,879.7191 C 275.93024,888.4691 277.18024,897.9691 274.55524,906.8441 C 270.93024,922.9691 257.80524,936.2191 242.05524,940.7191 C 230.93024,944.4691 218.93024,942.5941 207.30524,942.9691 C 202.30524,943.2191 200.18024,937.7191 197.18024,934.7191 C 192.55524,929.7191 189.30524,923.0941 182.93024,920.0941 C 177.68024,917.5941 171.30524,919.5941 167.30524,923.3441 C 161.80524,929.4691 157.30524,936.5941 151.18024,942.0941 C 145.05524,943.7191 138.55524,942.4691 132.30524,942.8441 C 120.93024,943.2191 109.43024,940.7191 99.805244,934.5941 C 91.305244,928.3441 83.680244,919.9691 80.930244,909.4691 C 73.305244,888.3441 84.180244,862.5941 104.43024,852.9691 z "
       id="path62"
       style="fill:#717171;stroke:#ffffff;stroke-width:0.1171875;fill-opacity:1" />
    <path
       d="M 121.43024,879.9691 C 131.18024,876.5941 142.80524,885.4691 141.55524,895.8441 C 142.05524,906.0941 129.93024,914.2191 120.55524,909.8441 C 112.80524,907.3441 108.18024,897.5941 111.18024,889.8441 C 112.68024,885.0941 116.68024,881.3441 121.43024,879.9691 z "
       id="path72"
       style="fill:#2e2e2e;stroke:#2e2e2e;stroke-width:0.1171875" />
    <path
       d="M 223.93024,879.9691 C 233.80524,876.9691 244.93024,885.4691 244.18024,895.8441 C 244.68024,905.0941 235.05524,912.8441 226.05524,910.9691 C 217.05524,909.8441 210.80524,899.5941 213.55524,891.0941 C 215.05524,886.0941 218.93024,881.5941 223.93024,879.9691 z "
       id="path74"
       style="fill:#2e2e2e;stroke:#2e2e2e;stroke-width:0.1171875" />
    <path
       d="M 120.55524,884.3441 C 128.18024,879.7191 139.55524,886.9691 138.55524,895.8441 C 138.68024,902.0941 132.30524,907.7191 126.05524,907.2191 C 118.80524,907.9691 112.55524,900.3441 113.68024,893.3441 C 114.05524,889.3441 117.18024,886.2191 120.55524,884.3441 z "
       id="path76"
       style="fill:#ffffff;stroke:#ffffff;stroke-width:0.1171875" />
    <path
       d="M 224.05524,883.9691 C 230.18024,881.2191 238.18024,884.9691 240.18024,891.4691 C 242.18024,896.0941 240.05524,901.7191 236.43024,904.9691 C 230.68024,909.4691 220.43024,907.9691 217.43024,900.8441 C 213.93024,894.7191 217.55524,886.3441 224.05524,883.9691 z "
       id="path78"
       style="fill:#ffffff;stroke:#ffffff;stroke-width:0.1171875" />
  </g>
</svg>
