0
SECTION
2
HEADER
9
$INSUNITS
70
4
9
$ACADVER
1
AC1014
9
$HANDSEED
5
FFFF
0
ENDSEC
0
SECTION
2
TABLES
0
TABLE
2
VPORT
5
8
100
AcDbSymbolTable
0
ENDTAB
0
TABLE
2
LTYPE
5
5
100
AcDbSymbolTable
0
LTYPE
5
14
100
AcDbSymbolTableRecord
100
AcDbLinetypeTableRecord
2
BYBLOCK
70
0
0
LTYPE
5
15
100
AcDbSymbolTableRecord
100
AcDbLinetypeTableRecord
2
BYLAYER
70
0
0
LTYPE
5
16
100
AcDbSymbolTableRecord
100
AcDbLinetypeTableRecord
2
DASHED
70
0
3
Dashed __ __ __ __ __ __ __ __ __ __ __ __ __ _
72
65
73
2
40
0.75
49
0.5
74
0
49
-0.25
74
0
0
ENDTAB
0
TABLE
2
LAYER
5
2
100
AcDbSymbolTable
70
2
0
LAYER
5
50
100
AcDbSymbolTableRecord
100
AcDbLayerTableRecord
2
0
70
0
62
7
6
CONTINUOUS
0
ENDTAB
0
TABLE
2
STYLE
5
3
100
AcDbSymbolTable
70
1
0
STYLE
5
11
100
AcDbSymbolTableRecord
100
AcDbTextStyleTableRecord
2
STANDARD
70
0
0
ENDTAB
0
TABLE
2
VIEW
5
6
100
AcDbSymbolTable
70
0
0
ENDTAB
0
TABLE
2
UCS
5
7
100
AcDbSymbolTable
70
0
0
ENDTAB
0
TABLE
2
APPID
5
9
100
AcDbSymbolTable
70
2
0
APPID
5
12
100
AcDbSymbolTableRecord
100
AcDbRegAppTableRecord
2
ACAD
70
0
0
ENDTAB
0
TABLE
2
DIMSTYLE
5
A
100
AcDbSymbolTable
70
1
0
ENDTAB
0
TABLE
2
BLOCK_RECORD
5
1
100
AcDbSymbolTable
70
1
0
BLOCK_RECORD
5
1F
100
AcDbSymbolTableRecord
100
AcDbBlockTableRecord
2
*MODEL_SPACE
0
BLOCK_RECORD
5
1B
100
AcDbSymbolTableRecord
100
AcDbBlockTableRecord
2
*PAPER_SPACE
0
ENDTAB
0
ENDSEC
0
SECTION
2
BLOCKS
0
BLOCK
5
20
100
AcDbEntity
100
AcDbBlockBegin
2
*MODEL_SPACE
0
ENDBLK
5
21
100
AcDbEntity
100
AcDbBlockEnd
0
BLOCK
5
1C
100
AcDbEntity
100
AcDbBlockBegin
2
*PAPER_SPACE
0
ENDBLK
5
1D
100
AcDbEntity
100
AcDbBlockEnd
0
ENDSEC
0
SECTION
2
ENTITIES
0
LWPOLYLINE
5
100
100
AcDbEntity
8
0
100
AcDbPolyline
90
40
70
1
43
0.0
10
-70.790000000000092
20
3.1500000000000128
10
-70.790000000000092
20
9.6500000000000377
10
-72.3900000000001
20
9.6500000000000377
10
-72.3900000000001
20
10.450000000000035
10
-70.790000000000092
20
10.450000000000035
10
-70.790000000000092
20
14.730000000000041
10
-72.3900000000001
20
14.730000000000041
10
-72.3900000000001
20
15.530000000000035
10
-70.790000000000092
20
15.530000000000035
10
-70.790000000000092
20
19.810000000000038
10
-72.3900000000001
20
19.810000000000038
10
-72.3900000000001
20
20.610000000000035
10
-70.790000000000092
20
20.610000000000035
10
-70.790000000000092
20
24.89000000000004
10
-72.3900000000001
20
24.89000000000004
10
-72.3900000000001
20
25.690000000000033
10
-70.790000000000092
20
25.690000000000033
10
-70.790000000000092
20
29.970000000000038
10
-72.3900000000001
20
29.970000000000038
10
-72.3900000000001
20
30.770000000000035
10
-70.790000000000092
20
30.770000000000035
10
-70.790000000000106
20
35.050000000000033
10
-72.3900000000001
20
35.050000000000033
10
-72.3900000000001
20
35.850000000000037
10
-70.790000000000106
20
35.850000000000037
10
-70.790000000000106
20
40.130000000000038
10
-72.3900000000001
20
40.130000000000038
10
-72.3900000000001
20
40.930000000000035
10
-70.790000000000106
20
40.930000000000035
10
-70.790000000000106
20
45.210000000000043
10
-72.3900000000001
20
45.210000000000043
10
-72.3900000000001
20
46.010000000000034
10
-70.790000000000106
20
46.010000000000034
10
-70.790000000000106
20
52.510000000000083
10
-66.3900000000001
20
52.510000000000076
10
-66.3900000000001
20
51.710000000000065
10
-69.990000000000109
20
51.710000000000058
10
-69.99000000000008
20
3.9500000000000153
10
-66.390000000000086
20
3.9500000000000157
10
-66.390000000000086
20
3.150000000000015
0
LWPOLYLINE
5
101
100
AcDbEntity
8
0
100
AcDbPolyline
90
16
70
1
43
0.0
10
-90.790000000000092
20
50.550000000000004
10
-92.3900000000001
20
50.550000000000004
10
-92.3900000000001
20
51.350000000000009
10
-90.790000000000092
20
51.350000000000009
10
-90.790000000000092
20
57.849999999999994
10
-86.3900000000001
20
57.849999999999994
10
-86.3900000000001
20
57.04999999999999
10
-89.990000000000094
20
57.04999999999999
10
-89.990000000000094
20
39.769999999999996
10
-86.3900000000001
20
39.769999999999996
10
-86.3900000000001
20
38.969999999999992
10
-90.790000000000092
20
38.969999999999992
10
-90.790000000000092
20
45.469999999999985
10
-92.3900000000001
20
45.469999999999985
10
-92.3900000000001
20
46.269999999999989
10
-90.790000000000092
20
46.269999999999989
0
LWPOLYLINE
5
102
100
AcDbEntity
8
0
100
AcDbPolyline
90
24
70
1
43
0.0
10
-80.790000000000092
20
35.310000000000024
10
-82.3900000000001
20
35.310000000000024
10
-82.3900000000001
20
36.110000000000014
10
-80.790000000000092
20
36.110000000000014
10
-80.790000000000092
20
40.390000000000015
10
-82.3900000000001
20
40.390000000000015
10
-82.3900000000001
20
41.190000000000012
10
-80.790000000000092
20
41.190000000000012
10
-80.790000000000092
20
45.470000000000013
10
-82.3900000000001
20
45.470000000000013
10
-82.3900000000001
20
46.270000000000017
10
-80.790000000000092
20
46.270000000000017
10
-80.790000000000092
20
50.550000000000011
10
-82.3900000000001
20
50.550000000000011
10
-82.3900000000001
20
51.350000000000016
10
-80.790000000000092
20
51.350000000000016
10
-80.790000000000092
20
57.850000000000023
10
-76.3900000000001
20
57.850000000000023
10
-76.3900000000001
20
57.050000000000018
10
-79.990000000000094
20
57.050000000000018
10
-79.990000000000094
20
29.610000000000024
10
-76.3900000000001
20
29.610000000000028
10
-76.3900000000001
20
28.810000000000031
10
-80.790000000000077
20
28.810000000000031
0
LWPOLYLINE
5
103
100
AcDbEntity
8
0
100
AcDbPolyline
90
16
70
1
43
0.0
10
-90.790000000000077
20
9.6500000000000181
10
-92.390000000000072
20
9.6500000000000128
10
-92.390000000000072
20
10.450000000000017
10
-90.790000000000077
20
10.450000000000021
10
-90.790000000000077
20
14.730000000000024
10
-92.390000000000072
20
14.730000000000015
10
-92.390000000000072
20
15.530000000000012
10
-90.790000000000077
20
15.530000000000024
10
-90.790000000000077
20
22.030000000000022
10
-86.3900000000001
20
22.030000000000022
10
-86.3900000000001
20
21.230000000000018
10
-89.990000000000094
20
21.230000000000018
10
-89.99000000000008
20
3.9500000000000113
10
-86.390000000000086
20
3.9500000000000091
10
-86.390000000000086
20
3.1500000000000083
10
-90.790000000000077
20
3.1500000000000119
0
LWPOLYLINE
5
104
100
AcDbEntity
8
0
100
AcDbPolyline
90
16
70
1
43
0.0
10
-7.3900000000000965
20
9.6500000000000181
10
-8.9900000000000979
20
9.6500000000000252
10
-8.9900000000000979
20
3.1500000000000172
10
-13.390000000000093
20
3.1500000000000128
10
-13.390000000000093
20
3.9500000000000144
10
-9.7900000000000986
20
3.9500000000000179
10
-9.7900000000000986
20
21.230000000000025
10
-13.390000000000093
20
21.230000000000025
10
-13.390000000000093
20
22.030000000000026
10
-8.9900000000000979
20
22.030000000000026
10
-8.9900000000000979
20
15.530000000000026
10
-7.3900000000000965
20
15.530000000000024
10
-7.3900000000000965
20
14.730000000000024
10
-8.9900000000000979
20
14.730000000000027
10
-8.9900000000000979
20
10.450000000000028
10
-7.3900000000000965
20
10.450000000000021
0
LWPOLYLINE
5
105
100
AcDbEntity
8
0
100
AcDbPolyline
90
40
70
1
43
0.0
10
-28.990000000000087
20
9.6500000000000377
10
-28.990000000000087
20
3.1500000000000128
10
-33.390000000000093
20
3.1500000000000128
10
-33.390000000000093
20
3.9500000000000144
10
-29.790000000000092
20
3.9500000000000144
10
-29.790000000000092
20
51.710000000000058
10
-33.390000000000093
20
51.710000000000065
10
-33.390000000000093
20
52.510000000000076
10
-28.990000000000087
20
52.510000000000083
10
-28.990000000000087
20
46.010000000000034
10
-27.390000000000086
20
46.010000000000034
10
-27.390000000000086
20
45.210000000000043
10
-28.990000000000087
20
45.210000000000043
10
-28.990000000000087
20
40.930000000000035
10
-27.390000000000086
20
40.930000000000035
10
-27.390000000000086
20
40.130000000000038
10
-28.990000000000087
20
40.130000000000038
10
-28.990000000000087
20
35.850000000000037
10
-27.390000000000086
20
35.850000000000037
10
-27.390000000000086
20
35.050000000000033
10
-28.990000000000087
20
35.050000000000033
10
-28.990000000000087
20
30.770000000000035
10
-27.390000000000086
20
30.770000000000035
10
-27.390000000000086
20
29.970000000000038
10
-28.990000000000087
20
29.970000000000038
10
-28.990000000000087
20
25.690000000000033
10
-27.390000000000086
20
25.690000000000033
10
-27.390000000000086
20
24.89000000000004
10
-28.990000000000087
20
24.89000000000004
10
-28.990000000000087
20
20.610000000000035
10
-27.390000000000086
20
20.610000000000035
10
-27.390000000000086
20
19.810000000000038
10
-28.990000000000087
20
19.810000000000038
10
-28.990000000000087
20
15.530000000000035
10
-27.390000000000086
20
15.530000000000035
10
-27.390000000000086
20
14.730000000000041
10
-28.990000000000087
20
14.730000000000041
10
-28.990000000000087
20
10.450000000000035
10
-27.390000000000086
20
10.450000000000035
10
-27.390000000000086
20
9.6500000000000377
0
LWPOLYLINE
5
106
100
AcDbEntity
8
0
100
AcDbPolyline
90
24
70
1
43
0.0
10
-17.390000000000096
20
35.310000000000024
10
-18.990000000000098
20
35.310000000000024
10
-18.990000000000098
20
28.810000000000031
10
-23.390000000000093
20
28.810000000000031
10
-23.390000000000093
20
29.610000000000028
10
-19.790000000000099
20
29.610000000000028
10
-19.790000000000099
20
57.050000000000018
10
-23.390000000000093
20
57.050000000000018
10
-23.390000000000093
20
57.850000000000023
10
-18.990000000000098
20
57.850000000000023
10
-18.990000000000098
20
51.350000000000016
10
-17.390000000000096
20
51.350000000000016
10
-17.390000000000096
20
50.550000000000011
10
-18.990000000000098
20
50.550000000000011
10
-18.990000000000098
20
46.270000000000017
10
-17.390000000000096
20
46.270000000000017
10
-17.390000000000096
20
45.470000000000013
10
-18.990000000000098
20
45.470000000000013
10
-18.990000000000098
20
41.190000000000012
10
-17.390000000000096
20
41.190000000000012
10
-17.390000000000096
20
40.390000000000015
10
-18.990000000000098
20
40.390000000000015
10
-18.990000000000098
20
36.110000000000014
10
-17.390000000000096
20
36.110000000000014
0
LWPOLYLINE
5
107
100
AcDbEntity
8
0
100
AcDbPolyline
90
16
70
1
43
0.0
10
-7.3900000000000965
20
50.550000000000011
10
-8.9900000000000979
20
50.550000000000011
10
-8.9900000000000979
20
46.27000000000001
10
-7.3900000000000965
20
46.27000000000001
10
-7.3900000000000965
20
45.470000000000006
10
-8.9900000000000979
20
45.470000000000006
10
-8.9900000000000979
20
38.969999999999992
10
-13.390000000000093
20
38.969999999999992
10
-13.390000000000093
20
39.770000000000003
10
-9.7900000000000986
20
39.770000000000003
10
-9.7900000000000986
20
57.049999999999997
10
-13.390000000000093
20
57.049999999999997
10
-13.390000000000093
20
57.850000000000001
10
-8.9900000000000979
20
57.850000000000001
10
-8.9900000000000979
20
51.350000000000009
10
-7.3900000000000965
20
51.350000000000009
0
LWPOLYLINE
5
108
100
AcDbEntity
8
0
100
AcDbPolyline
90
14
70
1
43
0.0
10
-34.108032422479091
20
70.400000000000034
10
-65.891967577519296
20
70.400000000000034
42
-0.23606797749979228
10
-64.691967577519279
20
68
10
-64.691967577519293
20
63.999999999999972
42
-0.41421356237309509
10
-67.691967577519293
20
60.999999999999979
10
-96.999999999999773
20
60.999999999999979
42
-0.23606797749961494
10
-99.399999999999991
20
62.199999999995576
10
-99.399999999999991
20
0.60000000000003439
10
-0.60000000000000497
20
0.60000000000003273
10
-0.60000000000000919
20
62.199999999993445
42
-0.23606797749907124
10
-2.9999999999951008
20
60.999999999999979
10
-32.308032422475591
20
60.999999999999979
42
-0.4142135623734397
10
-35.308032422479123
20
63.999999999999979
10
-35.308032422479123
20
68
42
-0.23606797749979322
0
CIRCLE
5
109
100
AcDbEntity
8
0
100
AcDbCircle
10
-45.390000000000093
20
29.210000000000029
30
8.8817841970012523e-15
40
1.8999999999999984
210
0
220
-3.8857805861880479e-16
230
1
0
CIRCLE
5
110
100
AcDbEntity
8
0
100
AcDbCircle
10
-45.390000000000072
20
39.369999999999919
30
1.3322676295501878e-14
40
1.8999999999999972
210
0
220
-3.8857805861880479e-16
230
1
0
CIRCLE
5
111
100
AcDbEntity
8
0
100
AcDbCircle
10
-45.390000000000093
20
57.450000000000003
30
2.2204460492503131e-14
40
1.8999999999999995
210
0
220
-5.5511151231257827e-16
230
1
0
CIRCLE
5
112
100
AcDbEntity
8
0
100
AcDbCircle
10
-45.390000000000072
20
52.11000000000007
30
2.2204460492503131e-14
40
1.8999999999999995
210
0
220
-5.5511151231257827e-16
230
1
0
CIRCLE
5
113
100
AcDbEntity
8
0
100
AcDbCircle
10
-45.390000000000093
20
21.630000000000024
30
6.6613381477509392e-15
40
1.8999999999999984
210
0
220
-3.8857805861880479e-16
230
1
0
CIRCLE
5
114
100
AcDbEntity
8
0
100
AcDbCircle
10
-45.390000000000086
20
3.5500000000000136
30
2.2204460492503131e-15
40
1.8999999999999995
210
0
220
-5.5511151231257827e-16
230
1
0
CIRCLE
5
115
100
AcDbEntity
8
0
100
AcDbCircle
10
-57.3900000000001
20
21.630000000000024
30
6.6613381477509392e-15
40
1.8999999999999984
210
0
220
-3.8857805861880479e-16
230
1
0
CIRCLE
5
116
100
AcDbEntity
8
0
100
AcDbCircle
10
-57.3900000000001
20
29.210000000000029
30
8.8817841970012523e-15
40
1.8999999999999984
210
0
220
-3.8857805861880479e-16
230
1
0
CIRCLE
5
117
100
AcDbEntity
8
0
100
AcDbCircle
10
-57.390000000000072
20
39.369999999999919
30
1.3322676295501878e-14
40
1.8999999999999972
210
0
220
-3.8857805861880479e-16
230
1
0
CIRCLE
5
118
100
AcDbEntity
8
0
100
AcDbCircle
10
-57.3900000000001
20
57.450000000000003
30
2.2204460492503131e-14
40
1.8999999999999995
210
0
220
-5.5511151231257827e-16
230
1
0
CIRCLE
5
119
100
AcDbEntity
8
0
100
AcDbCircle
10
-57.390000000000086
20
3.5500000000000136
30
2.2204460492503131e-15
40
1.8999999999999995
210
0
220
-5.5511151231257827e-16
230
1
0
CIRCLE
5
120
100
AcDbEntity
8
0
100
AcDbCircle
10
-57.390000000000072
20
52.11000000000007
30
2.2204460492503131e-14
40
1.8999999999999995
210
0
220
-5.5511151231257827e-16
230
1
0
ENDSEC
0
SECTION
2
OBJECTS
0
DICTIONARY
5
C
100
AcDbDictionary
3
ACAD_GROUP
350
D
3
ACAD_MLINESTYLE
350
17
0
DICTIONARY
5
D
100
AcDbDictionary
0
DICTIONARY
5
1A
330
C
100
AcDbDictionary
0
DICTIONARY
5
17
100
AcDbDictionary
0
ENDSEC
0
EOF
