0
SECTION
2
HEADER
9
$INSUNITS
70
4
9
$ACADVER
1
AC1014
9
$HANDSEED
5
FFFF
0
ENDSEC
0
SECTION
2
TABLES
0
TABLE
2
VPORT
5
8
100
AcDbSymbolTable
0
ENDTAB
0
TABLE
2
LTYPE
5
5
100
AcDbSymbolTable
0
LTYPE
5
14
100
AcDbSymbolTableRecord
100
AcDbLinetypeTableRecord
2
BYBLOCK
70
0
0
LTYPE
5
15
100
AcDbSymbolTableRecord
100
AcDbLinetypeTableRecord
2
BYLAYER
70
0
0
LTYPE
5
16
100
AcDbSymbolTableRecord
100
AcDbLinetypeTableRecord
2
DASHED
70
0
3
Dashed __ __ __ __ __ __ __ __ __ __ __ __ __ _
72
65
73
2
40
0.75
49
0.5
74
0
49
-0.25
74
0
0
ENDTAB
0
TABLE
2
LAYER
5
2
100
AcDbSymbolTable
70
2
0
LAYER
5
50
100
AcDbSymbolTableRecord
100
AcDbLayerTableRecord
2
0
70
0
62
7
6
CONTINUOUS
0
ENDTAB
0
TABLE
2
STYLE
5
3
100
AcDbSymbolTable
70
1
0
STYLE
5
11
100
AcDbSymbolTableRecord
100
AcDbTextStyleTableRecord
2
STANDARD
70
0
0
ENDTAB
0
TABLE
2
VIEW
5
6
100
AcDbSymbolTable
70
0
0
ENDTAB
0
TABLE
2
UCS
5
7
100
AcDbSymbolTable
70
0
0
ENDTAB
0
TABLE
2
APPID
5
9
100
AcDbSymbolTable
70
2
0
APPID
5
12
100
AcDbSymbolTableRecord
100
AcDbRegAppTableRecord
2
ACAD
70
0
0
ENDTAB
0
TABLE
2
DIMSTYLE
5
A
100
AcDbSymbolTable
70
1
0
ENDTAB
0
TABLE
2
BLOCK_RECORD
5
1
100
AcDbSymbolTable
70
1
0
BLOCK_RECORD
5
1F
100
AcDbSymbolTableRecord
100
AcDbBlockTableRecord
2
*MODEL_SPACE
0
BLOCK_RECORD
5
1B
100
AcDbSymbolTableRecord
100
AcDbBlockTableRecord
2
*PAPER_SPACE
0
ENDTAB
0
ENDSEC
0
SECTION
2
BLOCKS
0
BLOCK
5
20
100
AcDbEntity
100
AcDbBlockBegin
2
*MODEL_SPACE
0
ENDBLK
5
21
100
AcDbEntity
100
AcDbBlockEnd
0
BLOCK
5
1C
100
AcDbEntity
100
AcDbBlockBegin
2
*PAPER_SPACE
0
ENDBLK
5
1D
100
AcDbEntity
100
AcDbBlockEnd
0
ENDSEC
0
SECTION
2
ENTITIES
0
LWPOLYLINE
5
100
100
AcDbEntity
8
0
100
AcDbPolyline
90
8
70
1
43
0.0
10
-99.482049281690479
20
52.455981652526404
10
-99.4820492816919
20
81.764014075002166
42
-0.41421356237309509
10
-95.482049281690422
20
85.764014075003644
10
-91.482049281690436
20
85.764014075003615
42
-0.4142135623730378
10
-87.482049281688973
20
81.764014075002933
10
-87.482049281688958
20
52.455981652526383
42
-0.41421356237309509
10
-91.482049281690436
20
48.455981652524905
10
-95.482049281690493
20
48.455981652526347
42
-0.41421356237308982
0
LWPOLYLINE
5
101
100
AcDbEntity
8
0
100
AcDbPolyline
90
48
70
1
43
0.0
10
-87.482049281689527
20
165.56401407499922
42
0.15797629030729324
10
-88.242240635663833
20
167.90999786376159
10
58.789916709716493
20
167.90999786376159
42
-0.19891236737965823
10
65.153877740395416
20
165.27395889444051
10
79.296013364126367
20
151.13182327070956
42
-0.1989123673796579
10
81.93205233344743
20
144.76786224003064
10
81.932052333447416
20
30.452133487498777
42
-0.19891236737965834
10
79.296013364126338
20
24.088172456819855
10
65.153877740395401
20
9.9460368330889288
42
-0.1989123673796579
10
58.789916709716472
20
7.3099978637678609
10
-88.242240635663791
20
7.3099978637678706
42
0.15797629030728191
10
-87.482049281689527
20
9.655981652530059
10
-87.482049281688958
20
38.96401407500656
42
0.41421356237309509
10
-91.482049281690436
20
42.964014075008031
10
-95.482049281690493
20
42.964014075008052
42
0.41421356237309537
10
-99.482049281691971
20
38.964014075006567
10
-99.482049281691417
20
9.6559816525308086
42
0.15797629030733051
10
-98.72185792771711
20
7.3099978637678689
10
-126.13286285039058
20
7.3099978637678653
42
-0.19891236737965798
10
-132.4968238810695
20
9.9460368330889395
10
-141.63895950480045
20
19.088172456819887
42
-0.19891236737965798
10
-144.27499847412153
20
25.45213348749882
10
-144.27499847412153
20
27.209997863766485
10
-143.27499847412113
20
27.209997863766478
42
0.4142135623730947
10
-139.27499847412116
20
31.209997863766471
10
-139.27499847412113
20
60.209997863766482
42
0.41421356237309509
10
-143.27499847412113
20
64.209997863766489
10
-149.27499847412207
20
64.209997863766489
10
-149.27499847412207
20
80.609997863764647
10
-139.27499847412173
20
80.609997863764676
42
0.99999999999999989
10
-139.27499847412173
20
94.609997863764647
10
-149.27499847412173
20
94.609997863764633
10
-149.27499847412173
20
111.00999786376299
10
-143.27499847412113
20
111.00999786376298
42
0.41421356237309509
10
-139.27499847412116
20
115.00999786376298
10
-139.27499847412113
20
144.00999786376298
42
0.41421356237309637
10
-143.27499847412113
20
148.00999786376298
10
-144.27499847412153
20
148.00999786376298
10
-144.27499847412153
20
149.76786224003064
42
-0.19891236737965834
10
-141.63895950480043
20
156.13182327070956
10
-132.4968238810695
20
165.27395889444054
42
-0.19891236737965695
10
-126.13286285039059
20
167.90999786376159
10
-98.721857927717025
20
167.90999786376159
42
0.15797629030733193
10
-99.482049281691332
20
165.56401407499862
10
-99.4820492816919
20
136.25598165252288
42
0.41421356237309509
10
-95.482049281690422
20
132.2559816525214
10
-91.482049281690436
20
132.2559816525214
42
0.4142135623730937
10
-87.482049281688973
20
136.25598165252285
0
ARC
5
102
100
AcDbEntity
8
0
100
AcDbCircle
10
-119.43583705606272
20
143.26043358705584
30
4.7683706760892619e-07
40
0.27832283611707304
210
0
220
0
230
1
100
AcDbArc
50
240.00000000000563
51
285.60157006118556
0
ARC
5
103
100
AcDbEntity
8
0
100
AcDbCircle
10
-119.28612931008438
20
142.72429741479067
30
4.7683706760892619e-07
40
0.27832283611711983
210
0
220
0
230
1
100
AcDbArc
50
-45.601570061196384
51
105.60157006119648
0
ARC
5
104
100
AcDbEntity
8
0
100
AcDbCircle
10
-118.89667563800415
20
142.32657861749752
30
4.7683706760892619e-07
40
0.27832283611708181
210
0
220
0
230
1
100
AcDbArc
50
134.39842993881385
51
180
0
LINE
5
105
100
AcDbEntity
8
0
100
AcDbLine
10
-119.17499847412128
20
142.32657861749755
30
4.7683706760892619e-07
11
-119.17499847412124
21
139.09341711003557
31
-3.5527136788005009e-14
0
ARC
5
106
100
AcDbEntity
8
0
100
AcDbCircle
10
-118.89667563782886
20
139.09341711003566
30
0.0002041767800738982
40
0.2783228361174927
210
-1.7132517954576908e-06
220
-2.186918318981027e-19
230
0.99999999999853251
100
AcDbArc
50
180
51
225.60157006125999
0
ARC
5
107
100
AcDbEntity
8
0
100
AcDbCircle
10
-119.28612931008438
20
138.69569831274248
30
4.7683706316803409e-07
40
0.27832283611712882
210
0
220
0
230
1
100
AcDbArc
50
-105.60157006119653
51
45.601570061200547
0
ARC
5
108
100
AcDbEntity
8
0
100
AcDbCircle
10
-119.43583705606272
20
138.15956214047728
30
4.7683706316803409e-07
40
0.27832283611709258
210
0
220
-0
230
1
100
AcDbArc
50
74.398429938816022
51
120.00000000000156
0
LINE
5
109
100
AcDbEntity
8
0
100
AcDbLine
10
-119.57499847412129
20
138.40059678700803
30
4.7683706316803409e-07
11
-122.37499847412131
21
136.78401603327706
31
-3.1086244689504383e-14
0
ARC
5
110
100
AcDbEntity
8
0
100
AcDbCircle
10
-122.23583705601749
20
136.54298138644
30
0.00030777871543497871
40
0.27832283611750164
210
-8.5662589772900887e-07
220
1.4837195779455029e-06
230
0.99999999999853251
100
AcDbArc
50
120.00000000004403
51
165.6015700611066
0
ARC
5
111
100
AcDbEntity
8
0
100
AcDbCircle
10
-122.7749984741213
20
136.68139876171841
30
4.7683706760892619e-07
40
0.27832283611712966
210
0
220
0
230
1
100
AcDbArc
50
194.3984299388157
51
345.6015700611801
0
ARC
5
112
100
AcDbEntity
8
0
100
AcDbCircle
10
-123.31415989217987
20
136.54298138674633
30
4.7683706760892619e-07
40
0.2783228361170908
210
0
220
-0
230
1
100
AcDbArc
50
14.39842993881151
51
59.999999999995914
0
LINE
5
113
100
AcDbEntity
8
0
100
AcDbLine
10
-123.1749984741213
20
136.78401603327708
30
4.7683706760892619e-07
11
-125.97499847412138
21
138.400596787008
31
-3.5527136788005009e-14
0
ARC
5
114
100
AcDbEntity
8
0
100
AcDbCircle
10
-126.11415989213404
20
138.15956214048487
30
9.7434228857469003e-05
40
0.27832283611745073
210
8.5662589772888478e-07
220
1.4837195779459364e-06
230
0.99999999999853251
100
AcDbArc
50
59.999999999965723
51
105.60157006117819
0
ARC
5
115
100
AcDbEntity
8
0
100
AcDbCircle
10
-126.26386763815823
20
138.69569831274251
30
4.7683706316803409e-07
40
0.27832283611711983
210
0
220
0
230
1
100
AcDbArc
50
134.39842993880774
51
285.60157006119488
0
ARC
5
116
100
AcDbEntity
8
0
100
AcDbCircle
10
-126.65332131023845
20
139.09341711003563
30
4.7683706316803409e-07
40
0.27832283611708181
210
0
220
0
230
1
100
AcDbArc
50
314.39842993881382
51
360
0
LINE
5
117
100
AcDbEntity
8
0
100
AcDbLine
10
-126.37499847412133
20
139.0934171100356
30
4.7683706316803409e-07
11
-126.37499847412137
21
142.32657861749755
31
-3.5527136788005009e-14
0
ARC
5
118
100
AcDbEntity
8
0
100
AcDbCircle
10
-126.65332131005334
20
142.32657861749755
30
-0.00021651219508874543
40
0.27832283611742165
210
1.7132518114140309e-06
220
1.0934591696747051e-19
230
0.99999999999853251
100
AcDbArc
50
0
51
45.601570061276554
0
ARC
5
119
100
AcDbEntity
8
0
100
AcDbCircle
10
-126.26386763815816
20
142.72429741479067
30
4.7683706760892619e-07
40
0.2783228361171145
210
0
220
-0
230
1
100
AcDbArc
50
74.398429938813209
51
225.60157006119218
0
ARC
5
120
100
AcDbEntity
8
0
100
AcDbCircle
10
-126.11415989217981
20
143.26043358705584
30
4.7683706760892619e-07
40
0.2783228361171069
210
0
220
0
230
1
100
AcDbArc
50
254.39842993880475
51
299.99999999998846
0
LINE
5
121
100
AcDbEntity
8
0
100
AcDbLine
10
-125.97499847412131
20
143.01939894052506
30
4.7683706760892619e-07
11
-123.1749984741213
21
144.63597969425609
31
-3.9968028886505635e-14
0
ARC
5
122
100
AcDbEntity
8
0
100
AcDbCircle
10
-123.31415989213504
20
144.87701434047131
30
-0.00032011413141464244
40
0.27832283611748626
210
8.5662590570705465e-07
220
-1.4837195917637744e-06
230
0.9999999999985324
100
AcDbArc
50
300.00000000004405
51
345.60157006110734
0
ARC
5
123
100
AcDbEntity
8
0
100
AcDbCircle
10
-122.7749984741213
20
144.73859696581474
30
4.7683706316803409e-07
40
0.27832283611712522
210
0
220
-0
230
1
100
AcDbArc
50
14.398429938810052
51
165.60157006119141
0
ARC
5
124
100
AcDbEntity
8
0
100
AcDbCircle
10
-122.23583705606273
20
144.87701434078679
30
4.7683706316803409e-07
40
0.2783228361170908
210
0
220
0
230
1
100
AcDbArc
50
194.39842993881152
51
239.99999999999594
0
LINE
5
125
100
AcDbEntity
8
0
100
AcDbLine
10
-122.37499847412131
20
144.63597969425604
30
4.7683706316803409e-07
11
-119.57499847412123
21
143.01939894052512
31
4.7683706760892619e-07
0
ARC
5
126
100
AcDbEntity
8
0
100
AcDbCircle
10
-119.43583705606272
20
31.959562140473871
30
4.7683709869517088e-07
40
0.27832283611707548
210
0
220
-0
230
1
100
AcDbArc
50
74.398429938815241
51
119.99999999999216
0
LINE
5
127
100
AcDbEntity
8
0
100
AcDbLine
10
-119.57499847412123
20
32.200596787004613
30
4.7683709869517088e-07
11
-122.37499847412131
21
30.584016033273688
31
-4.4408920985006262e-15
0
ARC
5
128
100
AcDbEntity
8
0
100
AcDbCircle
10
-122.23583705601749
20
30.342981386553479
30
0.00015020769768269853
40
0.27832283611753239
210
-8.5662590570677079e-07
220
1.4837195917636107e-06
230
0.99999999999853251
100
AcDbArc
50
120.00000000004002
51
165.601570061106
0
ARC
5
129
100
AcDbEntity
8
0
100
AcDbCircle
10
-122.7749984741213
20
30.481398761714992
30
4.7683709869517088e-07
40
0.27832283611711356
210
0
220
0
230
1
100
AcDbArc
50
194.3984299388157
51
345.60157006118857
0
ARC
5
130
100
AcDbEntity
8
0
100
AcDbCircle
10
-123.31415989217987
20
30.342981386742935
30
4.7683709869517088e-07
40
0.27832283611710246
210
0
220
-0
230
1
100
AcDbArc
50
14.39842993880724
51
59.999999999990436
0
LINE
5
131
100
AcDbEntity
8
0
100
AcDbLine
10
-123.1749984741213
20
30.584016033273631
30
4.7683709869517088e-07
11
-125.97499847412131
21
32.200596787004642
31
-4.4408920985006262e-15
0
ARC
5
132
100
AcDbEntity
8
0
100
AcDbCircle
10
-126.11415989213397
20
31.959562140598283
30
-6.0136790849335063e-05
40
0.27832283611751224
210
8.5662590570645749e-07
220
1.4837195917639349e-06
230
0.99999999999853251
100
AcDbArc
50
59.999999999974854
51
105.60157006118817
0
ARC
5
133
100
AcDbEntity
8
0
100
AcDbCircle
10
-126.26386763815816
20
32.495698312739066
30
4.7683709869517088e-07
40
0.27832283611711961
210
0
220
0
230
1
100
AcDbArc
50
134.39842993881186
51
285.60157006118357
0
ARC
5
134
100
AcDbEntity
8
0
100
AcDbCircle
10
-126.65332131023838
20
32.893417110032196
30
4.7683709869517088e-07
40
0.27832283611708203
210
0
220
0
230
1
100
AcDbArc
50
314.39842993880865
51
360
0
LINE
5
135
100
AcDbEntity
8
0
100
AcDbLine
10
-126.37499847412131
20
32.893417110032182
30
4.7683709869517088e-07
11
-126.37499847412137
21
36.126578617494125
31
-4.4408920985006262e-15
0
ARC
5
136
100
AcDbEntity
8
0
100
AcDbCircle
10
-126.65332131005341
20
36.126578617494097
30
-0.00021651219304118436
40
0.2783228361174927
210
1.7132517954576908e-06
220
2.186918318981027e-19
230
0.99999999999853251
100
AcDbArc
50
0
51
45.60157006126714
0
ARC
5
137
100
AcDbEntity
8
0
100
AcDbCircle
10
-126.26386763815823
20
36.52429741478722
30
4.7683709425427878e-07
40
0.27832283611711545
210
0
220
-0
230
1
100
AcDbArc
50
74.398429938805137
51
225.60157006119547
0
ARC
5
138
100
AcDbEntity
8
0
100
AcDbCircle
10
-126.11415989217988
20
37.060433587052415
30
4.7683709425427878e-07
40
0.2783228361171059
210
0
220
0
230
1
100
AcDbArc
50
254.39842993881399
51
299.99999999999761
0
LINE
5
139
100
AcDbEntity
8
0
100
AcDbLine
10
-125.97499847412136
20
36.819398940521701
30
4.7683709425427878e-07
11
-123.1749984741213
21
38.43597969425263
31
-4.4408920985006262e-15
0
ARC
5
140
100
AcDbEntity
8
0
100
AcDbCircle
10
-123.31415989213505
20
38.677014340584797
30
-0.00016254310921995528
40
0.27832283611753239
210
8.5662589772881945e-07
220
-1.4837195779453936e-06
230
0.99999999999853251
100
AcDbArc
50
300.00000000004292
51
345.60157006110597
0
ARC
5
141
100
AcDbEntity
8
0
100
AcDbCircle
10
-122.7749984741213
20
38.538596965811308
30
4.7683709425427878e-07
40
0.27832283611713077
210
0
220
-0
230
1
100
AcDbArc
50
14.398429938815733
51
165.60157006118564
0
ARC
5
142
100
AcDbEntity
8
0
100
AcDbCircle
10
-122.23583705606273
20
38.677014340783387
30
4.7683709425427878e-07
40
0.27832283611708969
210
0
220
0
230
1
100
AcDbArc
50
194.39842993881152
51
239.99999999999332
0
LINE
5
143
100
AcDbEntity
8
0
100
AcDbLine
10
-122.3749984741213
20
38.435979694252687
30
4.7683709425427878e-07
11
-119.5749984741213
21
36.81939894052168
31
-4.4408920985006262e-15
0
ARC
5
144
100
AcDbEntity
8
0
100
AcDbCircle
10
-119.43583705601851
20
37.060433587164155
30
4.7801377353141585e-05
40
0.27832283611753239
210
-8.5662589772881945e-07
220
-1.4837195779453936e-06
230
0.99999999999853251
100
AcDbArc
50
239.99999999996035
51
285.60157006117993
0
ARC
5
145
100
AcDbEntity
8
0
100
AcDbCircle
10
-119.28612931008438
20
36.524297414787242
30
4.7683709425427878e-07
40
0.27832283611712011
210
0
220
0
230
1
100
AcDbArc
50
-45.601570061199531
51
105.60157006119806
0
ARC
5
146
100
AcDbEntity
8
0
100
AcDbCircle
10
-118.89667563800415
20
36.126578617494104
30
4.7683709425427878e-07
40
0.27832283611708153
210
0
220
0
230
1
100
AcDbArc
50
134.39842993881905
51
180
0
LINE
5
147
100
AcDbEntity
8
0
100
AcDbLine
10
-119.17499847412122
20
36.12657861749414
30
4.7683709425427878e-07
11
-119.17499847412124
21
32.893417110032182
31
-4.4408920985006262e-15
0
ARC
5
148
100
AcDbEntity
8
0
100
AcDbCircle
10
-118.89667563782886
20
32.893417110032203
30
0.00020417678200655595
40
0.2783228361174927
210
-1.7132518114135935e-06
220
-1.0934591696741466e-19
230
0.99999999999853251
100
AcDbArc
50
180
51
225.60157006126818
0
ARC
5
149
100
AcDbEntity
8
0
100
AcDbCircle
10
-119.28612931008438
20
32.495698312739066
30
4.7683709869517088e-07
40
0.27832283611714592
210
0
220
0
230
1
100
AcDbArc
50
-105.60157006119611
51
45.601570061192348
0
LINE
5
150
100
AcDbEntity
8
0
100
AcDbLine
10
60.380354419149391
20
38.477947056197415
30
4.7683710757695508e-07
11
44.384374332918171
21
38.477947056197344
31
4.7683711645873927e-07
0
ARC
5
151
100
AcDbEntity
8
0
100
AcDbCircle
10
44.384374332918242
20
35.245896248628398
30
4.7683712089963137e-07
40
3.2320508075689469
210
-3.0206754536962092e-29
220
1.3740167970443924e-15
230
1
100
AcDbArc
50
90.000000000001251
51
135.00000000000171
0
LINE
5
152
100
AcDbEntity
8
0
100
AcDbLine
10
42.098969289746705
20
37.531301291799799
30
4.7683712089963137e-07
11
22.063833693796614
21
17.496165695848902
31
4.7683712978141557e-07
0
ARC
5
153
100
AcDbEntity
8
0
100
AcDbCircle
10
16.950001525878733
20
22.609997863766331
30
4.7683712534052347e-07
40
7.2320508075689531
210
6.7871900520546339e-30
220
6.1405709343922992e-16
230
1
100
AcDbArc
50
269.99999999999937
51
315.00000000000256
0
LINE
5
154
100
AcDbEntity
8
0
100
AcDbLine
10
16.950001525878655
20
15.377947056197378
30
4.7683712978141557e-07
11
-27.499998474121263
21
15.377947056197367
31
4.7683712978141557e-07
0
ARC
5
155
100
AcDbEntity
8
0
100
AcDbCircle
10
-27.499998474121341
20
22.609997863766331
30
4.7683712534052347e-07
40
7.2320508075689514
210
4.3420393480660391e-16
220
4.3420393480655791e-16
230
1
100
AcDbArc
50
224.99999999999696
51
270.00000000000063
0
LINE
5
156
100
AcDbEntity
8
0
100
AcDbLine
10
-32.613830642039268
20
17.496165695848948
30
4.7683712978141557e-07
11
-52.648966237989328
21
37.531301291799835
31
4.7683711645873927e-07
0
ARC
5
157
100
AcDbEntity
8
0
100
AcDbCircle
10
-54.93437128116085
20
35.245896248628398
30
4.7683712089963137e-07
40
3.2320508075689731
210
9.7157659465432108e-16
220
9.7157659465428341e-16
230
1
100
AcDbArc
50
44.999999999998927
51
89.999999999998991
0
LINE
5
158
100
AcDbEntity
8
0
100
AcDbLine
10
-54.934371281160793
20
38.477947056197365
30
4.7683712089963137e-07
11
-82.249998474121284
21
38.4779470561975
31
4.7683711645873927e-07
0
ARC
5
159
100
AcDbEntity
8
0
100
AcDbCircle
10
-82.249998474121284
20
45.709997863766425
30
4.7683711201784718e-07
40
7.2320508075689549
210
0
220
6.1405709343922972e-16
230
1
100
AcDbArc
50
90
51
270
0
LINE
5
160
100
AcDbEntity
8
0
100
AcDbLine
10
-82.249998474121284
20
52.942048671335378
30
4.7683710757695508e-07
11
-54.934371281160779
21
52.942048671335499
31
4.7683710757695508e-07
0
ARC
5
161
100
AcDbEntity
8
0
100
AcDbCircle
10
-54.934371281160779
20
56.174099478904473
30
4.7683710757695508e-07
40
3.232050807568978
210
0
220
0
230
1
100
AcDbArc
50
270
51
315.00000000000057
0
LINE
5
162
100
AcDbEntity
8
0
100
AcDbLine
10
-52.648966237989285
20
53.888694435733022
30
4.7683710757695508e-07
11
-32.613830642039183
21
73.923830031683934
31
4.7683709869517088e-07
0
ARC
5
163
100
AcDbEntity
8
0
100
AcDbCircle
10
-27.49999847412127
20
68.809997863766483
30
4.7683710313606298e-07
40
7.232050807568946
210
3.7706611400303574e-31
220
6.1405709343923041e-16
230
1
100
AcDbArc
50
89.999999999999972
51
135.00000000000259
0
LINE
5
164
100
AcDbEntity
8
0
100
AcDbLine
10
-27.499998474121266
20
76.042048671335436
30
4.7683709869517088e-07
11
16.950001525878594
21
76.042048671335067
31
4.7683709869517088e-07
0
ARC
5
165
100
AcDbEntity
8
0
100
AcDbCircle
10
16.950001525878662
20
68.809997863766469
30
4.7683710313606298e-07
40
7.2320508075689558
210
4.3420393480659977e-16
220
4.3420393480656166e-16
230
1
100
AcDbArc
50
44.999999999997442
51
90.000000000000526
0
LINE
5
166
100
AcDbEntity
8
0
100
AcDbLine
10
22.063833693796543
20
73.923830031683892
30
4.7683709869517088e-07
11
42.098969289746684
21
53.888694435733058
31
4.7683710757695508e-07
0
ARC
5
167
100
AcDbEntity
8
0
100
AcDbCircle
10
44.384374332918171
20
56.174099478904452
30
4.7683710757695508e-07
40
3.2320508075689225
210
0
220
0
230
1
100
AcDbArc
50
224.99999999999883
51
270
0
LINE
5
168
100
AcDbEntity
8
0
100
AcDbLine
10
44.384374332918171
20
52.942048671335485
30
4.7683710757695508e-07
11
71.700001525878676
21
52.942048671335407
31
4.7683710757695508e-07
0
ARC
5
169
100
AcDbEntity
8
0
100
AcDbCircle
10
71.700001525878676
20
45.709997863766425
30
4.7683711201784718e-07
40
7.2320508075689593
210
0
220
6.1405709343922932e-16
230
1
100
AcDbArc
50
-90
51
90
0
LINE
5
170
100
AcDbEntity
8
0
100
AcDbLine
10
71.700001525878676
20
38.477947056197465
30
4.7683711645873927e-07
11
61.069648632608242
21
38.477947056197415
31
4.7683710757695508e-07
0
ARC
5
171
100
AcDbEntity
8
0
100
AcDbCircle
10
61.26416294393735
20
38.677014340783337
30
4.7683710757695508e-07
40
0.27832283611707131
210
0
220
0
230
1
100
AcDbArc
50
225.66277112327916
51
239.99999999999056
0
LINE
5
172
100
AcDbEntity
8
0
100
AcDbLine
10
61.12500152587878
20
38.435979694252651
30
4.7683710757695508e-07
11
63.925001525878784
21
36.819398940521594
31
-4.4408920985006262e-15
0
ARC
5
173
100
AcDbEntity
8
0
100
AcDbCircle
10
64.064162943914255
20
37.060433586930877
30
-0.0001093894779363876
40
0.2783228361175632
210
-8.5662592166248415e-07
220
-1.4837196193999357e-06
230
0.9999999999985324
100
AcDbArc
50
239.99999999996527
51
285.60157006117993
0
ARC
5
174
100
AcDbEntity
8
0
100
AcDbCircle
10
64.213870689915709
20
36.524297414787192
30
4.7683710757695508e-07
40
0.27832283611712011
210
0
220
0
230
1
100
AcDbArc
50
-45.601570061199531
51
105.60157006119486
0
ARC
5
175
100
AcDbEntity
8
0
100
AcDbCircle
10
64.603324361995931
20
36.126578617494062
30
4.7683710757695508e-07
40
0.27832283611708153
210
0
220
0
230
1
100
AcDbArc
50
134.39842993882004
51
180
0
LINE
5
176
100
AcDbEntity
8
0
100
AcDbLine
10
64.325001525878861
20
36.126578617494097
30
4.7683710757695508e-07
11
64.325001525878847
21
32.893417110032132
31
-4.4408920985006262e-15
0
ARC
5
177
100
AcDbEntity
8
0
100
AcDbCircle
10
64.60332436190194
20
32.893417110032161
30
-0.00011020492744056551
40
0.2783228361174927
210
-1.713251843325399e-06
220
-1.0934591900414133e-19
230
0.99999999999853251
100
AcDbArc
50
180
51
225.60157006126508
0
ARC
5
178
100
AcDbEntity
8
0
100
AcDbCircle
10
64.213870689915709
20
32.495698312739016
30
4.7683710757695508e-07
40
0.27832283611711595
210
0
220
0
230
1
100
AcDbArc
50
-105.60157006119805
51
45.60157006119649
0
ARC
5
179
100
AcDbEntity
8
0
100
AcDbCircle
10
64.064162943937362
20
31.959562140473828
30
4.7683710757695508e-07
40
0.2783228361171054
210
0
220
-0
230
1
100
AcDbArc
50
74.398429938816804
51
119.99999999999289
0
LINE
5
180
100
AcDbEntity
8
0
100
AcDbLine
10
63.925001525878855
20
32.200596787004564
30
4.7683710757695508e-07
11
61.125001525878773
21
30.584016033273645
31
-4.4408920985006262e-15
0
ARC
5
181
100
AcDbEntity
8
0
100
AcDbCircle
10
61.264162943915288
20
30.342981386786661
30
-6.9831561445654771e-06
40
0.27832283611753239
210
-8.5662592166267357e-07
220
1.483719619400045e-06
230
0.99999999999853251
100
AcDbArc
50
120.00000000004037
51
165.60157006110632
0
ARC
5
182
100
AcDbEntity
8
0
100
AcDbCircle
10
60.725001525878781
20
30.481398761714967
30
4.7683710757695508e-07
40
0.27832283611712216
210
0
220
0
230
1
100
AcDbArc
50
194.39842993881535
51
345.60157006118527
0
ARC
5
183
100
AcDbEntity
8
0
100
AcDbCircle
10
60.185840107820212
20
30.342981386742892
30
4.7683710757695508e-07
40
0.27832283611709829
210
0
220
-0
230
1
100
AcDbArc
50
14.398429938811127
51
59.999999999998586
0
LINE
5
184
100
AcDbEntity
8
0
100
AcDbLine
10
60.325001525878754
20
30.584016033273606
30
4.7683710757695508e-07
11
57.525001525878778
21
32.200596787004613
31
-4.4408920985006262e-15
0
ARC
5
185
100
AcDbEntity
8
0
100
AcDbCircle
10
57.385840107798813
20
31.959562140365012
30
9.7054064655565742e-05
40
0.27832283611752767
210
8.5662592166226562e-07
220
1.4837196194003145e-06
230
0.99999999999853251
100
AcDbArc
50
59.999999999977064
51
105.60157006119137
0
ARC
5
186
100
AcDbEntity
8
0
100
AcDbCircle
10
57.236132361841925
20
32.495698312739016
30
4.7683710757695508e-07
40
0.27832283611711961
210
0
220
0
230
1
100
AcDbArc
50
134.39842993881186
51
285.60157006118357
0
ARC
5
187
100
AcDbEntity
8
0
100
AcDbCircle
10
56.846678689761703
20
32.893417110032154
30
4.7683710757695508e-07
40
0.27832283611708203
210
0
220
0
230
1
100
AcDbArc
50
314.39842993880762
51
360
0
LINE
5
188
100
AcDbEntity
8
0
100
AcDbLine
10
57.125001525878758
20
32.893417110032132
30
4.7683710757695508e-07
11
57.125001525878716
21
36.126578617494076
31
-4.4408920985006262e-15
0
ARC
5
189
100
AcDbEntity
8
0
100
AcDbCircle
10
56.846678689677397
20
36.126578617494054
30
9.7869514159744939e-05
40
0.2783228361174927
210
1.713251843325399e-06
220
2.1869183800828267e-19
230
0.99999999999853251
100
AcDbArc
50
0
51
45.601570061266123
0
ARC
5
190
100
AcDbEntity
8
0
100
AcDbCircle
10
57.236132361841854
20
36.524297414787178
30
4.7683710757695508e-07
40
0.27832283611711595
210
0
220
-0
230
1
100
AcDbArc
50
74.398429938802337
51
225.60157006119647
0
ARC
5
191
100
AcDbEntity
8
0
100
AcDbCircle
10
57.385840107820201
20
37.060433587052366
30
4.7683710757695508e-07
40
0.2783228361171054
210
0
220
0
230
1
100
AcDbArc
50
254.39842993881641
51
299.99999999999903
0
LINE
5
192
100
AcDbEntity
8
0
100
AcDbLine
10
57.525001525878722
20
36.819398940521666
30
4.7683710757695508e-07
11
60.32500152587879
21
38.435979694252588
31
-4.4408920985006262e-15
0
ARC
5
193
100
AcDbEntity
8
0
100
AcDbCircle
10
60.185840107797723
20
38.677014340817976
30
-5.352257136257088e-06
40
0.27832283611753239
210
8.5662592166267357e-07
220
-1.483719619400045e-06
230
0.99999999999853251
100
AcDbArc
50
300.00000000004167
51
314.33722887671115
0
LINE
5
194
100
AcDbEntity
8
0
100
AcDbLine
10
44.384374332918185
20
136.74204867133221
30
4.768370542862499e-07
11
60.380354419149576
21
136.7420486713321
31
4.7683708537249458e-07
0
ARC
5
195
100
AcDbEntity
8
0
100
AcDbCircle
10
60.185840107820219
20
136.54298138674636
30
4.7683708093160249e-07
40
0.27832283611711484
210
-1.115126402482942e-14
220
-1.1412280330174485e-14
230
1
100
AcDbArc
50
45.662771123215968
51
59.999999999995914
0
LINE
5
196
100
AcDbEntity
8
0
100
AcDbLine
10
60.325001525878797
20
136.78401603327711
30
4.7683708093160249e-07
11
57.525001525878785
21
138.40059678700811
31
-3.5527136788005009e-14
0
ARC
5
197
100
AcDbEntity
8
0
100
AcDbCircle
10
57.385840107798742
20
138.15956214025161
30
0.00025462508820475824
40
0.2783228361175632
210
8.5662592166248415e-07
220
1.4837196193999357e-06
230
0.9999999999985324
100
AcDbArc
50
59.999999999964757
51
105.60157006117804
0
ARC
5
198
100
AcDbEntity
8
0
100
AcDbCircle
10
57.236132361841861
20
138.69569831274251
30
4.7683707649071039e-07
40
0.27832283611711367
210
0
220
0
230
1
100
AcDbArc
50
134.39842993880461
51
285.6015700611963
0
ARC
5
199
100
AcDbEntity
8
0
100
AcDbCircle
10
56.846678689761639
20
139.09341711003566
30
4.7683707649071039e-07
40
0.27832283611708797
210
0
220
0
230
1
100
AcDbArc
50
314.39842993881285
51
360
0
LINE
5
200
100
AcDbEntity
8
0
100
AcDbLine
10
57.125001525878758
20
139.0934171100356
30
4.7683707649071039e-07
11
57.125001525878723
21
142.32657861749755
31
-3.5527136788005009e-14
0
ARC
5
201
100
AcDbEntity
8
0
100
AcDbCircle
10
56.846678689677475
20
142.32657861749757
30
9.7869514128691383e-05
40
0.27832283611742165
210
1.7132518433258363e-06
220
1.0934591900419716e-19
230
0.99999999999853251
100
AcDbArc
50
0
51
45.601570061273499
0
ARC
5
202
100
AcDbEntity
8
0
100
AcDbCircle
10
57.236132361841932
20
142.72429741479067
30
4.7683707649071039e-07
40
0.27832283611711206
210
0
220
-0
230
1
100
AcDbArc
50
74.398429938816179
51
225.60157006118808
0
ARC
5
203
100
AcDbEntity
8
0
100
AcDbCircle
10
57.385840107820279
20
143.26043358705587
30
4.7683707649071039e-07
40
0.27832283611710928
210
0
220
0
230
1
100
AcDbArc
50
254.39842993880333
51
299.99999999998556
0
LINE
5
204
100
AcDbEntity
8
0
100
AcDbLine
10
57.525001525878785
20
143.01939894052506
30
4.7683707649071039e-07
11
60.325001525878797
21
144.63597969425604
31
-3.9968028886505635e-14
0
ARC
5
205
100
AcDbEntity
8
0
100
AcDbCircle
10
60.185840107797731
20
144.87701434070456
30
-0.00016292328075207194
40
0.27832283611754777
210
8.5662592166257891e-07
220
-1.4837196193999906e-06
230
0.99999999999853251
100
AcDbArc
50
300.00000000004064
51
345.60157006111297
0
ARC
5
206
100
AcDbEntity
8
0
100
AcDbCircle
10
60.725001525878788
20
144.73859696581474
30
4.7683707204981829e-07
40
0.27832283611712966
210
0
220
-0
230
1
100
AcDbArc
50
14.398429938809695
51
165.60157006118538
0
ARC
5
207
100
AcDbEntity
8
0
100
AcDbCircle
10
61.264162943937357
20
144.87701434078679
30
4.7683707204981829e-07
40
0.2783228361170908
210
0
220
0
230
1
100
AcDbArc
50
194.39842993881183
51
239.99999999999594
0
LINE
5
208
100
AcDbEntity
8
0
100
AcDbLine
10
61.12500152587878
20
144.63597969425604
30
4.7683707204981829e-07
11
63.925001525878862
21
143.01939894052512
31
-3.5527136788005009e-14
0
ARC
5
209
100
AcDbEntity
8
0
100
AcDbCircle
10
64.064162943914269
20
143.26043358681747
30
-0.00026696050154783409
40
0.27832283611748154
210
-8.5662592166254948e-07
220
-1.483719619400478e-06
230
0.9999999999985324
100
AcDbArc
50
239.99999999997155
51
285.60157006117663
0
ARC
5
210
100
AcDbEntity
8
0
100
AcDbCircle
10
64.213870689915723
20
142.72429741479067
30
4.7683707649071039e-07
40
0.27832283611711367
210
0
220
0
230
1
100
AcDbArc
50
-45.601570061194337
51
105.60157006119931
0
ARC
5
211
100
AcDbEntity
8
0
100
AcDbCircle
10
64.603324361995945
20
142.32657861749755
30
4.7683707649071039e-07
40
0.27832283611708797
210
0
220
0
230
1
100
AcDbArc
50
134.39842993881595
51
180
0
LINE
5
212
100
AcDbEntity
8
0
100
AcDbLine
10
64.325001525878818
20
142.32657861749755
30
4.7683707649071039e-07
11
64.325001525878861
21
139.0934171100356
31
-3.5527136788005009e-14
0
ARC
5
213
100
AcDbEntity
8
0
100
AcDbCircle
10
64.603324361901954
20
139.09341711003566
30
-0.00011020492747167862
40
0.2783228361174927
210
-1.713251843325399e-06
220
-2.1869183800828267e-19
230
0.99999999999853251
100
AcDbArc
50
180
51
225.60157006126209
0
ARC
5
214
100
AcDbEntity
8
0
100
AcDbCircle
10
64.213870689915723
20
138.69569831274251
30
4.7683707649071039e-07
40
0.27832283611712644
210
0
220
0
230
1
100
AcDbArc
50
-105.60157006119653
51
45.601570061198451
0
ARC
5
215
100
AcDbEntity
8
0
100
AcDbCircle
10
64.064162943937376
20
138.15956214047731
30
4.7683707649071039e-07
40
0.27832283611709496
210
0
220
-0
230
1
100
AcDbArc
50
74.398429938816022
51
120.0000000000003
0
LINE
5
216
100
AcDbEntity
8
0
100
AcDbLine
10
63.92500152587882
20
138.40059678700806
30
4.7683707649071039e-07
11
61.12500152587878
21
136.78401603327706
31
-3.1086244689504383e-14
0
ARC
5
217
100
AcDbEntity
8
0
100
AcDbCircle
10
61.264162943915288
20
136.5429813866732
30
0.00015058786740908405
40
0.27832283611748626
210
-8.5662592166295743e-07
220
1.4837196194002087e-06
230
0.9999999999985324
100
AcDbArc
50
120.00000000004111
51
134.33722887675248
0
LINE
5
218
100
AcDbEntity
8
0
100
AcDbLine
10
61.069648632608065
20
136.7420486713321
30
4.7683708093160249e-07
11
71.700001525878676
21
136.74204867133204
31
4.7683705872714199e-07
0
ARC
5
219
100
AcDbEntity
8
0
100
AcDbCircle
10
71.700001525878676
20
129.50999786376312
30
4.7683706316803409e-07
40
7.232050807568946
210
0
220
6.1405709343923041e-16
230
1
100
AcDbArc
50
-90
51
90
0
LINE
5
220
100
AcDbEntity
8
0
100
AcDbLine
10
71.700001525878676
20
122.27794705619417
30
4.7683706760892619e-07
11
44.384374332918171
21
122.27794705619402
31
4.7683706760892619e-07
0
ARC
5
221
100
AcDbEntity
8
0
100
AcDbCircle
10
44.384374332918171
20
119.0458962486251
30
4.7683706760892619e-07
40
3.2320508075689247
210
0
220
-0
230
1
100
AcDbArc
50
90
51
135.00000000000099
0
LINE
5
222
100
AcDbEntity
8
0
100
AcDbLine
10
42.098969289746655
20
121.33130129179654
30
4.7683706760892619e-07
11
22.063833693796578
21
101.29616569584563
31
4.7683708093160249e-07
0
ARC
5
223
100
AcDbEntity
8
0
100
AcDbCircle
10
16.950001525878662
20
106.4099978637631
30
4.7683707649071039e-07
40
7.2320508075689638
210
6.9757231090561283e-30
220
6.1405709343922893e-16
230
1
100
AcDbArc
50
269.99999999999932
51
315.00000000000256
0
LINE
5
224
100
AcDbEntity
8
0
100
AcDbLine
10
16.95000152587858
20
99.177947056194128
30
4.7683708093160249e-07
11
-27.499998474121181
21
99.177947056194114
31
4.7683708093160249e-07
0
ARC
5
225
100
AcDbEntity
8
0
100
AcDbCircle
10
-27.49999847412127
20
106.4099978637631
30
4.7683707649071039e-07
40
7.2320508075689558
210
4.3420393480660199e-16
220
4.3420393480655939e-16
230
1
100
AcDbArc
50
224.99999999999721
51
270.00000000000074
0
LINE
5
226
100
AcDbEntity
8
0
100
AcDbLine
10
-32.613830642039176
20
101.29616569584569
30
4.7683708093160249e-07
11
-52.648966237989271
21
121.33130129179655
31
4.7683706760892619e-07
0
ARC
5
227
100
AcDbEntity
8
0
100
AcDbCircle
10
-54.93437128116085
20
119.0458962486251
30
4.7683706760892619e-07
40
3.2320508075690229
210
0
220
-0
230
1
100
AcDbArc
50
44.999999999998401
51
89.999999999998991
0
LINE
5
228
100
AcDbEntity
8
0
100
AcDbLine
10
-54.934371281160793
20
122.27794705619405
30
4.7683706760892619e-07
11
-82.249998474121284
21
122.27794705619419
31
4.7683706760892619e-07
0
ARC
5
229
100
AcDbEntity
8
0
100
AcDbCircle
10
-82.249998474121284
20
129.50999786376315
30
4.7683706316803409e-07
40
7.232050807568946
210
0
220
6.1405709343923041e-16
230
1
100
AcDbArc
50
90
51
270
0
LINE
5
230
100
AcDbEntity
8
0
100
AcDbLine
10
-82.249998474121284
20
136.7420486713321
30
4.7683705872714199e-07
11
-54.934371281160786
21
136.74204867133221
31
4.7683705872714199e-07
0
ARC
5
231
100
AcDbEntity
8
0
100
AcDbCircle
10
-54.93437128116085
20
139.97409947890117
30
4.768370542862499e-07
40
3.2320508075689602
210
-2.6430910219841615e-29
220
1.3740167970443867e-15
230
1
100
AcDbArc
50
270.00000000000114
51
315.00000000000131
0
LINE
5
232
100
AcDbEntity
8
0
100
AcDbLine
10
-52.648966237989335
20
137.68869443572976
30
4.768370542862499e-07
11
-32.613830642039233
21
157.72383003168062
31
4.768370454044657e-07
0
ARC
5
233
100
AcDbEntity
8
0
100
AcDbCircle
10
-27.499998474121341
20
152.60999786376323
30
4.768370498453578e-07
40
7.2320508075689816
210
7.5413222800606421e-30
220
6.1405709343922745e-16
230
1
100
AcDbArc
50
89.999999999999304
51
135.00000000000279
0
LINE
5
234
100
AcDbEntity
8
0
100
AcDbLine
10
-27.499998474121252
20
159.84204867133224
30
4.768370454044657e-07
11
16.950001525878662
21
159.84204867133184
31
4.768370454044657e-07
0
ARC
5
235
100
AcDbEntity
8
0
100
AcDbCircle
10
16.950001525878733
20
152.60999786376323
30
4.768370498453578e-07
40
7.2320508075689807
210
4.3420393480660051e-16
220
4.3420393480655791e-16
230
1
100
AcDbArc
50
44.999999999997186
51
90.000000000000568
0
LINE
5
236
100
AcDbEntity
8
0
100
AcDbLine
10
22.063833693796656
20
157.72383003168065
30
4.768370454044657e-07
11
42.098969289746684
21
137.68869443572976
31
4.7683705872714199e-07
0
ARC
5
237
100
AcDbEntity
8
0
100
AcDbCircle
10
44.384374332918242
20
139.97409947890117
30
4.768370542862499e-07
40
3.2320508075689731
210
9.7157659465433606e-16
220
9.7157659465426822e-16
230
1
100
AcDbArc
50
224.99999999999812
51
269.99999999999898
0
LWPOLYLINE
5
238
100
AcDbEntity
8
0
100
AcDbPolyline
90
8
70
1
43
0.0
10
-99.482049281690408
20
93.455981652527271
10
-99.4820492816919
20
122.76401407500303
42
-0.41421356237309509
10
-95.482049281690422
20
126.76401407500451
10
-91.482049281690436
20
126.76401407500451
42
-0.41421356237309509
10
-87.482049281688973
20
122.76401407500305
10
-87.482049281688901
20
93.455981652526674
42
-0.41421356237305079
10
-91.482049281690365
20
89.455981652525821
10
-95.482049281690422
20
89.455981652527299
42
-0.41421356237309509
0
ENDSEC
0
SECTION
2
OBJECTS
0
DICTIONARY
5
C
100
AcDbDictionary
3
ACAD_GROUP
350
D
3
ACAD_MLINESTYLE
350
17
0
DICTIONARY
5
D
100
AcDbDictionary
0
DICTIONARY
5
1A
330
C
100
AcDbDictionary
0
DICTIONARY
5
17
100
AcDbDictionary
0
ENDSEC
0
EOF
