<?xml version="1.0" encoding="UTF-8" standalone="no"?>
<!DOCTYPE svg PUBLIC "-//W3C//DTD SVG 1.1//EN" "http://www.w3.org/Graphics/SVG/1.1/DTD/svg11.dtd">
<svg width="100%" height="100%" viewBox="0 0 198 82" version="1.1" xmlns="http://www.w3.org/2000/svg" xmlns:xlink="http://www.w3.org/1999/xlink" xml:space="preserve" xmlns:serif="http://www.serif.com/" style="fill-rule:evenodd;clip-rule:evenodd;stroke-linejoin:round;stroke-miterlimit:2;">
    <g transform="matrix(1,0,0,1,-1236.43,-2358.83)">
        <g transform="matrix(2.92308,0,0,3.58839,-2730.62,-6784.99)">
            <path d="M1375.35,2557.95L1375.66,2554.25L1375.12,2554.25L1373.35,2557.83L1368.5,2566.26L1363.69,2557.83L1361.92,2554.28L1361.38,2554.28L1361.69,2557.95L1361.69,2570.43L1357.15,2570.43L1357.15,2548.55L1362.42,2548.55L1366.42,2555.66L1368.39,2560.14L1368.73,2560.14L1370.7,2555.66L1374.62,2548.55L1379.89,2548.55L1379.89,2570.43L1375.35,2570.43L1375.35,2557.95Z" style="fill-rule:nonzero;"/>
            <path d="M1391.36,2570.43L1399.75,2551.81L1391.63,2551.81L1391.63,2555.69L1387.59,2555.69L1387.59,2548.55L1404.45,2548.55L1404.45,2551.9L1396.41,2570.43L1391.36,2570.43Z" style="fill-rule:nonzero;"/>
            <path d="M1415.46,2557.48C1416.66,2557.48 1417.62,2557.24 1418.32,2556.74C1419.03,2556.25 1419.38,2555.6 1419.38,2554.78L1419.38,2553.94C1419.38,2553.14 1419.08,2552.52 1418.48,2552.07C1417.88,2551.62 1417.04,2551.4 1415.96,2551.4C1414.85,2551.4 1413.9,2551.62 1413.11,2552.06C1412.31,2552.49 1411.62,2553.14 1411.03,2554L1407.95,2551.81C1408.82,2550.68 1409.95,2549.79 1411.34,2549.14C1412.72,2548.49 1414.35,2548.17 1416.23,2548.17C1418.71,2548.17 1420.68,2548.63 1422.13,2549.55C1423.58,2550.47 1424.31,2551.9 1424.31,2553.84C1424.31,2555.16 1423.9,2556.25 1423.1,2557.12C1422.29,2557.99 1421.16,2558.54 1419.73,2558.77L1419.73,2559.24C1421.4,2559.42 1422.66,2559.94 1423.52,2560.77C1424.38,2561.61 1424.81,2562.73 1424.81,2564.13C1424.81,2566.2 1424.01,2567.83 1422.42,2569.02C1420.83,2570.21 1418.64,2570.8 1415.84,2570.8C1411.92,2570.8 1409,2569.46 1407.11,2566.76L1410.61,2564.6C1411.25,2565.62 1411.99,2566.37 1412.82,2566.85C1413.65,2567.34 1414.65,2567.58 1415.8,2567.58C1417.09,2567.58 1418.08,2567.3 1418.79,2566.76C1419.49,2566.22 1419.84,2565.47 1419.84,2564.53L1419.84,2563.66C1419.84,2562.74 1419.46,2562.01 1418.69,2561.48C1417.92,2560.95 1416.83,2560.68 1415.42,2560.68L1413.11,2560.68L1413.11,2557.48L1415.46,2557.48Z" style="fill-rule:nonzero;"/>
        </g>
    </g>
</svg>
