0
SECTION
2
HEADER
9
$INSUNITS
70
4
9
$ACADVER
1
AC1014
9
$HANDSEED
5
FFFF
0
ENDSEC
0
SECTION
2
TABLES
0
TABLE
2
VPORT
5
8
100
AcDbSymbolTable
0
ENDTAB
0
TABLE
2
LTYPE
5
5
100
AcDbSymbolTable
0
LTYPE
5
14
100
AcDbSymbolTableRecord
100
AcDbLinetypeTableRecord
2
BYBLOCK
70
0
0
LTYPE
5
15
100
AcDbSymbolTableRecord
100
AcDbLinetypeTableRecord
2
BYLAYER
70
0
0
LTYPE
5
16
100
AcDbSymbolTableRecord
100
AcDbLinetypeTableRecord
2
DASHED
70
0
3
Dashed __ __ __ __ __ __ __ __ __ __ __ __ __ _
72
65
73
2
40
0.75
49
0.5
74
0
49
-0.25
74
0
0
ENDTAB
0
TABLE
2
LAYER
5
2
100
AcDbSymbolTable
70
2
0
LAYER
5
50
100
AcDbSymbolTableRecord
100
AcDbLayerTableRecord
2
0
70
0
62
7
6
CONTINUOUS
0
ENDTAB
0
TABLE
2
STYLE
5
3
100
AcDbSymbolTable
70
1
0
STYLE
5
11
100
AcDbSymbolTableRecord
100
AcDbTextStyleTableRecord
2
STANDARD
70
0
0
ENDTAB
0
TABLE
2
VIEW
5
6
100
AcDbSymbolTable
70
0
0
ENDTAB
0
TABLE
2
UCS
5
7
100
AcDbSymbolTable
70
0
0
ENDTAB
0
TABLE
2
APPID
5
9
100
AcDbSymbolTable
70
2
0
APPID
5
12
100
AcDbSymbolTableRecord
100
AcDbRegAppTableRecord
2
ACAD
70
0
0
ENDTAB
0
TABLE
2
DIMSTYLE
5
A
100
AcDbSymbolTable
70
1
0
ENDTAB
0
TABLE
2
BLOCK_RECORD
5
1
100
AcDbSymbolTable
70
1
0
BLOCK_RECORD
5
1F
100
AcDbSymbolTableRecord
100
AcDbBlockTableRecord
2
*MODEL_SPACE
0
BLOCK_RECORD
5
1B
100
AcDbSymbolTableRecord
100
AcDbBlockTableRecord
2
*PAPER_SPACE
0
ENDTAB
0
ENDSEC
0
SECTION
2
BLOCKS
0
BLOCK
5
20
100
AcDbEntity
100
AcDbBlockBegin
2
*MODEL_SPACE
0
ENDBLK
5
21
100
AcDbEntity
100
AcDbBlockEnd
0
BLOCK
5
1C
100
AcDbEntity
100
AcDbBlockBegin
2
*PAPER_SPACE
0
ENDBLK
5
1D
100
AcDbEntity
100
AcDbBlockEnd
0
ENDSEC
0
SECTION
2
ENTITIES
0
LWPOLYLINE
5
100
100
AcDbEntity
8
0
100
AcDbPolyline
90
16
70
1
43
0.0
10
7.6000000000029075
20
-16.947946274284469
42
0.27856269767568098
10
12.090578603142873
20
-24.382757929045667
42
0.39842336458631666
10
11.17771308922836
20
-32.653498179852832
10
11.17771308922836
20
-32.658412348257855
10
-11.17771308922511
20
-32.658412348257855
10
-11.177713089225529
20
-32.653498179852072
42
0.3984233645864052
10
-12.090578603149257
20
-24.382757929051518
42
0.27856269767608716
10
-7.5999999999980794
20
-16.947946274284426
10
-7.5999999999980803
20
16.947946274283673
42
0.27856269767573943
10
-12.090578603139658
20
24.382757929045717
42
0.3984233645862571
10
-11.177713089226117
20
32.653498179852079
10
-11.17771308922511
20
32.658412348257087
10
11.17771308922836
20
32.658412348257087
10
11.177713089227769
20
32.653498179851312
42
0.39842336458646466
10
12.090578603152453
20
24.382757929049951
42
0.27856269767602804
10
7.6000000000029075
20
16.947946274283719
0
LWPOLYLINE
5
101
100
AcDbEntity
8
0
100
AcDbPolyline
90
4
70
1
43
0.0
10
-2.3999999999975978
20
-19.525000000000574
42
0.99999999999999989
10
2.400000000002402
20
-19.525000000000574
10
2.4000000000024024
20
1.8250000000014144
42
0.99999999999999989
10
-2.3999999999975978
20
1.8250000000014133
0
LWPOLYLINE
5
102
100
AcDbEntity
8
0
100
AcDbPolyline
90
4
70
1
43
0.0
10
-2.3999999999980819
20
11.825000000001413
10
-2.3999999999975978
20
21.474999999999316
42
-0.99999999999999989
10
2.4000000000024024
20
21.474999999999316
10
2.4000000000028865
20
11.825000000001413
42
-0.99999999999999989
0
CIRCLE
5
103
100
AcDbEntity
8
0
100
AcDbCircle
10
2.4092651620902438e-12
20
6.8249999999994069
30
8.8817841970012523e-15
40
2.4000000000000004
210
-3.5676255032046811e-15
220
2.2204460492505024e-16
230
1
0
CIRCLE
5
104
100
AcDbEntity
8
0
100
AcDbCircle
10
2.4092651620902438e-12
20
-24.67500000000058
30
1.3322676295501878e-14
40
2.4000000000000004
210
-3.5676255032046803e-15
220
2.2204460492505024e-16
230
1
0
ENDSEC
0
SECTION
2
OBJECTS
0
DICTIONARY
5
C
100
AcDbDictionary
3
ACAD_GROUP
350
D
3
ACAD_MLINESTYLE
350
17
0
DICTIONARY
5
D
100
AcDbDictionary
0
DICTIONARY
5
1A
330
C
100
AcDbDictionary
0
DICTIONARY
5
17
100
AcDbDictionary
0
ENDSEC
0
EOF
