ISO-10303-21;
HEADER;
FILE_DESCRIPTION(('STEP AP242'),'1');
FILE_NAME('3003020.stp','2025-08-18T09:38:21',('TraceParts'),('TraceParts S.A.'),'Spatial InterOp 3D',' ',' ');
FILE_SCHEMA(('AP242_MANAGED_MODEL_BASED_3D_ENGINEERING_MIM_LF  {1 0 10303 442 1 1 4}'));
ENDSEC;
DATA;
#1=MECHANICAL_DESIGN_GEOMETRIC_PRESENTATION_REPRESENTATION(' ',(#10,#11,#12,#13,#14,#15,#16,#17,#18,#19,#20,#21,#22,#23,#24,#25,#26,#27,#28,#29,#30,#31,#32),#6);
#2=PRODUCT_DEFINITION_CONTEXT('',#33,'design');
#3=APPLICATION_PROTOCOL_DEFINITION('INTERNATIONAL STANDARD','ap242_managed_model_based_3d_engineering',2014,#33);
#4=PRODUCT_CATEGORY_RELATIONSHIP('NONE','NONE',#34,#35);
#5=SHAPE_DEFINITION_REPRESENTATION(#36,#37);
#6= (GEOMETRIC_REPRESENTATION_CONTEXT(3)GLOBAL_UNCERTAINTY_ASSIGNED_CONTEXT((#40))GLOBAL_UNIT_ASSIGNED_CONTEXT((#42,#43,#44))REPRESENTATION_CONTEXT('NONE','WORKSPACE'));
#10=STYLED_ITEM('',(#46),#47);
#11=STYLED_ITEM('',(#48),#49);
#12=STYLED_ITEM('',(#50),#51);
#13=STYLED_ITEM('',(#52),#53);
#14=STYLED_ITEM('',(#54),#55);
#15=STYLED_ITEM('',(#56),#57);
#16=STYLED_ITEM('',(#58),#59);
#17=STYLED_ITEM('',(#60),#61);
#18=STYLED_ITEM('',(#62),#63);
#19=STYLED_ITEM('',(#64),#65);
#20=STYLED_ITEM('',(#66),#67);
#21=STYLED_ITEM('',(#68),#69);
#22=STYLED_ITEM('',(#70),#71);
#23=STYLED_ITEM('',(#72),#73);
#24=STYLED_ITEM('',(#74),#75);
#25=STYLED_ITEM('',(#76),#77);
#26=STYLED_ITEM('',(#78),#79);
#27=STYLED_ITEM('',(#80),#81);
#28=STYLED_ITEM('',(#82),#83);
#29=STYLED_ITEM('',(#84),#85);
#30=STYLED_ITEM('',(#86),#87);
#31=STYLED_ITEM('',(#88),#89);
#32=STYLED_ITEM('',(#90),#91);
#33=APPLICATION_CONTEXT('managed model based 3d engineering');
#34=PRODUCT_CATEGORY('part','NONE');
#35=PRODUCT_RELATED_PRODUCT_CATEGORY('detail',' ',(#92));
#36=PRODUCT_DEFINITION_SHAPE('NONE','NONE',#93);
#37=ADVANCED_BREP_SHAPE_REPRESENTATION('D-UK4_10-select|1#D-UK4_10-select;D-UK4_10-select',(#91,#94),#6);
#40=UNCERTAINTY_MEASURE_WITH_UNIT(LENGTH_MEASURE(1.0E-06),#42,'','');
#42= (CONVERSION_BASED_UNIT('MILLIMETRE',#97)LENGTH_UNIT()NAMED_UNIT(#100));
#43= (NAMED_UNIT(#102)PLANE_ANGLE_UNIT()SI_UNIT($,.RADIAN.));
#44= (NAMED_UNIT(#102)SOLID_ANGLE_UNIT()SI_UNIT($,.STERADIAN.));
#46=PRESENTATION_STYLE_ASSIGNMENT((#108));
#47=ADVANCED_FACE('',(#109),#110,.T.);
#48=PRESENTATION_STYLE_ASSIGNMENT((#111));
#49=ADVANCED_FACE('',(#112),#113,.T.);
#50=PRESENTATION_STYLE_ASSIGNMENT((#114));
#51=ADVANCED_FACE('',(#115),#116,.T.);
#52=PRESENTATION_STYLE_ASSIGNMENT((#117));
#53=ADVANCED_FACE('',(#118),#119,.T.);
#54=PRESENTATION_STYLE_ASSIGNMENT((#120));
#55=ADVANCED_FACE('',(#121),#122,.T.);
#56=PRESENTATION_STYLE_ASSIGNMENT((#123));
#57=ADVANCED_FACE('',(#124),#125,.T.);
#58=PRESENTATION_STYLE_ASSIGNMENT((#126));
#59=ADVANCED_FACE('',(#127),#128,.T.);
#60=PRESENTATION_STYLE_ASSIGNMENT((#129));
#61=ADVANCED_FACE('',(#130),#131,.T.);
#62=PRESENTATION_STYLE_ASSIGNMENT((#132));
#63=ADVANCED_FACE('',(#133),#134,.T.);
#64=PRESENTATION_STYLE_ASSIGNMENT((#135));
#65=ADVANCED_FACE('',(#136),#137,.T.);
#66=PRESENTATION_STYLE_ASSIGNMENT((#138));
#67=ADVANCED_FACE('',(#139),#140,.T.);
#68=PRESENTATION_STYLE_ASSIGNMENT((#141));
#69=ADVANCED_FACE('',(#142),#143,.T.);
#70=PRESENTATION_STYLE_ASSIGNMENT((#144));
#71=ADVANCED_FACE('',(#145),#146,.T.);
#72=PRESENTATION_STYLE_ASSIGNMENT((#147));
#73=ADVANCED_FACE('',(#148),#149,.T.);
#74=PRESENTATION_STYLE_ASSIGNMENT((#150));
#75=ADVANCED_FACE('',(#151),#152,.T.);
#76=PRESENTATION_STYLE_ASSIGNMENT((#153));
#77=ADVANCED_FACE('',(#154),#155,.T.);
#78=PRESENTATION_STYLE_ASSIGNMENT((#156));
#79=ADVANCED_FACE('',(#157),#158,.T.);
#80=PRESENTATION_STYLE_ASSIGNMENT((#159));
#81=ADVANCED_FACE('',(#160),#161,.T.);
#82=PRESENTATION_STYLE_ASSIGNMENT((#162));
#83=ADVANCED_FACE('',(#163),#164,.T.);
#84=PRESENTATION_STYLE_ASSIGNMENT((#165));
#85=ADVANCED_FACE('',(#166),#167,.T.);
#86=PRESENTATION_STYLE_ASSIGNMENT((#168));
#87=ADVANCED_FACE('',(#169),#170,.T.);
#88=PRESENTATION_STYLE_ASSIGNMENT((#171));
#89=ADVANCED_FACE('',(#172),#173,.T.);
#90=PRESENTATION_STYLE_ASSIGNMENT((#174));
#91=MANIFOLD_SOLID_BREP('D-UK4_10-select|1#D-UK4_10-select;D-UK4_10-select',#175);
#92=PRODUCT('D-UK4_10-select|1#D-UK4_10-select;D-UK4_10-select','','PART--DESC',(#176));
#93=PRODUCT_DEFINITION('','NONE',#177,#2);
#94=AXIS2_PLACEMENT_3D('',#178,#179,#180);
#97=LENGTH_MEASURE_WITH_UNIT(LENGTH_MEASURE(1.0),#181);
#100=DIMENSIONAL_EXPONENTS(1.0,0.0,0.0,0.0,0.0,0.0,0.0);
#102=DIMENSIONAL_EXPONENTS(0.0,0.0,0.0,0.0,0.0,0.0,0.0);
#108=SURFACE_STYLE_USAGE(.BOTH.,#182);
#109=FACE_OUTER_BOUND('',#183,.T.);
#110=PLANE('',#184);
#111=SURFACE_STYLE_USAGE(.BOTH.,#185);
#112=FACE_OUTER_BOUND('',#186,.T.);
#113=PLANE('',#187);
#114=SURFACE_STYLE_USAGE(.BOTH.,#188);
#115=FACE_OUTER_BOUND('',#189,.T.);
#116=PLANE('',#190);
#117=SURFACE_STYLE_USAGE(.BOTH.,#191);
#118=FACE_OUTER_BOUND('',#192,.T.);
#119=PLANE('',#193);
#120=SURFACE_STYLE_USAGE(.BOTH.,#194);
#121=FACE_OUTER_BOUND('',#195,.T.);
#122=PLANE('',#196);
#123=SURFACE_STYLE_USAGE(.BOTH.,#197);
#124=FACE_OUTER_BOUND('',#198,.T.);
#125=PLANE('',#199);
#126=SURFACE_STYLE_USAGE(.BOTH.,#200);
#127=FACE_OUTER_BOUND('',#201,.T.);
#128=PLANE('',#202);
#129=SURFACE_STYLE_USAGE(.BOTH.,#203);
#130=FACE_OUTER_BOUND('',#204,.T.);
#131=PLANE('',#205);
#132=SURFACE_STYLE_USAGE(.BOTH.,#206);
#133=FACE_OUTER_BOUND('',#207,.T.);
#134=PLANE('',#208);
#135=SURFACE_STYLE_USAGE(.BOTH.,#209);
#136=FACE_OUTER_BOUND('',#210,.T.);
#137=PLANE('',#211);
#138=SURFACE_STYLE_USAGE(.BOTH.,#212);
#139=FACE_OUTER_BOUND('',#213,.T.);
#140=PLANE('',#214);
#141=SURFACE_STYLE_USAGE(.BOTH.,#215);
#142=FACE_OUTER_BOUND('',#216,.T.);
#143=PLANE('',#217);
#144=SURFACE_STYLE_USAGE(.BOTH.,#218);
#145=FACE_OUTER_BOUND('',#219,.T.);
#146=PLANE('',#220);
#147=SURFACE_STYLE_USAGE(.BOTH.,#221);
#148=FACE_OUTER_BOUND('',#222,.T.);
#149=PLANE('',#223);
#150=SURFACE_STYLE_USAGE(.BOTH.,#224);
#151=FACE_OUTER_BOUND('',#225,.T.);
#152=PLANE('',#226);
#153=SURFACE_STYLE_USAGE(.BOTH.,#227);
#154=FACE_OUTER_BOUND('',#228,.T.);
#155=PLANE('',#229);
#156=SURFACE_STYLE_USAGE(.BOTH.,#230);
#157=FACE_OUTER_BOUND('',#231,.T.);
#158=PLANE('',#232);
#159=SURFACE_STYLE_USAGE(.BOTH.,#233);
#160=FACE_OUTER_BOUND('',#234,.T.);
#161=PLANE('',#235);
#162=SURFACE_STYLE_USAGE(.BOTH.,#236);
#163=FACE_OUTER_BOUND('',#237,.T.);
#164=PLANE('',#238);
#165=SURFACE_STYLE_USAGE(.BOTH.,#239);
#166=FACE_OUTER_BOUND('',#240,.T.);
#167=PLANE('',#241);
#168=SURFACE_STYLE_USAGE(.BOTH.,#242);
#169=FACE_OUTER_BOUND('',#243,.T.);
#170=PLANE('',#244);
#171=SURFACE_STYLE_USAGE(.BOTH.,#245);
#172=FACE_OUTER_BOUND('',#246,.T.);
#173=PLANE('',#247);
#174=SURFACE_STYLE_USAGE(.BOTH.,#248);
#175=CLOSED_SHELL('',(#47,#49,#51,#53,#55,#57,#59,#61,#63,#65,#67,#69,#71,#73,#75,#77,#79,#81,#83,#85,#87,#89));
#176=PRODUCT_CONTEXT('',#33,'mechanical');
#177=PRODUCT_DEFINITION_FORMATION_WITH_SPECIFIED_SOURCE(' ','NONE',#92,.NOT_KNOWN.);
#178=CARTESIAN_POINT('',(0.0,0.0,0.0));
#179=DIRECTION('',(0.0,0.0,1.0));
#180=DIRECTION('',(1.0,0.0,0.0));
#181= (NAMED_UNIT(#100)LENGTH_UNIT()SI_UNIT(.MILLI.,.METRE.));
#182=SURFACE_SIDE_STYLE('',(#250));
#183=EDGE_LOOP('',(#251,#252,#253,#254));
#184=AXIS2_PLACEMENT_3D('',#255,#256,#257);
#185=SURFACE_SIDE_STYLE('',(#258));
#186=EDGE_LOOP('',(#259,#260,#261,#262));
#187=AXIS2_PLACEMENT_3D('',#263,#264,#265);
#188=SURFACE_SIDE_STYLE('',(#266));
#189=EDGE_LOOP('',(#267,#268,#269,#270));
#190=AXIS2_PLACEMENT_3D('',#271,#272,#273);
#191=SURFACE_SIDE_STYLE('',(#274));
#192=EDGE_LOOP('',(#275,#276,#277,#278));
#193=AXIS2_PLACEMENT_3D('',#279,#280,#281);
#194=SURFACE_SIDE_STYLE('',(#282));
#195=EDGE_LOOP('',(#283,#284,#285,#286));
#196=AXIS2_PLACEMENT_3D('',#287,#288,#289);
#197=SURFACE_SIDE_STYLE('',(#290));
#198=EDGE_LOOP('',(#291,#292,#293,#294));
#199=AXIS2_PLACEMENT_3D('',#295,#296,#297);
#200=SURFACE_SIDE_STYLE('',(#298));
#201=EDGE_LOOP('',(#299,#300,#301,#302));
#202=AXIS2_PLACEMENT_3D('',#303,#304,#305);
#203=SURFACE_SIDE_STYLE('',(#306));
#204=EDGE_LOOP('',(#307,#308,#309,#310));
#205=AXIS2_PLACEMENT_3D('',#311,#312,#313);
#206=SURFACE_SIDE_STYLE('',(#314));
#207=EDGE_LOOP('',(#315,#316,#317,#318));
#208=AXIS2_PLACEMENT_3D('',#319,#320,#321);
#209=SURFACE_SIDE_STYLE('',(#322));
#210=EDGE_LOOP('',(#323,#324,#325,#326));
#211=AXIS2_PLACEMENT_3D('',#327,#328,#329);
#212=SURFACE_SIDE_STYLE('',(#330));
#213=EDGE_LOOP('',(#331,#332,#333,#334));
#214=AXIS2_PLACEMENT_3D('',#335,#336,#337);
#215=SURFACE_SIDE_STYLE('',(#338));
#216=EDGE_LOOP('',(#339,#340,#341,#342));
#217=AXIS2_PLACEMENT_3D('',#343,#344,#345);
#218=SURFACE_SIDE_STYLE('',(#346));
#219=EDGE_LOOP('',(#347,#348,#349,#350));
#220=AXIS2_PLACEMENT_3D('',#351,#352,#353);
#221=SURFACE_SIDE_STYLE('',(#354));
#222=EDGE_LOOP('',(#355,#356,#357,#358));
#223=AXIS2_PLACEMENT_3D('',#359,#360,#361);
#224=SURFACE_SIDE_STYLE('',(#362));
#225=EDGE_LOOP('',(#363,#364,#365,#366));
#226=AXIS2_PLACEMENT_3D('',#367,#368,#369);
#227=SURFACE_SIDE_STYLE('',(#370));
#228=EDGE_LOOP('',(#371,#372,#373,#374));
#229=AXIS2_PLACEMENT_3D('',#375,#376,#377);
#230=SURFACE_SIDE_STYLE('',(#378));
#231=EDGE_LOOP('',(#379,#380,#381,#382));
#232=AXIS2_PLACEMENT_3D('',#383,#384,#385);
#233=SURFACE_SIDE_STYLE('',(#386));
#234=EDGE_LOOP('',(#387,#388,#389,#390));
#235=AXIS2_PLACEMENT_3D('',#391,#392,#393);
#236=SURFACE_SIDE_STYLE('',(#394));
#237=EDGE_LOOP('',(#395,#396,#397,#398));
#238=AXIS2_PLACEMENT_3D('',#399,#400,#401);
#239=SURFACE_SIDE_STYLE('',(#402));
#240=EDGE_LOOP('',(#403,#404,#405,#406));
#241=AXIS2_PLACEMENT_3D('',#407,#408,#409);
#242=SURFACE_SIDE_STYLE('',(#410));
#243=EDGE_LOOP('',(#411,#412,#413,#414,#415,#416,#417,#418,#419,#420,#421,#422,#423,#424,#425,#426,#427,#428,#429,#430));
#244=AXIS2_PLACEMENT_3D('',#431,#432,#433);
#245=SURFACE_SIDE_STYLE('',(#434));
#246=EDGE_LOOP('',(#435,#436,#437,#438,#439,#440,#441,#442,#443,#444,#445,#446,#447,#448,#449,#450,#451,#452,#453,#454));
#247=AXIS2_PLACEMENT_3D('',#455,#456,#457);
#248=SURFACE_SIDE_STYLE('',(#458));
#250=SURFACE_STYLE_FILL_AREA(#459);
#251=ORIENTED_EDGE('',*,*,#460,.F.);
#252=ORIENTED_EDGE('',*,*,#461,.F.);
#253=ORIENTED_EDGE('',*,*,#462,.T.);
#254=ORIENTED_EDGE('',*,*,#463,.F.);
#255=CARTESIAN_POINT('',(-1.8,41.7588190451026,25.74684942888));
#256=DIRECTION('',(4.69183549879878E-17,0.258819045102532,-0.965925826289065));
#257=DIRECTION('',(1.75101684622715E-16,0.965925826289065,0.258819045102532));
#258=SURFACE_STYLE_FILL_AREA(#464);
#259=ORIENTED_EDGE('',*,*,#465,.F.);
#260=ORIENTED_EDGE('',*,*,#466,.F.);
#261=ORIENTED_EDGE('',*,*,#467,.F.);
#262=ORIENTED_EDGE('',*,*,#468,.F.);
#263=CARTESIAN_POINT('',(-1.8,34.3500000000001,35.9));
#264=DIRECTION('',(1.2818332963473E-16,0.707106781186549,0.707106781186546));
#265=DIRECTION('',(-1.0,1.81278603239576E-16,0.0));
#266=SURFACE_STYLE_FILL_AREA(#469);
#267=ORIENTED_EDGE('',*,*,#470,.T.);
#268=ORIENTED_EDGE('',*,*,#471,.T.);
#269=ORIENTED_EDGE('',*,*,#472,.T.);
#270=ORIENTED_EDGE('',*,*,#473,.F.);
#271=CARTESIAN_POINT('',(-1.80000000000001,2.45000000000005,1.0));
#272=DIRECTION('',(-1.81278603239576E-16,-1.0,1.81278603239576E-16));
#273=DIRECTION('',(3.28619319924916E-32,1.81278603239576E-16,1.0));
#274=SURFACE_STYLE_FILL_AREA(#474);
#275=ORIENTED_EDGE('',*,*,#475,.F.);
#276=ORIENTED_EDGE('',*,*,#476,.F.);
#277=ORIENTED_EDGE('',*,*,#477,.T.);
#278=ORIENTED_EDGE('',*,*,#478,.F.);
#279=CARTESIAN_POINT('',(-1.80000000000001,3.25000000000004,5.76188021535199));
#280=DIRECTION('',(-1.81278603239576E-16,-1.0,1.81278603239576E-16));
#281=DIRECTION('',(3.28619319924916E-32,1.81278603239576E-16,1.0));
#282=SURFACE_STYLE_FILL_AREA(#479);
#283=ORIENTED_EDGE('',*,*,#480,.F.);
#284=ORIENTED_EDGE('',*,*,#481,.F.);
#285=ORIENTED_EDGE('',*,*,#482,.T.);
#286=ORIENTED_EDGE('',*,*,#483,.F.);
#287=CARTESIAN_POINT('',(-1.80000000000001,1.15000000000005,25.637306695895));
#288=DIRECTION('',(-4.69183549879879E-17,-0.258819045102532,-0.965925826289065));
#289=DIRECTION('',(1.0,-1.81278603239576E-16,0.0));
#290=SURFACE_STYLE_FILL_AREA(#484);
#291=ORIENTED_EDGE('',*,*,#485,.F.);
#292=ORIENTED_EDGE('',*,*,#486,.F.);
#293=ORIENTED_EDGE('',*,*,#487,.F.);
#294=ORIENTED_EDGE('',*,*,#488,.F.);
#295=CARTESIAN_POINT('',(-1.8,40.05,4.72264973080999));
#296=DIRECTION('',(1.81278603239576E-16,1.0,-1.81278603239576E-16));
#297=DIRECTION('',(-1.0,1.81278603239576E-16,0.0));
#298=SURFACE_STYLE_FILL_AREA(#489);
#299=ORIENTED_EDGE('',*,*,#490,.T.);
#300=ORIENTED_EDGE('',*,*,#491,.F.);
#301=ORIENTED_EDGE('',*,*,#480,.T.);
#302=ORIENTED_EDGE('',*,*,#492,.T.);
#303=CARTESIAN_POINT('',(-1.80000000000001,4.9737991503207E-14,26.712775255169));
#304=DIRECTION('',(-1.81278603239576E-16,-1.0,1.81278603239576E-16));
#305=DIRECTION('',(3.28619319924916E-32,1.81278603239576E-16,1.0));
#306=SURFACE_STYLE_FILL_AREA(#493);
#307=ORIENTED_EDGE('',*,*,#494,.F.);
#308=ORIENTED_EDGE('',*,*,#462,.F.);
#309=ORIENTED_EDGE('',*,*,#495,.T.);
#310=ORIENTED_EDGE('',*,*,#496,.T.);
#311=CARTESIAN_POINT('',(-1.8,41.3500000000001,25.637306695895));
#312=DIRECTION('',(1.56991875568032E-16,0.866025403784436,-0.500000000000005));
#313=DIRECTION('',(9.06393016197889E-17,0.500000000000005,0.866025403784436));
#314=SURFACE_STYLE_FILL_AREA(#497);
#315=ORIENTED_EDGE('',*,*,#498,.F.);
#316=ORIENTED_EDGE('',*,*,#499,.T.);
#317=ORIENTED_EDGE('',*,*,#500,.T.);
#318=ORIENTED_EDGE('',*,*,#501,.T.);
#319=CARTESIAN_POINT('',(-1.80000000000001,8.84444794437055,35.9));
#320=DIRECTION('',(1.78524573925558E-16,0.984807753012208,0.17364817766693));
#321=DIRECTION('',(-1.0,1.81278603239576E-16,0.0));
#322=SURFACE_STYLE_FILL_AREA(#502);
#323=ORIENTED_EDGE('',*,*,#503,.F.);
#324=ORIENTED_EDGE('',*,*,#504,.T.);
#325=ORIENTED_EDGE('',*,*,#505,.T.);
#326=ORIENTED_EDGE('',*,*,#468,.T.);
#327=CARTESIAN_POINT('',(-1.8,33.6555520556295,35.9));
#328=DIRECTION('',(3.28619319924916E-32,1.81278603239576E-16,1.0));
#329=DIRECTION('',(-1.81278603239576E-16,-1.0,1.81278603239576E-16));
#330=SURFACE_STYLE_FILL_AREA(#506);
#331=ORIENTED_EDGE('',*,*,#507,.F.);
#332=ORIENTED_EDGE('',*,*,#478,.T.);
#333=ORIENTED_EDGE('',*,*,#508,.T.);
#334=ORIENTED_EDGE('',*,*,#482,.F.);
#335=CARTESIAN_POINT('',(-1.80000000000001,3.25000000000004,22.0));
#336=DIRECTION('',(-1.56991875568032E-16,-0.866025403784436,-0.500000000000004));
#337=DIRECTION('',(1.0,-1.81278603239576E-16,0.0));
#338=SURFACE_STYLE_FILL_AREA(#509);
#339=ORIENTED_EDGE('',*,*,#470,.F.);
#340=ORIENTED_EDGE('',*,*,#510,.F.);
#341=ORIENTED_EDGE('',*,*,#487,.T.);
#342=ORIENTED_EDGE('',*,*,#511,.F.);
#343=CARTESIAN_POINT('',(-1.8,39.05,0.0));
#344=DIRECTION('',(-3.28619319924916E-32,-1.81278603239576E-16,-1.0));
#345=DIRECTION('',(1.0,-1.81278603239576E-16,0.0));
#346=SURFACE_STYLE_FILL_AREA(#512);
#347=ORIENTED_EDGE('',*,*,#513,.F.);
#348=ORIENTED_EDGE('',*,*,#501,.F.);
#349=ORIENTED_EDGE('',*,*,#514,.T.);
#350=ORIENTED_EDGE('',*,*,#515,.F.);
#351=CARTESIAN_POINT('',(-1.80000000000001,9.25000000000005,33.6));
#352=DIRECTION('',(3.28619319924916E-32,1.81278603239576E-16,1.0));
#353=DIRECTION('',(-1.81278603239576E-16,-1.0,1.81278603239576E-16));
#354=SURFACE_STYLE_FILL_AREA(#516);
#355=ORIENTED_EDGE('',*,*,#466,.T.);
#356=ORIENTED_EDGE('',*,*,#517,.T.);
#357=ORIENTED_EDGE('',*,*,#460,.T.);
#358=ORIENTED_EDGE('',*,*,#518,.F.);
#359=CARTESIAN_POINT('',(-1.8,42.5,27.542893218813));
#360=DIRECTION('',(1.81278603239576E-16,1.0,-1.81278603239576E-16));
#361=DIRECTION('',(-1.0,1.81278603239576E-16,0.0));
#362=SURFACE_STYLE_FILL_AREA(#519);
#363=ORIENTED_EDGE('',*,*,#472,.F.);
#364=ORIENTED_EDGE('',*,*,#520,.F.);
#365=ORIENTED_EDGE('',*,*,#476,.T.);
#366=ORIENTED_EDGE('',*,*,#521,.F.);
#367=CARTESIAN_POINT('',(-1.80000000000001,2.95000000000005,5.58867513459501));
#368=DIRECTION('',(-9.06393016197827E-17,-0.499999999999971,0.866025403784456));
#369=DIRECTION('',(1.0,-1.81278603239576E-16,1.06745872495906E-32));
#370=SURFACE_STYLE_FILL_AREA(#522);
#371=ORIENTED_EDGE('',*,*,#523,.F.);
#372=ORIENTED_EDGE('',*,*,#524,.T.);
#373=ORIENTED_EDGE('',*,*,#525,.T.);
#374=ORIENTED_EDGE('',*,*,#499,.F.);
#375=CARTESIAN_POINT('',(-1.80000000000001,8.15000000000006,35.9));
#376=DIRECTION('',(3.28619319924916E-32,1.81278603239576E-16,1.0));
#377=DIRECTION('',(-1.81278603239576E-16,-1.0,1.81278603239576E-16));
#378=SURFACE_STYLE_FILL_AREA(#526);
#379=ORIENTED_EDGE('',*,*,#527,.F.);
#380=ORIENTED_EDGE('',*,*,#515,.T.);
#381=ORIENTED_EDGE('',*,*,#528,.T.);
#382=ORIENTED_EDGE('',*,*,#504,.F.);
#383=CARTESIAN_POINT('',(-1.8,33.25,33.6));
#384=DIRECTION('',(-1.78524573925558E-16,-0.984807753012208,0.17364817766693));
#385=DIRECTION('',(1.0,-1.81278603239576E-16,0.0));
#386=SURFACE_STYLE_FILL_AREA(#529);
#387=ORIENTED_EDGE('',*,*,#530,.F.);
#388=ORIENTED_EDGE('',*,*,#496,.F.);
#389=ORIENTED_EDGE('',*,*,#531,.T.);
#390=ORIENTED_EDGE('',*,*,#532,.F.);
#391=CARTESIAN_POINT('',(-1.8,39.25,22.0));
#392=DIRECTION('',(1.81278603239576E-16,1.0,-1.81278603239576E-16));
#393=DIRECTION('',(-1.0,1.81278603239576E-16,0.0));
#394=SURFACE_STYLE_FILL_AREA(#533);
#395=ORIENTED_EDGE('',*,*,#534,.F.);
#396=ORIENTED_EDGE('',*,*,#490,.F.);
#397=ORIENTED_EDGE('',*,*,#535,.F.);
#398=ORIENTED_EDGE('',*,*,#524,.F.);
#399=CARTESIAN_POINT('',(-1.80000000000001,0.146446609406752,27.896446609407));
#400=DIRECTION('',(-1.2818332963473E-16,-0.707106781186549,0.707106781186546));
#401=DIRECTION('',(1.0,-1.81278603239576E-16,0.0));
#402=SURFACE_STYLE_FILL_AREA(#536);
#403=ORIENTED_EDGE('',*,*,#485,.T.);
#404=ORIENTED_EDGE('',*,*,#537,.F.);
#405=ORIENTED_EDGE('',*,*,#532,.T.);
#406=ORIENTED_EDGE('',*,*,#538,.F.);
#407=CARTESIAN_POINT('',(-1.8,39.25,5.76188021535199));
#408=DIRECTION('',(9.06393016197798E-17,0.499999999999955,0.866025403784465));
#409=DIRECTION('',(-1.0,1.81278603239576E-16,-1.06745872495907E-32));
#410=SURFACE_STYLE_FILL_AREA(#539);
#411=ORIENTED_EDGE('',*,*,#495,.F.);
#412=ORIENTED_EDGE('',*,*,#461,.T.);
#413=ORIENTED_EDGE('',*,*,#517,.F.);
#414=ORIENTED_EDGE('',*,*,#465,.T.);
#415=ORIENTED_EDGE('',*,*,#505,.F.);
#416=ORIENTED_EDGE('',*,*,#528,.F.);
#417=ORIENTED_EDGE('',*,*,#514,.F.);
#418=ORIENTED_EDGE('',*,*,#500,.F.);
#419=ORIENTED_EDGE('',*,*,#525,.F.);
#420=ORIENTED_EDGE('',*,*,#535,.T.);
#421=ORIENTED_EDGE('',*,*,#492,.F.);
#422=ORIENTED_EDGE('',*,*,#483,.T.);
#423=ORIENTED_EDGE('',*,*,#508,.F.);
#424=ORIENTED_EDGE('',*,*,#477,.F.);
#425=ORIENTED_EDGE('',*,*,#520,.T.);
#426=ORIENTED_EDGE('',*,*,#471,.F.);
#427=ORIENTED_EDGE('',*,*,#511,.T.);
#428=ORIENTED_EDGE('',*,*,#486,.T.);
#429=ORIENTED_EDGE('',*,*,#538,.T.);
#430=ORIENTED_EDGE('',*,*,#531,.F.);
#431=CARTESIAN_POINT('',(1.8,26.0556825655291,12.733908302824));
#432=DIRECTION('',(1.0,-1.81278603239576E-16,0.0));
#433=DIRECTION('',(-3.28619319924916E-32,-1.81278603239576E-16,-1.0));
#434=SURFACE_STYLE_FILL_AREA(#540);
#435=ORIENTED_EDGE('',*,*,#467,.T.);
#436=ORIENTED_EDGE('',*,*,#518,.T.);
#437=ORIENTED_EDGE('',*,*,#463,.T.);
#438=ORIENTED_EDGE('',*,*,#494,.T.);
#439=ORIENTED_EDGE('',*,*,#530,.T.);
#440=ORIENTED_EDGE('',*,*,#537,.T.);
#441=ORIENTED_EDGE('',*,*,#488,.T.);
#442=ORIENTED_EDGE('',*,*,#510,.T.);
#443=ORIENTED_EDGE('',*,*,#473,.T.);
#444=ORIENTED_EDGE('',*,*,#521,.T.);
#445=ORIENTED_EDGE('',*,*,#475,.T.);
#446=ORIENTED_EDGE('',*,*,#507,.T.);
#447=ORIENTED_EDGE('',*,*,#481,.T.);
#448=ORIENTED_EDGE('',*,*,#491,.T.);
#449=ORIENTED_EDGE('',*,*,#534,.T.);
#450=ORIENTED_EDGE('',*,*,#523,.T.);
#451=ORIENTED_EDGE('',*,*,#498,.T.);
#452=ORIENTED_EDGE('',*,*,#513,.T.);
#453=ORIENTED_EDGE('',*,*,#527,.T.);
#454=ORIENTED_EDGE('',*,*,#503,.T.);
#455=CARTESIAN_POINT('',(0.0,50.7943975377984,-228.608100844792));
#456=DIRECTION('',(-1.0,1.81278603239576E-16,0.0));
#457=DIRECTION('',(-1.81278603239576E-16,-1.0,1.81278603239576E-16));
#458=SURFACE_STYLE_FILL_AREA(#541);
#459=FILL_AREA_STYLE('',(#542));
#460=EDGE_CURVE('',#543,#544,#545,.T.);
#461=EDGE_CURVE('',#546,#543,#547,.T.);
#462=EDGE_CURVE('',#546,#548,#549,.T.);
#463=EDGE_CURVE('',#544,#548,#550,.T.);
#464=FILL_AREA_STYLE('',(#551));
#465=EDGE_CURVE('',#552,#553,#554,.T.);
#466=EDGE_CURVE('',#555,#552,#556,.T.);
#467=EDGE_CURVE('',#557,#555,#558,.T.);
#468=EDGE_CURVE('',#553,#557,#559,.T.);
#469=FILL_AREA_STYLE('',(#560));
#470=EDGE_CURVE('',#561,#562,#563,.T.);
#471=EDGE_CURVE('',#562,#564,#565,.T.);
#472=EDGE_CURVE('',#564,#566,#567,.T.);
#473=EDGE_CURVE('',#561,#566,#568,.T.);
#474=FILL_AREA_STYLE('',(#569));
#475=EDGE_CURVE('',#570,#571,#572,.T.);
#476=EDGE_CURVE('',#573,#570,#574,.T.);
#477=EDGE_CURVE('',#573,#575,#576,.T.);
#478=EDGE_CURVE('',#571,#575,#577,.T.);
#479=FILL_AREA_STYLE('',(#578));
#480=EDGE_CURVE('',#579,#580,#581,.T.);
#481=EDGE_CURVE('',#582,#579,#583,.T.);
#482=EDGE_CURVE('',#582,#584,#585,.T.);
#483=EDGE_CURVE('',#580,#584,#586,.T.);
#484=FILL_AREA_STYLE('',(#587));
#485=EDGE_CURVE('',#588,#589,#590,.T.);
#486=EDGE_CURVE('',#591,#588,#592,.T.);
#487=EDGE_CURVE('',#593,#591,#594,.T.);
#488=EDGE_CURVE('',#589,#593,#595,.T.);
#489=FILL_AREA_STYLE('',(#596));
#490=EDGE_CURVE('',#597,#598,#599,.T.);
#491=EDGE_CURVE('',#579,#598,#600,.T.);
#492=EDGE_CURVE('',#580,#597,#601,.T.);
#493=FILL_AREA_STYLE('',(#602));
#494=EDGE_CURVE('',#548,#603,#604,.T.);
#495=EDGE_CURVE('',#546,#605,#606,.T.);
#496=EDGE_CURVE('',#605,#603,#607,.T.);
#497=FILL_AREA_STYLE('',(#608));
#498=EDGE_CURVE('',#609,#610,#611,.T.);
#499=EDGE_CURVE('',#609,#612,#613,.T.);
#500=EDGE_CURVE('',#612,#614,#615,.T.);
#501=EDGE_CURVE('',#614,#610,#616,.T.);
#502=FILL_AREA_STYLE('',(#617));
#503=EDGE_CURVE('',#618,#557,#619,.T.);
#504=EDGE_CURVE('',#618,#620,#621,.T.);
#505=EDGE_CURVE('',#620,#553,#622,.T.);
#506=FILL_AREA_STYLE('',(#623));
#507=EDGE_CURVE('',#571,#582,#624,.T.);
#508=EDGE_CURVE('',#575,#584,#625,.T.);
#509=FILL_AREA_STYLE('',(#626));
#510=EDGE_CURVE('',#593,#561,#627,.T.);
#511=EDGE_CURVE('',#562,#591,#628,.T.);
#512=FILL_AREA_STYLE('',(#629));
#513=EDGE_CURVE('',#610,#630,#631,.T.);
#514=EDGE_CURVE('',#614,#632,#633,.T.);
#515=EDGE_CURVE('',#630,#632,#634,.T.);
#516=FILL_AREA_STYLE('',(#635));
#517=EDGE_CURVE('',#552,#543,#636,.T.);
#518=EDGE_CURVE('',#555,#544,#637,.T.);
#519=FILL_AREA_STYLE('',(#638));
#520=EDGE_CURVE('',#573,#564,#639,.T.);
#521=EDGE_CURVE('',#566,#570,#640,.T.);
#522=FILL_AREA_STYLE('',(#641));
#523=EDGE_CURVE('',#642,#609,#643,.T.);
#524=EDGE_CURVE('',#642,#644,#645,.T.);
#525=EDGE_CURVE('',#644,#612,#646,.T.);
#526=FILL_AREA_STYLE('',(#647));
#527=EDGE_CURVE('',#630,#618,#648,.T.);
#528=EDGE_CURVE('',#632,#620,#649,.T.);
#529=FILL_AREA_STYLE('',(#650));
#530=EDGE_CURVE('',#603,#651,#652,.T.);
#531=EDGE_CURVE('',#605,#653,#654,.T.);
#532=EDGE_CURVE('',#651,#653,#655,.T.);
#533=FILL_AREA_STYLE('',(#656));
#534=EDGE_CURVE('',#598,#642,#657,.T.);
#535=EDGE_CURVE('',#644,#597,#658,.T.);
#536=FILL_AREA_STYLE('',(#659));
#537=EDGE_CURVE('',#651,#589,#660,.T.);
#538=EDGE_CURVE('',#588,#653,#661,.T.);
#539=FILL_AREA_STYLE('',(#662));
#540=FILL_AREA_STYLE('',(#663));
#541=FILL_AREA_STYLE('',(#664));
#542=FILL_AREA_STYLE_COLOUR('',#665);
#543=VERTEX_POINT('',#666);
#544=VERTEX_POINT('',#667);
#545=LINE('',#668,#669);
#546=VERTEX_POINT('',#670);
#547=LINE('',#671,#672);
#548=VERTEX_POINT('',#673);
#549=LINE('',#674,#675);
#550=LINE('',#676,#677);
#551=FILL_AREA_STYLE_COLOUR('',#678);
#552=VERTEX_POINT('',#679);
#553=VERTEX_POINT('',#680);
#554=LINE('',#681,#682);
#555=VERTEX_POINT('',#683);
#556=LINE('',#684,#685);
#557=VERTEX_POINT('',#686);
#558=LINE('',#687,#688);
#559=LINE('',#689,#690);
#560=FILL_AREA_STYLE_COLOUR('',#691);
#561=VERTEX_POINT('',#692);
#562=VERTEX_POINT('',#693);
#563=LINE('',#694,#695);
#564=VERTEX_POINT('',#696);
#565=LINE('',#697,#698);
#566=VERTEX_POINT('',#699);
#567=LINE('',#700,#701);
#568=LINE('',#702,#703);
#569=FILL_AREA_STYLE_COLOUR('',#704);
#570=VERTEX_POINT('',#705);
#571=VERTEX_POINT('',#706);
#572=LINE('',#707,#708);
#573=VERTEX_POINT('',#709);
#574=LINE('',#710,#711);
#575=VERTEX_POINT('',#712);
#576=LINE('',#713,#714);
#577=LINE('',#715,#716);
#578=FILL_AREA_STYLE_COLOUR('',#717);
#579=VERTEX_POINT('',#718);
#580=VERTEX_POINT('',#719);
#581=LINE('',#720,#721);
#582=VERTEX_POINT('',#722);
#583=LINE('',#723,#724);
#584=VERTEX_POINT('',#725);
#585=LINE('',#726,#727);
#586=LINE('',#728,#729);
#587=FILL_AREA_STYLE_COLOUR('',#730);
#588=VERTEX_POINT('',#731);
#589=VERTEX_POINT('',#732);
#590=LINE('',#733,#734);
#591=VERTEX_POINT('',#735);
#592=LINE('',#736,#737);
#593=VERTEX_POINT('',#738);
#594=LINE('',#739,#740);
#595=LINE('',#741,#742);
#596=FILL_AREA_STYLE_COLOUR('',#743);
#597=VERTEX_POINT('',#744);
#598=VERTEX_POINT('',#745);
#599=LINE('',#746,#747);
#600=LINE('',#748,#749);
#601=LINE('',#750,#751);
#602=FILL_AREA_STYLE_COLOUR('',#752);
#603=VERTEX_POINT('',#753);
#604=LINE('',#754,#755);
#605=VERTEX_POINT('',#756);
#606=LINE('',#757,#758);
#607=LINE('',#759,#760);
#608=FILL_AREA_STYLE_COLOUR('',#761);
#609=VERTEX_POINT('',#762);
#610=VERTEX_POINT('',#763);
#611=LINE('',#764,#765);
#612=VERTEX_POINT('',#766);
#613=LINE('',#767,#768);
#614=VERTEX_POINT('',#769);
#615=LINE('',#770,#771);
#616=LINE('',#772,#773);
#617=FILL_AREA_STYLE_COLOUR('',#774);
#618=VERTEX_POINT('',#775);
#619=LINE('',#776,#777);
#620=VERTEX_POINT('',#778);
#621=LINE('',#779,#780);
#622=LINE('',#781,#782);
#623=FILL_AREA_STYLE_COLOUR('',#783);
#624=LINE('',#784,#785);
#625=LINE('',#786,#787);
#626=FILL_AREA_STYLE_COLOUR('',#788);
#627=LINE('',#789,#790);
#628=LINE('',#791,#792);
#629=FILL_AREA_STYLE_COLOUR('',#793);
#630=VERTEX_POINT('',#794);
#631=LINE('',#795,#796);
#632=VERTEX_POINT('',#797);
#633=LINE('',#798,#799);
#634=LINE('',#800,#801);
#635=FILL_AREA_STYLE_COLOUR('',#802);
#636=LINE('',#803,#804);
#637=LINE('',#805,#806);
#638=FILL_AREA_STYLE_COLOUR('',#807);
#639=LINE('',#808,#809);
#640=LINE('',#810,#811);
#641=FILL_AREA_STYLE_COLOUR('',#812);
#642=VERTEX_POINT('',#813);
#643=LINE('',#814,#815);
#644=VERTEX_POINT('',#816);
#645=LINE('',#817,#818);
#646=LINE('',#819,#820);
#647=FILL_AREA_STYLE_COLOUR('',#821);
#648=LINE('',#822,#823);
#649=LINE('',#824,#825);
#650=FILL_AREA_STYLE_COLOUR('',#826);
#651=VERTEX_POINT('',#827);
#652=LINE('',#828,#829);
#653=VERTEX_POINT('',#830);
#654=LINE('',#831,#832);
#655=LINE('',#833,#834);
#656=FILL_AREA_STYLE_COLOUR('',#835);
#657=LINE('',#836,#837);
#658=LINE('',#838,#839);
#659=FILL_AREA_STYLE_COLOUR('',#840);
#660=LINE('',#841,#842);
#661=LINE('',#843,#844);
#662=FILL_AREA_STYLE_COLOUR('',#845);
#663=FILL_AREA_STYLE_COLOUR('',#846);
#664=FILL_AREA_STYLE_COLOUR('',#847);
#665=COLOUR_RGB('',0.560784339904785,0.588235318660736,0.600000023841858);
#666=CARTESIAN_POINT('',(1.8,42.5,25.94544826719));
#667=CARTESIAN_POINT('',(-1.55431223447522E-15,42.5,25.94544826719));
#668=CARTESIAN_POINT('',(-1.8,42.5,25.94544826719));
#669=VECTOR('',#848,1.0);
#670=CARTESIAN_POINT('',(1.8,41.3500000000001,25.637306695895));
#671=CARTESIAN_POINT('',(1.8,50.7943975377984,28.167925389146));
#672=VECTOR('',#849,1.0);
#673=CARTESIAN_POINT('',(-1.77635683940025E-15,41.3500000000001,25.637306695895));
#674=CARTESIAN_POINT('',(-1.8,41.3500000000001,25.637306695895));
#675=VECTOR('',#850,1.0);
#676=CARTESIAN_POINT('',(0.0,50.7943975377985,28.167925389146));
#677=VECTOR('',#851,1.0);
#678=COLOUR_RGB('',0.560784339904785,0.588235318660736,0.600000023841858);
#679=CARTESIAN_POINT('',(1.8,42.5,27.75));
#680=CARTESIAN_POINT('',(1.8,34.3500000000001,35.9));
#681=CARTESIAN_POINT('',(1.80000000000004,298.85810084479,-228.608100844792));
#682=VECTOR('',#852,1.0);
#683=CARTESIAN_POINT('',(-1.55431223447522E-15,42.5,27.75));
#684=CARTESIAN_POINT('',(-1.8,42.5,27.75));
#685=VECTOR('',#853,1.0);
#686=CARTESIAN_POINT('',(-2.88657986402541E-15,34.3500000000001,35.9));
#687=CARTESIAN_POINT('',(4.50750547997814E-14,298.85810084479,-228.608100844792));
#688=VECTOR('',#854,1.0);
#689=CARTESIAN_POINT('',(-1.8,34.3500000000001,35.9));
#690=VECTOR('',#855,1.0);
#691=COLOUR_RGB('',0.560784339904785,0.588235318660736,0.600000023841858);
#692=CARTESIAN_POINT('',(-8.65973959207622E-15,2.45000000000005,0.0));
#693=CARTESIAN_POINT('',(1.79999999999999,2.45000000000005,0.0));
#694=CARTESIAN_POINT('',(-1.80000000000001,2.45000000000005,0.0));
#695=VECTOR('',#856,1.0);
#696=CARTESIAN_POINT('',(1.79999999999999,2.45000000000005,5.29999999999998));
#697=CARTESIAN_POINT('',(1.79999999999999,2.45,-228.608100844792));
#698=VECTOR('',#857,1.0);
#699=CARTESIAN_POINT('',(-8.65973959207622E-15,2.45000000000005,5.29999999999998));
#700=CARTESIAN_POINT('',(-1.80000000000001,2.45000000000005,5.29999999999998));
#701=VECTOR('',#858,1.0);
#702=CARTESIAN_POINT('',(-8.65973959207622E-15,2.45,-228.608100844792));
#703=VECTOR('',#859,1.0);
#704=COLOUR_RGB('',0.560784339904785,0.588235318660736,0.600000023841858);
#705=CARTESIAN_POINT('',(-8.65973959207622E-15,3.25000000000004,5.76188021535199));
#706=CARTESIAN_POINT('',(-8.65973959207622E-15,3.25000000000004,22.0));
#707=CARTESIAN_POINT('',(-8.65973959207622E-15,3.25,-228.608100844792));
#708=VECTOR('',#860,1.0);
#709=CARTESIAN_POINT('',(1.79999999999999,3.25000000000004,5.76188021535199));
#710=CARTESIAN_POINT('',(-1.80000000000001,3.25000000000004,5.76188021535199));
#711=VECTOR('',#861,1.0);
#712=CARTESIAN_POINT('',(1.79999999999999,3.25000000000004,22.0));
#713=CARTESIAN_POINT('',(1.79999999999999,3.25,-228.608100844792));
#714=VECTOR('',#862,1.0);
#715=CARTESIAN_POINT('',(-1.80000000000001,3.25000000000004,22.0));
#716=VECTOR('',#863,1.0);
#717=COLOUR_RGB('',0.560784339904785,0.588235318660736,0.600000023841858);
#718=CARTESIAN_POINT('',(-9.10382880192628E-15,4.2632564145606E-14,25.94544826719));
#719=CARTESIAN_POINT('',(1.79999999999999,4.2632564145606E-14,25.94544826719));
#720=CARTESIAN_POINT('',(-1.80000000000001,4.2632564145606E-14,25.94544826719));
#721=VECTOR('',#864,1.0);
#722=CARTESIAN_POINT('',(-9.10382880192628E-15,1.15000000000005,25.637306695895));
#723=CARTESIAN_POINT('',(0.0,50.7943975377984,12.335130466911));
#724=VECTOR('',#865,1.0);
#725=CARTESIAN_POINT('',(1.79999999999999,1.15000000000005,25.637306695895));
#726=CARTESIAN_POINT('',(-1.80000000000001,1.15000000000005,25.637306695895));
#727=VECTOR('',#866,1.0);
#728=CARTESIAN_POINT('',(1.8,50.7943975377984,12.335130466911));
#729=VECTOR('',#867,1.0);
#730=COLOUR_RGB('',0.560784339904785,0.588235318660736,0.600000023841858);
#731=CARTESIAN_POINT('',(1.8,40.05,5.29999999999998));
#732=CARTESIAN_POINT('',(-1.99840144432528E-15,40.05,5.29999999999998));
#733=CARTESIAN_POINT('',(-1.8,40.05,5.29999999999998));
#734=VECTOR('',#868,1.0);
#735=CARTESIAN_POINT('',(1.8,40.05,0.0));
#736=CARTESIAN_POINT('',(1.8,40.05,-228.608100844792));
#737=VECTOR('',#869,1.0);
#738=CARTESIAN_POINT('',(-1.99840144432528E-15,40.05,0.0));
#739=CARTESIAN_POINT('',(-1.8,40.05,0.0));
#740=VECTOR('',#870,1.0);
#741=CARTESIAN_POINT('',(-1.99840144432528E-15,40.05,-228.608100844792));
#742=VECTOR('',#871,1.0);
#743=COLOUR_RGB('',0.560784339904785,0.588235318660736,0.600000023841858);
#744=CARTESIAN_POINT('',(1.79999999999999,4.9737991503207E-14,27.75));
#745=CARTESIAN_POINT('',(-9.10382880192628E-15,4.9737991503207E-14,27.75));
#746=CARTESIAN_POINT('',(-1.80000000000001,4.9737991503207E-14,27.75));
#747=VECTOR('',#872,1.0);
#748=CARTESIAN_POINT('',(-9.10382880192628E-15,0.0,-228.608100844792));
#749=VECTOR('',#873,1.0);
#750=CARTESIAN_POINT('',(1.79999999999999,0.0,-228.608100844792));
#751=VECTOR('',#874,1.0);
#752=COLOUR_RGB('',0.560784339904785,0.588235318660736,0.600000023841858);
#753=CARTESIAN_POINT('',(-1.99840144432528E-15,39.25,22.0));
#754=CARTESIAN_POINT('',(-2.8421709430404E-14,-105.438654483844,-228.608100844792));
#755=VECTOR('',#875,1.0);
#756=CARTESIAN_POINT('',(1.8,39.25,22.0));
#757=CARTESIAN_POINT('',(1.79999999999997,-105.438654483844,-228.608100844792));
#758=VECTOR('',#876,1.0);
#759=CARTESIAN_POINT('',(-1.8,39.25,22.0));
#760=VECTOR('',#877,1.0);
#761=COLOUR_RGB('',0.560784339904785,0.588235318660736,0.600000023841858);
#762=CARTESIAN_POINT('',(-7.54951656745106E-15,8.84444794437055,35.9));
#763=CARTESIAN_POINT('',(-7.54951656745106E-15,9.25000000000005,33.6));
#764=CARTESIAN_POINT('',(8.88178419700125E-16,55.4843627392628,-228.608100844792));
#765=VECTOR('',#878,1.0);
#766=CARTESIAN_POINT('',(1.79999999999999,8.84444794437055,35.9));
#767=CARTESIAN_POINT('',(-1.80000000000001,8.84444794437055,35.9));
#768=VECTOR('',#879,1.0);
#769=CARTESIAN_POINT('',(1.79999999999999,9.25000000000005,33.6));
#770=CARTESIAN_POINT('',(1.8,55.4843627392628,-228.608100844792));
#771=VECTOR('',#880,1.0);
#772=CARTESIAN_POINT('',(-1.80000000000001,9.25000000000005,33.6));
#773=VECTOR('',#881,1.0);
#774=COLOUR_RGB('',0.560784339904785,0.588235318660736,0.600000023841858);
#775=CARTESIAN_POINT('',(-3.10862446895044E-15,33.6555520556295,35.9));
#776=CARTESIAN_POINT('',(0.0,50.7943975377985,35.9));
#777=VECTOR('',#882,1.0);
#778=CARTESIAN_POINT('',(1.8,33.6555520556295,35.9));
#779=CARTESIAN_POINT('',(-1.8,33.6555520556295,35.9));
#780=VECTOR('',#883,1.0);
#781=CARTESIAN_POINT('',(1.8,50.7943975377985,35.9));
#782=VECTOR('',#884,1.0);
#783=COLOUR_RGB('',0.560784339904785,0.588235318660736,0.600000023841858);
#784=CARTESIAN_POINT('',(1.75415237890775E-14,147.938654483843,-228.608100844792));
#785=VECTOR('',#885,1.0);
#786=CARTESIAN_POINT('',(1.80000000000002,147.938654483843,-228.608100844792));
#787=VECTOR('',#886,1.0);
#788=COLOUR_RGB('',0.560784339904785,0.588235318660736,0.600000023841858);
#789=CARTESIAN_POINT('',(0.0,50.7943975377984,0.0));
#790=VECTOR('',#887,1.0);
#791=CARTESIAN_POINT('',(1.8,50.7943975377984,0.0));
#792=VECTOR('',#888,1.0);
#793=COLOUR_RGB('',0.560784339904785,0.588235318660736,0.600000023841858);
#794=CARTESIAN_POINT('',(-3.10862446895044E-15,33.25,33.6));
#795=CARTESIAN_POINT('',(0.0,50.7943975377985,33.6));
#796=VECTOR('',#889,1.0);
#797=CARTESIAN_POINT('',(1.8,33.25,33.6));
#798=CARTESIAN_POINT('',(1.8,50.7943975377985,33.6));
#799=VECTOR('',#890,1.0);
#800=CARTESIAN_POINT('',(-1.8,33.25,33.6));
#801=VECTOR('',#891,1.0);
#802=COLOUR_RGB('',0.560784339904785,0.588235318660736,0.600000023841858);
#803=CARTESIAN_POINT('',(1.8,42.5,-228.608100844792));
#804=VECTOR('',#892,1.0);
#805=CARTESIAN_POINT('',(-1.55431223447522E-15,42.5,-228.608100844792));
#806=VECTOR('',#893,1.0);
#807=COLOUR_RGB('',0.560784339904785,0.588235318660736,0.600000023841858);
#808=CARTESIAN_POINT('',(1.8,50.7943975377985,33.211650932256));
#809=VECTOR('',#894,1.0);
#810=CARTESIAN_POINT('',(0.0,50.7943975377985,33.211650932256));
#811=VECTOR('',#895,1.0);
#812=COLOUR_RGB('',0.560784339904785,0.588235318660736,0.600000023841858);
#813=CARTESIAN_POINT('',(-7.7715611723761E-15,8.15000000000015,35.9));
#814=CARTESIAN_POINT('',(0.0,50.7943975377985,35.9));
#815=VECTOR('',#896,1.0);
#816=CARTESIAN_POINT('',(1.79999999999999,8.15000000000015,35.9));
#817=CARTESIAN_POINT('',(-1.80000000000001,8.15000000000006,35.9));
#818=VECTOR('',#897,1.0);
#819=CARTESIAN_POINT('',(1.8,50.7943975377985,35.9));
#820=VECTOR('',#898,1.0);
#821=COLOUR_RGB('',0.560784339904785,0.588235318660736,0.600000023841858);
#822=CARTESIAN_POINT('',(-1.15463194561016E-14,-12.9843627392628,-228.608100844792));
#823=VECTOR('',#899,1.0);
#824=CARTESIAN_POINT('',(1.79999999999999,-12.9843627392628,-228.608100844792));
#825=VECTOR('',#900,1.0);
#826=COLOUR_RGB('',0.560784339904785,0.588235318660736,0.600000023841858);
#827=CARTESIAN_POINT('',(-1.99840144432528E-15,39.25,5.76188021535199));
#828=CARTESIAN_POINT('',(-1.99840144432528E-15,39.25,-228.608100844792));
#829=VECTOR('',#901,1.0);
#830=CARTESIAN_POINT('',(1.8,39.25,5.76188021535199));
#831=CARTESIAN_POINT('',(1.8,39.25,-228.608100844792));
#832=VECTOR('',#902,1.0);
#833=CARTESIAN_POINT('',(-1.8,39.25,5.76188021535199));
#834=VECTOR('',#903,1.0);
#835=COLOUR_RGB('',0.560784339904785,0.588235318660736,0.600000023841858);
#836=CARTESIAN_POINT('',(-5.57331958361829E-14,-256.358100844791,-228.608100844792));
#837=VECTOR('',#904,1.0);
#838=CARTESIAN_POINT('',(1.79999999999994,-256.358100844791,-228.608100844792));
#839=VECTOR('',#905,1.0);
#840=COLOUR_RGB('',0.560784339904785,0.588235318660736,0.600000023841858);
#841=CARTESIAN_POINT('',(0.0,50.7943975377984,-0.903280810727011));
#842=VECTOR('',#906,1.0);
#843=CARTESIAN_POINT('',(1.8,50.7943975377984,-0.903280810727011));
#844=VECTOR('',#907,1.0);
#845=COLOUR_RGB('',0.560784339904785,0.588235318660736,0.600000023841858);
#846=COLOUR_RGB('',0.560784339904785,0.588235318660736,0.600000023841858);
#847=COLOUR_RGB('',0.560784339904785,0.588235318660736,0.600000023841858);
#848=DIRECTION('',(-1.0,1.81278603239576E-16,0.0));
#849=DIRECTION('',(1.75101684622715E-16,0.965925826289065,0.258819045102532));
#850=DIRECTION('',(-1.0,1.81278603239576E-16,0.0));
#851=DIRECTION('',(-1.75101684622715E-16,-0.965925826289065,-0.258819045102532));
#852=DIRECTION('',(-1.2818332963473E-16,-0.707106781186546,0.707106781186549));
#853=DIRECTION('',(1.0,-1.81278603239576E-16,0.0));
#854=DIRECTION('',(1.2818332963473E-16,0.707106781186546,-0.707106781186549));
#855=DIRECTION('',(-1.0,1.81278603239576E-16,0.0));
#856=DIRECTION('',(1.0,-1.81278603239576E-16,0.0));
#857=DIRECTION('',(3.28619319924916E-32,1.81278603239576E-16,1.0));
#858=DIRECTION('',(-1.0,1.81278603239576E-16,0.0));
#859=DIRECTION('',(3.28619319924916E-32,1.81278603239576E-16,1.0));
#860=DIRECTION('',(3.28619319924916E-32,1.81278603239576E-16,1.0));
#861=DIRECTION('',(-1.0,1.81278603239576E-16,0.0));
#862=DIRECTION('',(3.28619319924916E-32,1.81278603239576E-16,1.0));
#863=DIRECTION('',(1.0,-1.81278603239576E-16,0.0));
#864=DIRECTION('',(1.0,-1.81278603239576E-16,0.0));
#865=DIRECTION('',(-1.75101684622715E-16,-0.965925826289065,0.258819045102532));
#866=DIRECTION('',(1.0,-1.81278603239576E-16,0.0));
#867=DIRECTION('',(1.75101684622715E-16,0.965925826289065,-0.258819045102532));
#868=DIRECTION('',(-1.0,1.81278603239576E-16,0.0));
#869=DIRECTION('',(3.28619319924916E-32,1.81278603239576E-16,1.0));
#870=DIRECTION('',(1.0,-1.81278603239576E-16,0.0));
#871=DIRECTION('',(-3.28619319924916E-32,-1.81278603239576E-16,-1.0));
#872=DIRECTION('',(-1.0,1.81278603239576E-16,0.0));
#873=DIRECTION('',(3.28619319924916E-32,1.81278603239576E-16,1.0));
#874=DIRECTION('',(3.28619319924916E-32,1.81278603239576E-16,1.0));
#875=DIRECTION('',(-9.06393016197889E-17,-0.500000000000005,-0.866025403784436));
#876=DIRECTION('',(-9.06393016197889E-17,-0.500000000000005,-0.866025403784436));
#877=DIRECTION('',(-1.0,1.81278603239576E-16,0.0));
#878=DIRECTION('',(3.14786991025588E-17,0.17364817766693,-0.984807753012208));
#879=DIRECTION('',(1.0,-1.81278603239576E-16,0.0));
#880=DIRECTION('',(3.14786991025588E-17,0.17364817766693,-0.984807753012208));
#881=DIRECTION('',(-1.0,1.81278603239576E-16,0.0));
#882=DIRECTION('',(1.81278603239576E-16,1.0,-1.81278603239576E-16));
#883=DIRECTION('',(1.0,-1.81278603239576E-16,0.0));
#884=DIRECTION('',(1.81278603239576E-16,1.0,-1.81278603239576E-16));
#885=DIRECTION('',(-9.06393016197887E-17,-0.500000000000004,0.866025403784437));
#886=DIRECTION('',(-9.06393016197887E-17,-0.500000000000004,0.866025403784437));
#887=DIRECTION('',(-1.81278603239576E-16,-1.0,1.81278603239576E-16));
#888=DIRECTION('',(1.81278603239576E-16,1.0,-1.81278603239576E-16));
#889=DIRECTION('',(1.81278603239576E-16,1.0,-1.81278603239576E-16));
#890=DIRECTION('',(1.81278603239576E-16,1.0,-1.81278603239576E-16));
#891=DIRECTION('',(1.0,-1.81278603239576E-16,0.0));
#892=DIRECTION('',(-3.28619319924916E-32,-1.81278603239576E-16,-1.0));
#893=DIRECTION('',(-3.28619319924916E-32,-1.81278603239576E-16,-1.0));
#894=DIRECTION('',(-1.56991875568036E-16,-0.866025403784456,-0.499999999999971));
#895=DIRECTION('',(1.56991875568036E-16,0.866025403784456,0.499999999999971));
#896=DIRECTION('',(1.81278603239576E-16,1.0,-1.81278603239576E-16));
#897=DIRECTION('',(1.0,-1.81278603239576E-16,0.0));
#898=DIRECTION('',(1.81278603239576E-16,1.0,-1.81278603239576E-16));
#899=DIRECTION('',(3.14786991025588E-17,0.17364817766693,0.984807753012208));
#900=DIRECTION('',(3.14786991025588E-17,0.17364817766693,0.984807753012208));
#901=DIRECTION('',(-3.28619319924916E-32,-1.81278603239576E-16,-1.0));
#902=DIRECTION('',(-3.28619319924916E-32,-1.81278603239576E-16,-1.0));
#903=DIRECTION('',(1.0,-1.81278603239576E-16,0.0));
#904=DIRECTION('',(1.2818332963473E-16,0.707106781186546,0.707106781186549));
#905=DIRECTION('',(-1.2818332963473E-16,-0.707106781186546,-0.707106781186549));
#906=DIRECTION('',(1.56991875568038E-16,0.866025403784465,-0.499999999999955));
#907=DIRECTION('',(-1.56991875568038E-16,-0.866025403784465,0.499999999999955));
#908=PRESENTATION_LAYER_ASSIGNMENT('','',(#47,#49,#51,#53,#55,#57,#59,#61,#63,#65,#67,#69,#71,#73,#75,#77,#79,#81,#83,#85,#87,#89,#91,#460,#461,#462,#463,#465,#466,#467,#468,#470,#471,#472,#473,#475,#476,#477,#478,#480,#481,#482,#483,#485,#486,#487,#488,#490,#491,#492,#494,#495,#496,#498,#499,#500,#501,#503,#504,#505,#507,#508,#510,#511,#513,#514,#515,#517,#518,#520,#521,#523,#524,#525,#527,#528,#530,#531,#532,#534,#535,#537,#538,#543,#544,#546,#548,#552,#553,#555,#557,#561,#562,#564,#566,#570,#571,#573,#575,#579,#580,#582,#584,#588,#589,#591,#593,#597,#598,#603,#605,#609,#610,#612,#614,#618,#620,#630,#632,#642,#644,#651,#653));
ENDSEC;
END-ISO-10303-21;
