ISO-10303-21;
HEADER;
/* Generated by software containing ST-Developer
 * from STEP Tools, Inc. (www.steptools.com) 
 */

FILE_DESCRIPTION(
/* description */ ('',
'CAx-IF Rec.Pracs.---Representation and Presentation of Product Manufa
cturing Information (PMI)---4.0---2014-10-13'),
/* implementation_level */ '2;1');

FILE_NAME(
/* name */ 'Z Spindle Mount Plate imp.step',
/* time_stamp */ '2025-04-22T05:19:03-07:00',
/* author */ (''),
/* organization */ (''),
/* preprocessor_version */ 'ST-DEVELOPER v20',
/* originating_system */ 'Autodesk Translation Framework v13.20.0.188',

/* authorisation */ '');

FILE_SCHEMA (('AP242_MANAGED_MODEL_BASED_3D_ENGINEERING_MIM_LF { 1 0 10303 442 1 1 4 }'));
ENDSEC;

DATA;
#10=MECHANICAL_DESIGN_GEOMETRIC_PRESENTATION_REPRESENTATION('',(#13),#807);
#11=SHAPE_REPRESENTATION_RELATIONSHIP('SRR','None',#817,#12);
#12=ADVANCED_BREP_SHAPE_REPRESENTATION('',(#14),#806);
#13=STYLED_ITEM('',(#827),#14);
#14=MANIFOLD_SOLID_BREP('Body1',#475);
#15=FACE_BOUND('',#96,.T.);
#16=FACE_BOUND('',#97,.T.);
#17=FACE_BOUND('',#98,.T.);
#18=FACE_BOUND('',#99,.T.);
#19=FACE_BOUND('',#100,.T.);
#20=FACE_BOUND('',#101,.T.);
#21=FACE_BOUND('',#102,.T.);
#22=FACE_BOUND('',#103,.T.);
#23=FACE_BOUND('',#104,.T.);
#24=FACE_BOUND('',#105,.T.);
#25=FACE_BOUND('',#106,.T.);
#26=FACE_BOUND('',#107,.T.);
#27=FACE_BOUND('',#108,.T.);
#28=FACE_BOUND('',#109,.T.);
#29=FACE_BOUND('',#110,.T.);
#30=FACE_BOUND('',#111,.T.);
#31=FACE_BOUND('',#113,.T.);
#32=FACE_BOUND('',#114,.T.);
#33=FACE_BOUND('',#115,.T.);
#34=FACE_BOUND('',#116,.T.);
#35=FACE_BOUND('',#117,.T.);
#36=FACE_BOUND('',#118,.T.);
#37=FACE_BOUND('',#119,.T.);
#38=FACE_BOUND('',#120,.T.);
#39=FACE_BOUND('',#121,.T.);
#40=FACE_BOUND('',#122,.T.);
#41=FACE_BOUND('',#123,.T.);
#42=FACE_BOUND('',#124,.T.);
#43=FACE_BOUND('',#125,.T.);
#44=FACE_BOUND('',#126,.T.);
#45=FACE_BOUND('',#127,.T.);
#46=FACE_BOUND('',#128,.T.);
#47=PLANE('',#537);
#48=PLANE('',#538);
#49=PLANE('',#539);
#50=PLANE('',#540);
#51=PLANE('',#541);
#52=PLANE('',#542);
#53=FACE_OUTER_BOUND('',#75,.T.);
#54=FACE_OUTER_BOUND('',#76,.T.);
#55=FACE_OUTER_BOUND('',#77,.T.);
#56=FACE_OUTER_BOUND('',#78,.T.);
#57=FACE_OUTER_BOUND('',#79,.T.);
#58=FACE_OUTER_BOUND('',#80,.T.);
#59=FACE_OUTER_BOUND('',#81,.T.);
#60=FACE_OUTER_BOUND('',#82,.T.);
#61=FACE_OUTER_BOUND('',#83,.T.);
#62=FACE_OUTER_BOUND('',#84,.T.);
#63=FACE_OUTER_BOUND('',#85,.T.);
#64=FACE_OUTER_BOUND('',#86,.T.);
#65=FACE_OUTER_BOUND('',#87,.T.);
#66=FACE_OUTER_BOUND('',#88,.T.);
#67=FACE_OUTER_BOUND('',#89,.T.);
#68=FACE_OUTER_BOUND('',#90,.T.);
#69=FACE_OUTER_BOUND('',#91,.T.);
#70=FACE_OUTER_BOUND('',#92,.T.);
#71=FACE_OUTER_BOUND('',#93,.T.);
#72=FACE_OUTER_BOUND('',#94,.T.);
#73=FACE_OUTER_BOUND('',#95,.T.);
#74=FACE_OUTER_BOUND('',#112,.T.);
#75=EDGE_LOOP('',(#317,#318,#319,#320));
#76=EDGE_LOOP('',(#321,#322,#323,#324));
#77=EDGE_LOOP('',(#325,#326,#327,#328));
#78=EDGE_LOOP('',(#329,#330,#331,#332));
#79=EDGE_LOOP('',(#333,#334,#335,#336));
#80=EDGE_LOOP('',(#337,#338,#339,#340));
#81=EDGE_LOOP('',(#341,#342,#343,#344));
#82=EDGE_LOOP('',(#345,#346,#347,#348));
#83=EDGE_LOOP('',(#349,#350,#351,#352));
#84=EDGE_LOOP('',(#353,#354,#355,#356));
#85=EDGE_LOOP('',(#357,#358,#359,#360));
#86=EDGE_LOOP('',(#361,#362,#363,#364));
#87=EDGE_LOOP('',(#365,#366,#367,#368));
#88=EDGE_LOOP('',(#369,#370,#371,#372));
#89=EDGE_LOOP('',(#373,#374,#375,#376));
#90=EDGE_LOOP('',(#377,#378,#379,#380));
#91=EDGE_LOOP('',(#381,#382,#383,#384));
#92=EDGE_LOOP('',(#385,#386,#387,#388));
#93=EDGE_LOOP('',(#389,#390,#391,#392));
#94=EDGE_LOOP('',(#393,#394,#395,#396));
#95=EDGE_LOOP('',(#397,#398,#399,#400));
#96=EDGE_LOOP('',(#401));
#97=EDGE_LOOP('',(#402));
#98=EDGE_LOOP('',(#403));
#99=EDGE_LOOP('',(#404));
#100=EDGE_LOOP('',(#405));
#101=EDGE_LOOP('',(#406));
#102=EDGE_LOOP('',(#407));
#103=EDGE_LOOP('',(#408));
#104=EDGE_LOOP('',(#409));
#105=EDGE_LOOP('',(#410));
#106=EDGE_LOOP('',(#411));
#107=EDGE_LOOP('',(#412));
#108=EDGE_LOOP('',(#413));
#109=EDGE_LOOP('',(#414));
#110=EDGE_LOOP('',(#415));
#111=EDGE_LOOP('',(#416));
#112=EDGE_LOOP('',(#417,#418,#419,#420));
#113=EDGE_LOOP('',(#421));
#114=EDGE_LOOP('',(#422));
#115=EDGE_LOOP('',(#423));
#116=EDGE_LOOP('',(#424));
#117=EDGE_LOOP('',(#425));
#118=EDGE_LOOP('',(#426));
#119=EDGE_LOOP('',(#427));
#120=EDGE_LOOP('',(#428));
#121=EDGE_LOOP('',(#429));
#122=EDGE_LOOP('',(#430));
#123=EDGE_LOOP('',(#431));
#124=EDGE_LOOP('',(#432));
#125=EDGE_LOOP('',(#433));
#126=EDGE_LOOP('',(#434));
#127=EDGE_LOOP('',(#435));
#128=EDGE_LOOP('',(#436));
#129=LINE('',#686,#157);
#130=LINE('',#692,#158);
#131=LINE('',#698,#159);
#132=LINE('',#704,#160);
#133=LINE('',#710,#161);
#134=LINE('',#716,#162);
#135=LINE('',#722,#163);
#136=LINE('',#728,#164);
#137=LINE('',#734,#165);
#138=LINE('',#740,#166);
#139=LINE('',#746,#167);
#140=LINE('',#752,#168);
#141=LINE('',#758,#169);
#142=LINE('',#764,#170);
#143=LINE('',#770,#171);
#144=LINE('',#776,#172);
#145=LINE('',#781,#173);
#146=LINE('',#783,#174);
#147=LINE('',#785,#175);
#148=LINE('',#786,#176);
#149=LINE('',#789,#177);
#150=LINE('',#791,#178);
#151=LINE('',#792,#179);
#152=LINE('',#795,#180);
#153=LINE('',#797,#181);
#154=LINE('',#798,#182);
#155=LINE('',#800,#183);
#156=LINE('',#801,#184);
#157=VECTOR('',#549,0.0639763779527565);
#158=VECTOR('',#556,0.0639763779527565);
#159=VECTOR('',#563,0.0639763779527565);
#160=VECTOR('',#570,0.0639763779527565);
#161=VECTOR('',#577,0.0639763779527565);
#162=VECTOR('',#584,0.0639763779527565);
#163=VECTOR('',#591,0.0639763779527565);
#164=VECTOR('',#598,0.0639763779527565);
#165=VECTOR('',#605,0.0639763779527565);
#166=VECTOR('',#612,0.0639763779527565);
#167=VECTOR('',#619,0.0639763779527565);
#168=VECTOR('',#626,0.0639763779527565);
#169=VECTOR('',#633,0.0639763779527565);
#170=VECTOR('',#640,0.0639763779527565);
#171=VECTOR('',#647,0.0639763779527565);
#172=VECTOR('',#654,0.0639763779527565);
#173=VECTOR('',#659,0.393700787401575);
#174=VECTOR('',#660,0.393700787401575);
#175=VECTOR('',#661,0.393700787401575);
#176=VECTOR('',#662,0.393700787401575);
#177=VECTOR('',#665,0.393700787401575);
#178=VECTOR('',#666,0.393700787401575);
#179=VECTOR('',#667,0.393700787401575);
#180=VECTOR('',#670,0.393700787401575);
#181=VECTOR('',#671,0.393700787401575);
#182=VECTOR('',#672,0.393700787401575);
#183=VECTOR('',#675,0.393700787401575);
#184=VECTOR('',#676,0.393700787401575);
#185=CIRCLE('',#490,0.0639763779527565);
#186=CIRCLE('',#491,0.0639763779527565);
#187=CIRCLE('',#493,0.0639763779527565);
#188=CIRCLE('',#494,0.0639763779527565);
#189=CIRCLE('',#496,0.0639763779527565);
#190=CIRCLE('',#497,0.0639763779527565);
#191=CIRCLE('',#499,0.0639763779527565);
#192=CIRCLE('',#500,0.0639763779527565);
#193=CIRCLE('',#502,0.0639763779527565);
#194=CIRCLE('',#503,0.0639763779527565);
#195=CIRCLE('',#505,0.0639763779527565);
#196=CIRCLE('',#506,0.0639763779527565);
#197=CIRCLE('',#508,0.0639763779527565);
#198=CIRCLE('',#509,0.0639763779527565);
#199=CIRCLE('',#511,0.0639763779527565);
#200=CIRCLE('',#512,0.0639763779527565);
#201=CIRCLE('',#514,0.0639763779527565);
#202=CIRCLE('',#515,0.0639763779527565);
#203=CIRCLE('',#517,0.0639763779527565);
#204=CIRCLE('',#518,0.0639763779527565);
#205=CIRCLE('',#520,0.0639763779527565);
#206=CIRCLE('',#521,0.0639763779527565);
#207=CIRCLE('',#523,0.0639763779527565);
#208=CIRCLE('',#524,0.0639763779527565);
#209=CIRCLE('',#526,0.0639763779527565);
#210=CIRCLE('',#527,0.0639763779527565);
#211=CIRCLE('',#529,0.0639763779527565);
#212=CIRCLE('',#530,0.0639763779527565);
#213=CIRCLE('',#532,0.0639763779527565);
#214=CIRCLE('',#533,0.0639763779527565);
#215=CIRCLE('',#535,0.0639763779527565);
#216=CIRCLE('',#536,0.0639763779527565);
#217=VERTEX_POINT('',#683);
#218=VERTEX_POINT('',#685);
#219=VERTEX_POINT('',#689);
#220=VERTEX_POINT('',#691);
#221=VERTEX_POINT('',#695);
#222=VERTEX_POINT('',#697);
#223=VERTEX_POINT('',#701);
#224=VERTEX_POINT('',#703);
#225=VERTEX_POINT('',#707);
#226=VERTEX_POINT('',#709);
#227=VERTEX_POINT('',#713);
#228=VERTEX_POINT('',#715);
#229=VERTEX_POINT('',#719);
#230=VERTEX_POINT('',#721);
#231=VERTEX_POINT('',#725);
#232=VERTEX_POINT('',#727);
#233=VERTEX_POINT('',#731);
#234=VERTEX_POINT('',#733);
#235=VERTEX_POINT('',#737);
#236=VERTEX_POINT('',#739);
#237=VERTEX_POINT('',#743);
#238=VERTEX_POINT('',#745);
#239=VERTEX_POINT('',#749);
#240=VERTEX_POINT('',#751);
#241=VERTEX_POINT('',#755);
#242=VERTEX_POINT('',#757);
#243=VERTEX_POINT('',#761);
#244=VERTEX_POINT('',#763);
#245=VERTEX_POINT('',#767);
#246=VERTEX_POINT('',#769);
#247=VERTEX_POINT('',#773);
#248=VERTEX_POINT('',#775);
#249=VERTEX_POINT('',#779);
#250=VERTEX_POINT('',#780);
#251=VERTEX_POINT('',#782);
#252=VERTEX_POINT('',#784);
#253=VERTEX_POINT('',#788);
#254=VERTEX_POINT('',#790);
#255=VERTEX_POINT('',#794);
#256=VERTEX_POINT('',#796);
#257=EDGE_CURVE('',#217,#217,#185,.T.);
#258=EDGE_CURVE('',#217,#218,#129,.T.);
#259=EDGE_CURVE('',#218,#218,#186,.T.);
#260=EDGE_CURVE('',#219,#219,#187,.T.);
#261=EDGE_CURVE('',#219,#220,#130,.T.);
#262=EDGE_CURVE('',#220,#220,#188,.T.);
#263=EDGE_CURVE('',#221,#221,#189,.T.);
#264=EDGE_CURVE('',#221,#222,#131,.T.);
#265=EDGE_CURVE('',#222,#222,#190,.T.);
#266=EDGE_CURVE('',#223,#223,#191,.T.);
#267=EDGE_CURVE('',#223,#224,#132,.T.);
#268=EDGE_CURVE('',#224,#224,#192,.T.);
#269=EDGE_CURVE('',#225,#225,#193,.T.);
#270=EDGE_CURVE('',#225,#226,#133,.T.);
#271=EDGE_CURVE('',#226,#226,#194,.T.);
#272=EDGE_CURVE('',#227,#227,#195,.T.);
#273=EDGE_CURVE('',#227,#228,#134,.T.);
#274=EDGE_CURVE('',#228,#228,#196,.T.);
#275=EDGE_CURVE('',#229,#229,#197,.T.);
#276=EDGE_CURVE('',#229,#230,#135,.T.);
#277=EDGE_CURVE('',#230,#230,#198,.T.);
#278=EDGE_CURVE('',#231,#231,#199,.T.);
#279=EDGE_CURVE('',#231,#232,#136,.T.);
#280=EDGE_CURVE('',#232,#232,#200,.T.);
#281=EDGE_CURVE('',#233,#233,#201,.T.);
#282=EDGE_CURVE('',#233,#234,#137,.T.);
#283=EDGE_CURVE('',#234,#234,#202,.T.);
#284=EDGE_CURVE('',#235,#235,#203,.T.);
#285=EDGE_CURVE('',#235,#236,#138,.T.);
#286=EDGE_CURVE('',#236,#236,#204,.T.);
#287=EDGE_CURVE('',#237,#237,#205,.T.);
#288=EDGE_CURVE('',#237,#238,#139,.T.);
#289=EDGE_CURVE('',#238,#238,#206,.T.);
#290=EDGE_CURVE('',#239,#239,#207,.T.);
#291=EDGE_CURVE('',#239,#240,#140,.T.);
#292=EDGE_CURVE('',#240,#240,#208,.T.);
#293=EDGE_CURVE('',#241,#241,#209,.T.);
#294=EDGE_CURVE('',#241,#242,#141,.T.);
#295=EDGE_CURVE('',#242,#242,#210,.T.);
#296=EDGE_CURVE('',#243,#243,#211,.T.);
#297=EDGE_CURVE('',#243,#244,#142,.T.);
#298=EDGE_CURVE('',#244,#244,#212,.T.);
#299=EDGE_CURVE('',#245,#245,#213,.T.);
#300=EDGE_CURVE('',#245,#246,#143,.T.);
#301=EDGE_CURVE('',#246,#246,#214,.T.);
#302=EDGE_CURVE('',#247,#247,#215,.T.);
#303=EDGE_CURVE('',#247,#248,#144,.T.);
#304=EDGE_CURVE('',#248,#248,#216,.T.);
#305=EDGE_CURVE('',#249,#250,#145,.T.);
#306=EDGE_CURVE('',#249,#251,#146,.T.);
#307=EDGE_CURVE('',#252,#251,#147,.T.);
#308=EDGE_CURVE('',#250,#252,#148,.T.);
#309=EDGE_CURVE('',#250,#253,#149,.T.);
#310=EDGE_CURVE('',#254,#252,#150,.T.);
#311=EDGE_CURVE('',#253,#254,#151,.T.);
#312=EDGE_CURVE('',#253,#255,#152,.T.);
#313=EDGE_CURVE('',#256,#254,#153,.T.);
#314=EDGE_CURVE('',#255,#256,#154,.T.);
#315=EDGE_CURVE('',#255,#249,#155,.T.);
#316=EDGE_CURVE('',#251,#256,#156,.T.);
#317=ORIENTED_EDGE('',*,*,#257,.F.);
#318=ORIENTED_EDGE('',*,*,#258,.T.);
#319=ORIENTED_EDGE('',*,*,#259,.F.);
#320=ORIENTED_EDGE('',*,*,#258,.F.);
#321=ORIENTED_EDGE('',*,*,#260,.F.);
#322=ORIENTED_EDGE('',*,*,#261,.T.);
#323=ORIENTED_EDGE('',*,*,#262,.F.);
#324=ORIENTED_EDGE('',*,*,#261,.F.);
#325=ORIENTED_EDGE('',*,*,#263,.F.);
#326=ORIENTED_EDGE('',*,*,#264,.T.);
#327=ORIENTED_EDGE('',*,*,#265,.F.);
#328=ORIENTED_EDGE('',*,*,#264,.F.);
#329=ORIENTED_EDGE('',*,*,#266,.F.);
#330=ORIENTED_EDGE('',*,*,#267,.T.);
#331=ORIENTED_EDGE('',*,*,#268,.F.);
#332=ORIENTED_EDGE('',*,*,#267,.F.);
#333=ORIENTED_EDGE('',*,*,#269,.F.);
#334=ORIENTED_EDGE('',*,*,#270,.T.);
#335=ORIENTED_EDGE('',*,*,#271,.F.);
#336=ORIENTED_EDGE('',*,*,#270,.F.);
#337=ORIENTED_EDGE('',*,*,#272,.F.);
#338=ORIENTED_EDGE('',*,*,#273,.T.);
#339=ORIENTED_EDGE('',*,*,#274,.F.);
#340=ORIENTED_EDGE('',*,*,#273,.F.);
#341=ORIENTED_EDGE('',*,*,#275,.F.);
#342=ORIENTED_EDGE('',*,*,#276,.T.);
#343=ORIENTED_EDGE('',*,*,#277,.F.);
#344=ORIENTED_EDGE('',*,*,#276,.F.);
#345=ORIENTED_EDGE('',*,*,#278,.F.);
#346=ORIENTED_EDGE('',*,*,#279,.T.);
#347=ORIENTED_EDGE('',*,*,#280,.F.);
#348=ORIENTED_EDGE('',*,*,#279,.F.);
#349=ORIENTED_EDGE('',*,*,#281,.F.);
#350=ORIENTED_EDGE('',*,*,#282,.T.);
#351=ORIENTED_EDGE('',*,*,#283,.F.);
#352=ORIENTED_EDGE('',*,*,#282,.F.);
#353=ORIENTED_EDGE('',*,*,#284,.F.);
#354=ORIENTED_EDGE('',*,*,#285,.T.);
#355=ORIENTED_EDGE('',*,*,#286,.F.);
#356=ORIENTED_EDGE('',*,*,#285,.F.);
#357=ORIENTED_EDGE('',*,*,#287,.F.);
#358=ORIENTED_EDGE('',*,*,#288,.T.);
#359=ORIENTED_EDGE('',*,*,#289,.F.);
#360=ORIENTED_EDGE('',*,*,#288,.F.);
#361=ORIENTED_EDGE('',*,*,#290,.F.);
#362=ORIENTED_EDGE('',*,*,#291,.T.);
#363=ORIENTED_EDGE('',*,*,#292,.F.);
#364=ORIENTED_EDGE('',*,*,#291,.F.);
#365=ORIENTED_EDGE('',*,*,#293,.F.);
#366=ORIENTED_EDGE('',*,*,#294,.T.);
#367=ORIENTED_EDGE('',*,*,#295,.F.);
#368=ORIENTED_EDGE('',*,*,#294,.F.);
#369=ORIENTED_EDGE('',*,*,#296,.F.);
#370=ORIENTED_EDGE('',*,*,#297,.T.);
#371=ORIENTED_EDGE('',*,*,#298,.F.);
#372=ORIENTED_EDGE('',*,*,#297,.F.);
#373=ORIENTED_EDGE('',*,*,#299,.F.);
#374=ORIENTED_EDGE('',*,*,#300,.T.);
#375=ORIENTED_EDGE('',*,*,#301,.F.);
#376=ORIENTED_EDGE('',*,*,#300,.F.);
#377=ORIENTED_EDGE('',*,*,#302,.F.);
#378=ORIENTED_EDGE('',*,*,#303,.T.);
#379=ORIENTED_EDGE('',*,*,#304,.F.);
#380=ORIENTED_EDGE('',*,*,#303,.F.);
#381=ORIENTED_EDGE('',*,*,#305,.F.);
#382=ORIENTED_EDGE('',*,*,#306,.T.);
#383=ORIENTED_EDGE('',*,*,#307,.F.);
#384=ORIENTED_EDGE('',*,*,#308,.F.);
#385=ORIENTED_EDGE('',*,*,#309,.F.);
#386=ORIENTED_EDGE('',*,*,#308,.T.);
#387=ORIENTED_EDGE('',*,*,#310,.F.);
#388=ORIENTED_EDGE('',*,*,#311,.F.);
#389=ORIENTED_EDGE('',*,*,#312,.F.);
#390=ORIENTED_EDGE('',*,*,#311,.T.);
#391=ORIENTED_EDGE('',*,*,#313,.F.);
#392=ORIENTED_EDGE('',*,*,#314,.F.);
#393=ORIENTED_EDGE('',*,*,#315,.F.);
#394=ORIENTED_EDGE('',*,*,#314,.T.);
#395=ORIENTED_EDGE('',*,*,#316,.F.);
#396=ORIENTED_EDGE('',*,*,#306,.F.);
#397=ORIENTED_EDGE('',*,*,#315,.T.);
#398=ORIENTED_EDGE('',*,*,#305,.T.);
#399=ORIENTED_EDGE('',*,*,#309,.T.);
#400=ORIENTED_EDGE('',*,*,#312,.T.);
#401=ORIENTED_EDGE('',*,*,#257,.T.);
#402=ORIENTED_EDGE('',*,*,#260,.T.);
#403=ORIENTED_EDGE('',*,*,#263,.T.);
#404=ORIENTED_EDGE('',*,*,#266,.T.);
#405=ORIENTED_EDGE('',*,*,#269,.T.);
#406=ORIENTED_EDGE('',*,*,#272,.T.);
#407=ORIENTED_EDGE('',*,*,#275,.T.);
#408=ORIENTED_EDGE('',*,*,#278,.T.);
#409=ORIENTED_EDGE('',*,*,#281,.T.);
#410=ORIENTED_EDGE('',*,*,#284,.T.);
#411=ORIENTED_EDGE('',*,*,#287,.T.);
#412=ORIENTED_EDGE('',*,*,#290,.T.);
#413=ORIENTED_EDGE('',*,*,#304,.T.);
#414=ORIENTED_EDGE('',*,*,#301,.T.);
#415=ORIENTED_EDGE('',*,*,#298,.T.);
#416=ORIENTED_EDGE('',*,*,#295,.T.);
#417=ORIENTED_EDGE('',*,*,#316,.T.);
#418=ORIENTED_EDGE('',*,*,#313,.T.);
#419=ORIENTED_EDGE('',*,*,#310,.T.);
#420=ORIENTED_EDGE('',*,*,#307,.T.);
#421=ORIENTED_EDGE('',*,*,#259,.T.);
#422=ORIENTED_EDGE('',*,*,#262,.T.);
#423=ORIENTED_EDGE('',*,*,#265,.T.);
#424=ORIENTED_EDGE('',*,*,#268,.T.);
#425=ORIENTED_EDGE('',*,*,#271,.T.);
#426=ORIENTED_EDGE('',*,*,#274,.T.);
#427=ORIENTED_EDGE('',*,*,#277,.T.);
#428=ORIENTED_EDGE('',*,*,#280,.T.);
#429=ORIENTED_EDGE('',*,*,#283,.T.);
#430=ORIENTED_EDGE('',*,*,#286,.T.);
#431=ORIENTED_EDGE('',*,*,#289,.T.);
#432=ORIENTED_EDGE('',*,*,#292,.T.);
#433=ORIENTED_EDGE('',*,*,#302,.T.);
#434=ORIENTED_EDGE('',*,*,#299,.T.);
#435=ORIENTED_EDGE('',*,*,#296,.T.);
#436=ORIENTED_EDGE('',*,*,#293,.T.);
#437=CYLINDRICAL_SURFACE('',#489,0.0639763779527565);
#438=CYLINDRICAL_SURFACE('',#492,0.0639763779527565);
#439=CYLINDRICAL_SURFACE('',#495,0.0639763779527565);
#440=CYLINDRICAL_SURFACE('',#498,0.0639763779527565);
#441=CYLINDRICAL_SURFACE('',#501,0.0639763779527565);
#442=CYLINDRICAL_SURFACE('',#504,0.0639763779527565);
#443=CYLINDRICAL_SURFACE('',#507,0.0639763779527565);
#444=CYLINDRICAL_SURFACE('',#510,0.0639763779527565);
#445=CYLINDRICAL_SURFACE('',#513,0.0639763779527565);
#446=CYLINDRICAL_SURFACE('',#516,0.0639763779527565);
#447=CYLINDRICAL_SURFACE('',#519,0.0639763779527565);
#448=CYLINDRICAL_SURFACE('',#522,0.0639763779527565);
#449=CYLINDRICAL_SURFACE('',#525,0.0639763779527565);
#450=CYLINDRICAL_SURFACE('',#528,0.0639763779527565);
#451=CYLINDRICAL_SURFACE('',#531,0.0639763779527565);
#452=CYLINDRICAL_SURFACE('',#534,0.0639763779527565);
#453=ADVANCED_FACE('',(#53),#437,.F.);
#454=ADVANCED_FACE('',(#54),#438,.F.);
#455=ADVANCED_FACE('',(#55),#439,.F.);
#456=ADVANCED_FACE('',(#56),#440,.F.);
#457=ADVANCED_FACE('',(#57),#441,.F.);
#458=ADVANCED_FACE('',(#58),#442,.F.);
#459=ADVANCED_FACE('',(#59),#443,.F.);
#460=ADVANCED_FACE('',(#60),#444,.F.);
#461=ADVANCED_FACE('',(#61),#445,.F.);
#462=ADVANCED_FACE('',(#62),#446,.F.);
#463=ADVANCED_FACE('',(#63),#447,.F.);
#464=ADVANCED_FACE('',(#64),#448,.F.);
#465=ADVANCED_FACE('',(#65),#449,.F.);
#466=ADVANCED_FACE('',(#66),#450,.F.);
#467=ADVANCED_FACE('',(#67),#451,.F.);
#468=ADVANCED_FACE('',(#68),#452,.F.);
#469=ADVANCED_FACE('',(#69),#47,.T.);
#470=ADVANCED_FACE('',(#70),#48,.T.);
#471=ADVANCED_FACE('',(#71),#49,.T.);
#472=ADVANCED_FACE('',(#72),#50,.T.);
#473=ADVANCED_FACE('',(#73,#15,#16,#17,#18,#19,#20,#21,#22,#23,#24,#25,
#26,#27,#28,#29,#30),#51,.T.);
#474=ADVANCED_FACE('',(#74,#31,#32,#33,#34,#35,#36,#37,#38,#39,#40,#41,
#42,#43,#44,#45,#46),#52,.F.);
#475=CLOSED_SHELL('',(#453,#454,#455,#456,#457,#458,#459,#460,#461,#462,
#463,#464,#465,#466,#467,#468,#469,#470,#471,#472,#473,#474));
#476=DERIVED_UNIT_ELEMENT(#478,1.);
#477=DERIVED_UNIT_ELEMENT(#811,-3.);
#478=(
MASS_UNIT()
NAMED_UNIT(*)
SI_UNIT(.KILO.,.GRAM.)
);
#479=DERIVED_UNIT((#476,#477));
#480=MEASURE_REPRESENTATION_ITEM('density measure',
POSITIVE_RATIO_MEASURE(7850.),#479);
#481=PROPERTY_DEFINITION_REPRESENTATION(#486,#483);
#482=PROPERTY_DEFINITION_REPRESENTATION(#487,#484);
#483=REPRESENTATION('material name',(#485),#806);
#484=REPRESENTATION('density',(#480),#806);
#485=DESCRIPTIVE_REPRESENTATION_ITEM('Steel','Steel');
#486=PROPERTY_DEFINITION('material property','material name',#819);
#487=PROPERTY_DEFINITION('material property','density of part',#819);
#488=AXIS2_PLACEMENT_3D('',#681,#543,#544);
#489=AXIS2_PLACEMENT_3D('',#682,#545,#546);
#490=AXIS2_PLACEMENT_3D('',#684,#547,#548);
#491=AXIS2_PLACEMENT_3D('',#687,#550,#551);
#492=AXIS2_PLACEMENT_3D('',#688,#552,#553);
#493=AXIS2_PLACEMENT_3D('',#690,#554,#555);
#494=AXIS2_PLACEMENT_3D('',#693,#557,#558);
#495=AXIS2_PLACEMENT_3D('',#694,#559,#560);
#496=AXIS2_PLACEMENT_3D('',#696,#561,#562);
#497=AXIS2_PLACEMENT_3D('',#699,#564,#565);
#498=AXIS2_PLACEMENT_3D('',#700,#566,#567);
#499=AXIS2_PLACEMENT_3D('',#702,#568,#569);
#500=AXIS2_PLACEMENT_3D('',#705,#571,#572);
#501=AXIS2_PLACEMENT_3D('',#706,#573,#574);
#502=AXIS2_PLACEMENT_3D('',#708,#575,#576);
#503=AXIS2_PLACEMENT_3D('',#711,#578,#579);
#504=AXIS2_PLACEMENT_3D('',#712,#580,#581);
#505=AXIS2_PLACEMENT_3D('',#714,#582,#583);
#506=AXIS2_PLACEMENT_3D('',#717,#585,#586);
#507=AXIS2_PLACEMENT_3D('',#718,#587,#588);
#508=AXIS2_PLACEMENT_3D('',#720,#589,#590);
#509=AXIS2_PLACEMENT_3D('',#723,#592,#593);
#510=AXIS2_PLACEMENT_3D('',#724,#594,#595);
#511=AXIS2_PLACEMENT_3D('',#726,#596,#597);
#512=AXIS2_PLACEMENT_3D('',#729,#599,#600);
#513=AXIS2_PLACEMENT_3D('',#730,#601,#602);
#514=AXIS2_PLACEMENT_3D('',#732,#603,#604);
#515=AXIS2_PLACEMENT_3D('',#735,#606,#607);
#516=AXIS2_PLACEMENT_3D('',#736,#608,#609);
#517=AXIS2_PLACEMENT_3D('',#738,#610,#611);
#518=AXIS2_PLACEMENT_3D('',#741,#613,#614);
#519=AXIS2_PLACEMENT_3D('',#742,#615,#616);
#520=AXIS2_PLACEMENT_3D('',#744,#617,#618);
#521=AXIS2_PLACEMENT_3D('',#747,#620,#621);
#522=AXIS2_PLACEMENT_3D('',#748,#622,#623);
#523=AXIS2_PLACEMENT_3D('',#750,#624,#625);
#524=AXIS2_PLACEMENT_3D('',#753,#627,#628);
#525=AXIS2_PLACEMENT_3D('',#754,#629,#630);
#526=AXIS2_PLACEMENT_3D('',#756,#631,#632);
#527=AXIS2_PLACEMENT_3D('',#759,#634,#635);
#528=AXIS2_PLACEMENT_3D('',#760,#636,#637);
#529=AXIS2_PLACEMENT_3D('',#762,#638,#639);
#530=AXIS2_PLACEMENT_3D('',#765,#641,#642);
#531=AXIS2_PLACEMENT_3D('',#766,#643,#644);
#532=AXIS2_PLACEMENT_3D('',#768,#645,#646);
#533=AXIS2_PLACEMENT_3D('',#771,#648,#649);
#534=AXIS2_PLACEMENT_3D('',#772,#650,#651);
#535=AXIS2_PLACEMENT_3D('',#774,#652,#653);
#536=AXIS2_PLACEMENT_3D('',#777,#655,#656);
#537=AXIS2_PLACEMENT_3D('',#778,#657,#658);
#538=AXIS2_PLACEMENT_3D('',#787,#663,#664);
#539=AXIS2_PLACEMENT_3D('',#793,#668,#669);
#540=AXIS2_PLACEMENT_3D('',#799,#673,#674);
#541=AXIS2_PLACEMENT_3D('',#802,#677,#678);
#542=AXIS2_PLACEMENT_3D('',#803,#679,#680);
#543=DIRECTION('axis',(0.,0.,1.));
#544=DIRECTION('refdir',(1.,0.,0.));
#545=DIRECTION('center_axis',(0.,-1.,0.));
#546=DIRECTION('ref_axis',(1.,0.,0.));
#547=DIRECTION('center_axis',(0.,-1.,0.));
#548=DIRECTION('ref_axis',(1.,0.,0.));
#549=DIRECTION('',(0.,-1.,0.));
#550=DIRECTION('center_axis',(0.,1.,0.));
#551=DIRECTION('ref_axis',(1.,0.,0.));
#552=DIRECTION('center_axis',(0.,-1.,0.));
#553=DIRECTION('ref_axis',(1.,0.,0.));
#554=DIRECTION('center_axis',(0.,-1.,0.));
#555=DIRECTION('ref_axis',(1.,0.,0.));
#556=DIRECTION('',(0.,-1.,0.));
#557=DIRECTION('center_axis',(0.,1.,0.));
#558=DIRECTION('ref_axis',(1.,0.,0.));
#559=DIRECTION('center_axis',(0.,-1.,0.));
#560=DIRECTION('ref_axis',(1.,0.,0.));
#561=DIRECTION('center_axis',(0.,-1.,0.));
#562=DIRECTION('ref_axis',(1.,0.,0.));
#563=DIRECTION('',(0.,-1.,0.));
#564=DIRECTION('center_axis',(0.,1.,0.));
#565=DIRECTION('ref_axis',(1.,0.,0.));
#566=DIRECTION('center_axis',(0.,-1.,0.));
#567=DIRECTION('ref_axis',(1.,0.,0.));
#568=DIRECTION('center_axis',(0.,-1.,0.));
#569=DIRECTION('ref_axis',(1.,0.,0.));
#570=DIRECTION('',(0.,-1.,0.));
#571=DIRECTION('center_axis',(0.,1.,0.));
#572=DIRECTION('ref_axis',(1.,0.,0.));
#573=DIRECTION('center_axis',(0.,-1.,0.));
#574=DIRECTION('ref_axis',(1.,0.,0.));
#575=DIRECTION('center_axis',(0.,-1.,0.));
#576=DIRECTION('ref_axis',(1.,0.,0.));
#577=DIRECTION('',(0.,-1.,0.));
#578=DIRECTION('center_axis',(0.,1.,0.));
#579=DIRECTION('ref_axis',(1.,0.,0.));
#580=DIRECTION('center_axis',(0.,-1.,0.));
#581=DIRECTION('ref_axis',(1.,0.,0.));
#582=DIRECTION('center_axis',(0.,-1.,0.));
#583=DIRECTION('ref_axis',(1.,0.,0.));
#584=DIRECTION('',(0.,-1.,0.));
#585=DIRECTION('center_axis',(0.,1.,0.));
#586=DIRECTION('ref_axis',(1.,0.,0.));
#587=DIRECTION('center_axis',(0.,-1.,0.));
#588=DIRECTION('ref_axis',(1.,0.,0.));
#589=DIRECTION('center_axis',(0.,-1.,0.));
#590=DIRECTION('ref_axis',(1.,0.,0.));
#591=DIRECTION('',(0.,-1.,0.));
#592=DIRECTION('center_axis',(0.,1.,0.));
#593=DIRECTION('ref_axis',(1.,0.,0.));
#594=DIRECTION('center_axis',(0.,-1.,0.));
#595=DIRECTION('ref_axis',(1.,0.,0.));
#596=DIRECTION('center_axis',(0.,-1.,0.));
#597=DIRECTION('ref_axis',(1.,0.,0.));
#598=DIRECTION('',(0.,-1.,0.));
#599=DIRECTION('center_axis',(0.,1.,0.));
#600=DIRECTION('ref_axis',(1.,0.,0.));
#601=DIRECTION('center_axis',(0.,-1.,0.));
#602=DIRECTION('ref_axis',(1.,0.,0.));
#603=DIRECTION('center_axis',(0.,-1.,0.));
#604=DIRECTION('ref_axis',(1.,0.,0.));
#605=DIRECTION('',(0.,-1.,0.));
#606=DIRECTION('center_axis',(0.,1.,0.));
#607=DIRECTION('ref_axis',(1.,0.,0.));
#608=DIRECTION('center_axis',(0.,-1.,0.));
#609=DIRECTION('ref_axis',(1.,0.,0.));
#610=DIRECTION('center_axis',(0.,-1.,0.));
#611=DIRECTION('ref_axis',(1.,0.,0.));
#612=DIRECTION('',(0.,-1.,0.));
#613=DIRECTION('center_axis',(0.,1.,0.));
#614=DIRECTION('ref_axis',(1.,0.,0.));
#615=DIRECTION('center_axis',(0.,-1.,0.));
#616=DIRECTION('ref_axis',(1.,0.,0.));
#617=DIRECTION('center_axis',(0.,-1.,0.));
#618=DIRECTION('ref_axis',(1.,0.,0.));
#619=DIRECTION('',(0.,-1.,0.));
#620=DIRECTION('center_axis',(0.,1.,0.));
#621=DIRECTION('ref_axis',(1.,0.,0.));
#622=DIRECTION('center_axis',(0.,-1.,0.));
#623=DIRECTION('ref_axis',(1.,0.,0.));
#624=DIRECTION('center_axis',(0.,-1.,0.));
#625=DIRECTION('ref_axis',(1.,0.,0.));
#626=DIRECTION('',(0.,-1.,0.));
#627=DIRECTION('center_axis',(0.,1.,0.));
#628=DIRECTION('ref_axis',(1.,0.,0.));
#629=DIRECTION('center_axis',(0.,-1.,0.));
#630=DIRECTION('ref_axis',(1.,0.,0.));
#631=DIRECTION('center_axis',(0.,1.,0.));
#632=DIRECTION('ref_axis',(1.,0.,0.));
#633=DIRECTION('',(0.,1.,0.));
#634=DIRECTION('center_axis',(0.,-1.,0.));
#635=DIRECTION('ref_axis',(1.,0.,0.));
#636=DIRECTION('center_axis',(0.,-1.,0.));
#637=DIRECTION('ref_axis',(1.,0.,0.));
#638=DIRECTION('center_axis',(0.,1.,0.));
#639=DIRECTION('ref_axis',(1.,0.,0.));
#640=DIRECTION('',(0.,1.,0.));
#641=DIRECTION('center_axis',(0.,-1.,0.));
#642=DIRECTION('ref_axis',(1.,0.,0.));
#643=DIRECTION('center_axis',(0.,-1.,0.));
#644=DIRECTION('ref_axis',(1.,0.,0.));
#645=DIRECTION('center_axis',(0.,1.,0.));
#646=DIRECTION('ref_axis',(1.,0.,0.));
#647=DIRECTION('',(0.,1.,0.));
#648=DIRECTION('center_axis',(0.,-1.,0.));
#649=DIRECTION('ref_axis',(1.,0.,0.));
#650=DIRECTION('center_axis',(0.,-1.,0.));
#651=DIRECTION('ref_axis',(1.,0.,0.));
#652=DIRECTION('center_axis',(0.,1.,0.));
#653=DIRECTION('ref_axis',(1.,0.,0.));
#654=DIRECTION('',(0.,1.,0.));
#655=DIRECTION('center_axis',(0.,-1.,0.));
#656=DIRECTION('ref_axis',(1.,0.,0.));
#657=DIRECTION('center_axis',(0.,0.,1.));
#658=DIRECTION('ref_axis',(-1.,0.,0.));
#659=DIRECTION('',(1.,0.,0.));
#660=DIRECTION('',(0.,-1.,0.));
#661=DIRECTION('',(-1.,0.,0.));
#662=DIRECTION('',(0.,-1.,0.));
#663=DIRECTION('center_axis',(1.,0.,0.));
#664=DIRECTION('ref_axis',(0.,0.,1.));
#665=DIRECTION('',(0.,0.,-1.));
#666=DIRECTION('',(0.,0.,1.));
#667=DIRECTION('',(0.,-1.,0.));
#668=DIRECTION('center_axis',(0.,0.,-1.));
#669=DIRECTION('ref_axis',(1.,0.,0.));
#670=DIRECTION('',(-1.,0.,0.));
#671=DIRECTION('',(1.,0.,0.));
#672=DIRECTION('',(0.,-1.,0.));
#673=DIRECTION('center_axis',(-1.,0.,0.));
#674=DIRECTION('ref_axis',(0.,0.,-1.));
#675=DIRECTION('',(0.,0.,1.));
#676=DIRECTION('',(0.,0.,-1.));
#677=DIRECTION('center_axis',(0.,1.,0.));
#678=DIRECTION('ref_axis',(1.,0.,0.));
#679=DIRECTION('center_axis',(0.,1.,0.));
#680=DIRECTION('ref_axis',(1.,0.,0.));
#681=CARTESIAN_POINT('',(0.,0.,0.));
#682=CARTESIAN_POINT('Origin',(11.9593371798899,0.,-2.33668236837828));
#683=CARTESIAN_POINT('',(11.8953608019372,0.,-2.33668236837828));
#684=CARTESIAN_POINT('Origin',(11.9593371798899,0.,-2.33668236837828));
#685=CARTESIAN_POINT('',(11.8953608019372,-0.255905511811024,-2.33668236837828));
#686=CARTESIAN_POINT('',(11.8953608019372,0.,-2.33668236837828));
#687=CARTESIAN_POINT('Origin',(11.9593371798899,-0.255905511811024,-2.33668236837828));
#688=CARTESIAN_POINT('Origin',(14.7593450539057,0.,-2.33668236837828));
#689=CARTESIAN_POINT('',(14.6953686759529,0.,-2.33668236837828));
#690=CARTESIAN_POINT('Origin',(14.7593450539057,0.,-2.33668236837828));
#691=CARTESIAN_POINT('',(14.6953686759529,-0.255905511811024,-2.33668236837828));
#692=CARTESIAN_POINT('',(14.6953686759529,0.,-2.33668236837828));
#693=CARTESIAN_POINT('Origin',(14.7593450539057,-0.255905511811024,-2.33668236837828));
#694=CARTESIAN_POINT('Origin',(14.7593450539057,0.,-1.32687134475623));
#695=CARTESIAN_POINT('',(14.6953686759529,0.,-1.32687134475623));
#696=CARTESIAN_POINT('Origin',(14.7593450539057,0.,-1.32687134475623));
#697=CARTESIAN_POINT('',(14.6953686759529,-0.255905511811024,-1.32687134475623));
#698=CARTESIAN_POINT('',(14.6953686759529,0.,-1.32687134475623));
#699=CARTESIAN_POINT('Origin',(14.7593450539057,-0.255905511811024,-1.32687134475623));
#700=CARTESIAN_POINT('Origin',(15.5467466287088,0.,-1.32687134475623));
#701=CARTESIAN_POINT('',(15.4827702507561,0.,-1.32687134475623));
#702=CARTESIAN_POINT('Origin',(15.5467466287088,0.,-1.32687134475623));
#703=CARTESIAN_POINT('',(15.4827702507561,-0.255905511811024,-1.32687134475623));
#704=CARTESIAN_POINT('',(15.4827702507561,0.,-1.32687134475623));
#705=CARTESIAN_POINT('Origin',(15.5467466287088,-0.255905511811024,-1.32687134475623));
#706=CARTESIAN_POINT('Origin',(14.7593450539057,0.,-2.92723354948064));
#707=CARTESIAN_POINT('',(14.6953686759529,0.,-2.92723354948064));
#708=CARTESIAN_POINT('Origin',(14.7593450539057,0.,-2.92723354948064));
#709=CARTESIAN_POINT('',(14.6953686759529,-0.255905511811024,-2.92723354948064));
#710=CARTESIAN_POINT('',(14.6953686759529,0.,-2.92723354948064));
#711=CARTESIAN_POINT('Origin',(14.7593450539057,-0.255905511811024,-2.92723354948064));
#712=CARTESIAN_POINT('Origin',(11.9593371798899,0.,-2.92723354948064));
#713=CARTESIAN_POINT('',(11.8953608019372,0.,-2.92723354948064));
#714=CARTESIAN_POINT('Origin',(11.9593371798899,0.,-2.92723354948064));
#715=CARTESIAN_POINT('',(11.8953608019372,-0.255905511811024,-2.92723354948064));
#716=CARTESIAN_POINT('',(11.8953608019372,0.,-2.92723354948064));
#717=CARTESIAN_POINT('Origin',(11.9593371798899,-0.255905511811024,-2.92723354948064));
#718=CARTESIAN_POINT('Origin',(12.7467387546931,0.,-2.33668236837828));
#719=CARTESIAN_POINT('',(12.6827623767403,0.,-2.33668236837828));
#720=CARTESIAN_POINT('Origin',(12.7467387546931,0.,-2.33668236837828));
#721=CARTESIAN_POINT('',(12.6827623767403,-0.255905511811024,-2.33668236837828));
#722=CARTESIAN_POINT('',(12.6827623767403,0.,-2.33668236837828));
#723=CARTESIAN_POINT('Origin',(12.7467387546931,-0.255905511811024,-2.33668236837828));
#724=CARTESIAN_POINT('Origin',(15.5467466287088,0.,-2.33668236837828));
#725=CARTESIAN_POINT('',(15.4827702507561,0.,-2.33668236837828));
#726=CARTESIAN_POINT('Origin',(15.5467466287088,0.,-2.33668236837828));
#727=CARTESIAN_POINT('',(15.4827702507561,-0.255905511811024,-2.33668236837828));
#728=CARTESIAN_POINT('',(15.4827702507561,0.,-2.33668236837828));
#729=CARTESIAN_POINT('Origin',(15.5467466287088,-0.255905511811024,-2.33668236837828));
#730=CARTESIAN_POINT('Origin',(14.7593450539057,0.,-0.736320163653867));
#731=CARTESIAN_POINT('',(14.6953686759529,0.,-0.736320163653867));
#732=CARTESIAN_POINT('Origin',(14.7593450539057,0.,-0.736320163653867));
#733=CARTESIAN_POINT('',(14.6953686759529,-0.255905511811024,-0.736320163653867));
#734=CARTESIAN_POINT('',(14.6953686759529,0.,-0.736320163653867));
#735=CARTESIAN_POINT('Origin',(14.7593450539057,-0.255905511811024,-0.736320163653867));
#736=CARTESIAN_POINT('Origin',(15.5467466287088,0.,-0.736320163653866));
#737=CARTESIAN_POINT('',(15.4827702507561,0.,-0.736320163653866));
#738=CARTESIAN_POINT('Origin',(15.5467466287088,0.,-0.736320163653866));
#739=CARTESIAN_POINT('',(15.4827702507561,-0.255905511811024,-0.736320163653866));
#740=CARTESIAN_POINT('',(15.4827702507561,0.,-0.736320163653866));
#741=CARTESIAN_POINT('Origin',(15.5467466287088,-0.255905511811024,-0.736320163653866));
#742=CARTESIAN_POINT('Origin',(15.5467466287088,0.,-2.92723354948064));
#743=CARTESIAN_POINT('',(15.4827702507561,0.,-2.92723354948064));
#744=CARTESIAN_POINT('Origin',(15.5467466287088,0.,-2.92723354948064));
#745=CARTESIAN_POINT('',(15.4827702507561,-0.255905511811024,-2.92723354948064));
#746=CARTESIAN_POINT('',(15.4827702507561,0.,-2.92723354948064));
#747=CARTESIAN_POINT('Origin',(15.5467466287088,-0.255905511811024,-2.92723354948064));
#748=CARTESIAN_POINT('Origin',(12.7467387546931,0.,-2.92723354948064));
#749=CARTESIAN_POINT('',(12.6827623767403,0.,-2.92723354948064));
#750=CARTESIAN_POINT('Origin',(12.7467387546931,0.,-2.92723354948064));
#751=CARTESIAN_POINT('',(12.6827623767403,-0.255905511811024,-2.92723354948064));
#752=CARTESIAN_POINT('',(12.6827623767403,0.,-2.92723354948064));
#753=CARTESIAN_POINT('Origin',(12.7467387546931,-0.255905511811024,-2.92723354948064));
#754=CARTESIAN_POINT('Origin',(11.9593371798899,0.,-0.736320163653868));
#755=CARTESIAN_POINT('',(11.8953608019372,-0.255905511811024,-0.736320163653868));
#756=CARTESIAN_POINT('Origin',(11.9593371798899,-0.255905511811024,-0.736320163653868));
#757=CARTESIAN_POINT('',(11.8953608019372,0.,-0.736320163653868));
#758=CARTESIAN_POINT('',(11.8953608019372,0.,-0.736320163653868));
#759=CARTESIAN_POINT('Origin',(11.9593371798899,0.,-0.736320163653868));
#760=CARTESIAN_POINT('Origin',(11.9593371798899,0.,-1.32687134475623));
#761=CARTESIAN_POINT('',(11.8953608019372,-0.255905511811024,-1.32687134475623));
#762=CARTESIAN_POINT('Origin',(11.9593371798899,-0.255905511811024,-1.32687134475623));
#763=CARTESIAN_POINT('',(11.8953608019372,0.,-1.32687134475623));
#764=CARTESIAN_POINT('',(11.8953608019372,0.,-1.32687134475623));
#765=CARTESIAN_POINT('Origin',(11.9593371798899,0.,-1.32687134475623));
#766=CARTESIAN_POINT('Origin',(12.7467387546931,0.,-0.736320163653868));
#767=CARTESIAN_POINT('',(12.6827623767403,-0.255905511811024,-0.736320163653868));
#768=CARTESIAN_POINT('Origin',(12.7467387546931,-0.255905511811024,-0.736320163653868));
#769=CARTESIAN_POINT('',(12.6827623767403,0.,-0.736320163653868));
#770=CARTESIAN_POINT('',(12.6827623767403,0.,-0.736320163653868));
#771=CARTESIAN_POINT('Origin',(12.7467387546931,0.,-0.736320163653868));
#772=CARTESIAN_POINT('Origin',(12.7467387546931,0.,-1.32687134475623));
#773=CARTESIAN_POINT('',(12.6827623767403,-0.255905511811024,-1.32687134475623));
#774=CARTESIAN_POINT('Origin',(12.7467387546931,-0.255905511811024,-1.32687134475623));
#775=CARTESIAN_POINT('',(12.6827623767403,0.,-1.32687134475623));
#776=CARTESIAN_POINT('',(12.6827623767403,0.,-1.32687134475623));
#777=CARTESIAN_POINT('Origin',(12.7467387546931,0.,-1.32687134475623));
#778=CARTESIAN_POINT('Origin',(16.2530419042994,0.,-0.0817768565672545));
#779=CARTESIAN_POINT('',(11.2530419042994,0.,-0.0817768565672544));
#780=CARTESIAN_POINT('',(16.2530419042994,0.,-0.0817768565672545));
#781=CARTESIAN_POINT('',(11.2530419042994,0.,-0.0817768565672545));
#782=CARTESIAN_POINT('',(11.2530419042994,-0.255905511811024,-0.0817768565672544));
#783=CARTESIAN_POINT('',(11.2530419042994,0.,-0.0817768565672544));
#784=CARTESIAN_POINT('',(16.2530419042994,-0.255905511811024,-0.0817768565672545));
#785=CARTESIAN_POINT('',(11.2530419042994,-0.255905511811024,-0.0817768565672545));
#786=CARTESIAN_POINT('',(16.2530419042994,0.,-0.0817768565672545));
#787=CARTESIAN_POINT('Origin',(16.2530419042994,0.,-3.58177685656725));
#788=CARTESIAN_POINT('',(16.2530419042994,0.,-3.58177685656725));
#789=CARTESIAN_POINT('',(16.2530419042994,0.,-0.0817768565672545));
#790=CARTESIAN_POINT('',(16.2530419042994,-0.255905511811024,-3.58177685656725));
#791=CARTESIAN_POINT('',(16.2530419042994,-0.255905511811024,-0.0817768565672545));
#792=CARTESIAN_POINT('',(16.2530419042994,0.,-3.58177685656725));
#793=CARTESIAN_POINT('Origin',(11.2530419042994,0.,-3.58177685656725));
#794=CARTESIAN_POINT('',(11.2530419042994,0.,-3.58177685656725));
#795=CARTESIAN_POINT('',(16.2530419042994,0.,-3.58177685656725));
#796=CARTESIAN_POINT('',(11.2530419042994,-0.255905511811024,-3.58177685656725));
#797=CARTESIAN_POINT('',(16.2530419042994,-0.255905511811024,-3.58177685656725));
#798=CARTESIAN_POINT('',(11.2530419042994,0.,-3.58177685656725));
#799=CARTESIAN_POINT('Origin',(11.2530419042994,0.,-0.0817768565672544));
#800=CARTESIAN_POINT('',(11.2530419042994,0.,-3.58177685656725));
#801=CARTESIAN_POINT('',(11.2530419042994,-0.255905511811024,-3.58177685656725));
#802=CARTESIAN_POINT('Origin',(13.7530419042994,0.,-1.83177685656725));
#803=CARTESIAN_POINT('Origin',(13.7530419042994,-0.255905511811024,-1.83177685656725));
#804=UNCERTAINTY_MEASURE_WITH_UNIT(LENGTH_MEASURE(0.000393700787401575),
#809,'DISTANCE_ACCURACY_VALUE',
'Maximum model space distance between geometric entities at asserted c
onnectivities');
#805=UNCERTAINTY_MEASURE_WITH_UNIT(LENGTH_MEASURE(0.000393700787401575),
#809,'DISTANCE_ACCURACY_VALUE',
'Maximum model space distance between geometric entities at asserted c
onnectivities');
#806=(
GEOMETRIC_REPRESENTATION_CONTEXT(3)
GLOBAL_UNCERTAINTY_ASSIGNED_CONTEXT((#804))
GLOBAL_UNIT_ASSIGNED_CONTEXT((#809,#813,#814))
REPRESENTATION_CONTEXT('','3D')
);
#807=(
GEOMETRIC_REPRESENTATION_CONTEXT(3)
GLOBAL_UNCERTAINTY_ASSIGNED_CONTEXT((#805))
GLOBAL_UNIT_ASSIGNED_CONTEXT((#809,#813,#814))
REPRESENTATION_CONTEXT('','3D')
);
#808=DIMENSIONAL_EXPONENTS(1.,0.,0.,0.,0.,0.,0.);
#809=(
CONVERSION_BASED_UNIT('inch',#812)
LENGTH_UNIT()
NAMED_UNIT(#808)
);
#810=(
LENGTH_UNIT()
NAMED_UNIT(*)
SI_UNIT(.MILLI.,.METRE.)
);
#811=(
LENGTH_UNIT()
NAMED_UNIT(*)
SI_UNIT($,.METRE.)
);
#812=LENGTH_MEASURE_WITH_UNIT(LENGTH_MEASURE(25.4),#810);
#813=(
NAMED_UNIT(*)
PLANE_ANGLE_UNIT()
SI_UNIT($,.RADIAN.)
);
#814=(
NAMED_UNIT(*)
SI_UNIT($,.STERADIAN.)
SOLID_ANGLE_UNIT()
);
#815=SHAPE_DEFINITION_REPRESENTATION(#816,#817);
#816=PRODUCT_DEFINITION_SHAPE('',$,#819);
#817=SHAPE_REPRESENTATION('',(#488),#806);
#818=PRODUCT_DEFINITION_CONTEXT('part definition',#823,'design');
#819=PRODUCT_DEFINITION('FusionComponent','FusionComponent',#820,#818);
#820=PRODUCT_DEFINITION_FORMATION('',$,#825);
#821=PRODUCT_RELATED_PRODUCT_CATEGORY('FusionComponent',
'FusionComponent',(#825));
#822=APPLICATION_PROTOCOL_DEFINITION('international standard',
'ap242_managed_model_based_3d_engineering',2011,#823);
#823=APPLICATION_CONTEXT('Managed model based 3d engineering');
#824=PRODUCT_CONTEXT('part definition',#823,'mechanical');
#825=PRODUCT('FusionComponent','FusionComponent',$,(#824));
#826=PRESENTATION_STYLE_ASSIGNMENT((#828));
#827=PRESENTATION_STYLE_ASSIGNMENT((#829));
#828=SURFACE_STYLE_USAGE(.BOTH.,#830);
#829=SURFACE_STYLE_USAGE(.BOTH.,#831);
#830=SURFACE_SIDE_STYLE('',(#832));
#831=SURFACE_SIDE_STYLE('',(#833));
#832=SURFACE_STYLE_FILL_AREA(#834);
#833=SURFACE_STYLE_FILL_AREA(#835);
#834=FILL_AREA_STYLE('Steel - Satin',(#836));
#835=FILL_AREA_STYLE('Paint - Metallic (Silver)',(#837));
#836=FILL_AREA_STYLE_COLOUR('Steel - Satin',#838);
#837=FILL_AREA_STYLE_COLOUR('Paint - Metallic (Silver)',#839);
#838=COLOUR_RGB('Steel - Satin',0.627450980392157,0.627450980392157,0.627450980392157);
#839=COLOUR_RGB('Paint - Metallic (Silver)',0.984313725490196,0.980392156862745,
0.96078431372549);
ENDSEC;
END-ISO-10303-21;
